<svg xmlns="http://www.w3.org/2000/svg" viewBox="0 0 400.36 499.2"><defs><style>.cls-1{fill:#331f17;}.cls-2{fill:#331f18;}.cls-3{fill:#9e9998;}.cls-4{fill:#a7a4a5;}.cls-5{fill:#ca4e22;}.cls-6{fill:#d56729;}.cls-7{fill:#feedd4;}.cls-8{fill:#feeed4;}.cls-9{fill:#cb4c21;}.cls-10{fill:#d36628;}.cls-11{fill:#cb4e22;}.cls-12{fill:#9b3216;}.cls-13{fill:#cb4e25;}.cls-14{fill:#331e16;}.cls-15{fill:#331d15;}.cls-16{fill:#ffedd2;}.cls-17{fill:#feebd2;}.cls-18{fill:#feecd2;}.cls-19{fill:#ffedd1;}.cls-20{fill:#ffecd4;}.cls-21{fill:#fefefe;}.cls-22{fill:#fdfdfd;}</style></defs><title>Varlık 90</title><g id="katman_2" data-name="katman 2"><g id="katman_1-2" data-name="katman 1"><path class="cls-1" d="M361,167.31c8.95,7.46,31.95,70.8,10.55,66.61-17.92-32.62-42.95-77.72-87.63-66.64-3.06.55-5.27,1.93.86,2.84,22.13,6.07,42.45,41.46,30.82,60.32-5.19,2.83-7.38-2.7-10-7.14-16.37-33.28-53.22-38.41-67.38-4.58,1.8,4.52,6.19,8.22,9.57,12,13.87,16,48.44,17.14,31,27.1-40.73,8.45-49.7-23.19-47.8-.09.51,2.46-1.24,6.25,1.12,7.6a54.67,54.67,0,0,1,25.77-1.41c33.92,6.26,53,44.1,40.7,75.65-3.75,13.1-22.85,24.74,2.67,12.28,23.35-14.17,39.29-35.87,68.52-26.74,24.29,8.61,32.57,35.39,27.11,59.17-29.37,96.89-122.89,75.49-168.48,77-5.21-.38,5.38,28.36,3,33.8-4.24,7.14-19.24,2.69-25.33,3.86-10.21-.91-20.58,1.42-30.13-1.9-7.87-3.53,5.25-30.67,2.12-36.08-44.08-2.21-85.31,5.91-122.3-13C-41.77,390.59,17,285.46,85.49,341.43c8,5.34,14.32,10.88,24.13,13.62-27.91-33.55-8.64-86.36,34.31-91.93,29.85-4.62,27.27,15.67,26.91-14.51-6.27.74-13.93,7.51-22.5,8.43-6.86,2.08-36.17,4.72-31.19-7.23C133,241.69,152,236.21,162,219.2c-2.94-18.07-25.11-24.12-40.56-16.32-7.83,3.64-13.16,8.69-18.82,15.67-23.55,32.66-16.91-25.91,7.83-38-26.77,3.38-44.7,29.29-57.52,51.7-19.65,17.64-9.63-61.84,32.62-78.73C47.31,162,37.33,200,23.32,231.39c-11.57,7.51-9.82-20.83-9.65-26.49,1.94-27.23,14.91-51.58,34.45-70.93-17.27,11.53-28.6,30.68-38.77,49.3-17.83,19-5.66-37.08-.25-43.71A126.1,126.1,0,0,1,57.3,85.43c-18.22,5.39-31.89,23.15-45.84,36.14-9.58,2.73-6.19-10.3-4.22-16.21C30.56,41.52,108.59,20.41,158.6,67.1c.51.1.71.78,1.37.76a1.82,1.82,0,0,0-.62-1.51A106.45,106.45,0,0,0,115.66,33.1c-5.49-3.29-14.31-2.78-18.91-8.24-2.18-8,18.44-7.58,22.45-8,15-.45,28.2,2.26,41.48,10.45,12.54,7.35,20.82,18.29,28.79,30.17,2.15-18.38,3.9-40.42,16-56.71,15.36-5.4-.95,21.05-1,28.67a154.46,154.46,0,0,0-4.74,47.93c11.63-34.71,46-61.1,83.52-58,5.2,1,27.18,3.51,19,12.83-7.54,3.27-16,4.94-24.21,8.78-18,8.28-33.31,21.29-43.16,38.81,39.43-41.59,91.32-47.25,134.29-9.61,31.37,26.41,40.37,79.9,21.16,61.59C366.61,97.2,330.9,73.44,290,90.55c108.6-9.54,123.61,146,99.34,119.87-8-14.89-15.31-30.92-27.64-44.08a2.25,2.25,0,0,0-1-1l-.28-.24c-.13-.19,0,0-.51-.46-.09,0-1-.53-.44.45l.71,1A8.55,8.55,0,0,0,361,167.31Z"/><path class="cls-2" d="M333.08,219.66a32.6,32.6,0,0,1-.65,8.07,16,16,0,0,1-2.06,5.77,6,6,0,0,1-1.24,1.32,2.48,2.48,0,0,1-3.95-1.12,9,9,0,0,1-.62-3.44c0-1.58,0-3.16.23-4.73a70.08,70.08,0,0,0,.21-13.35c-.16-2.26-.37-4.53-.72-6.76a72.88,72.88,0,0,0-1.47-7.23,44.66,44.66,0,0,0-2.51-7.33c-1-2.16-2-4.3-3.08-6.44a9.06,9.06,0,0,1-.43-1.13c-.08-.23-.17-.47,0-.68s.43-.14.66,0a4.89,4.89,0,0,1,1.25.72,35.1,35.1,0,0,1,7.2,8.45,46.56,46.56,0,0,1,3,5.94,51.64,51.64,0,0,1,2.26,6.62,42.7,42.7,0,0,1,1.43,7.34A62.89,62.89,0,0,1,333.08,219.66Z"/><path class="cls-3" d="M159.35,66.35c.86.33.85,1.11,1.06,1.94a2.58,2.58,0,0,1-1.81-1.19c.52-.14.67.49,1.14.53C159.88,67.12,159.34,66.81,159.35,66.35Z"/><path class="cls-4" d="M359.52,165.14c-.3-.33-.87-.73-.44-1.13s.72.3,1,.57.39.28.35.57a.8.8,0,0,1-.52-.25C359.58,164.58,359.62,165,359.52,165.14Z"/><path class="cls-4" d="M360.75,165.39c.64,0,.92.36,1,1Z"/><path class="cls-4" d="M361,167.31a1.37,1.37,0,0,1-.77-1.18A1.68,1.68,0,0,1,361,167.31Z"/><path class="cls-5" d="M370.8,215.12a2.27,2.27,0,0,1-.66-1.11,83.07,83.07,0,0,0-6.32-12.17,126.27,126.27,0,0,0-8.4-12.33c-2-2.63-4.17-5.16-6.41-7.61-1.62-1.77-3.27-3.49-5-5.15-2.13-2.06-4.42-3.92-6.73-5.77a77.56,77.56,0,0,0-15.92-10,56.6,56.6,0,0,0-16.46-4.93,65,65,0,0,0-13.22-.41,56.14,56.14,0,0,0-16.94,4A66.14,66.14,0,0,0,264,165.26a66.93,66.93,0,0,0-8.22,6.22,102.43,102.43,0,0,0-8.28,8.39,54.69,54.69,0,0,0-5.52,7.06c-.88,1.36-1.77,2.71-2.6,4.09a15.92,15.92,0,0,0-1.29,4.16,5.34,5.34,0,0,1-1,2,47.78,47.78,0,0,0-4.92,7.79,36.34,36.34,0,0,0-1.73,3.34c-.37.91-.57.84-1.2.07-2.45-3-5.46-5-9.49-5.1a7.48,7.48,0,0,0-5.64,2.68,12.62,12.62,0,0,0-3.37,8c-.61,7.2,1.51,13.68,5.4,19.65A31,31,0,0,0,220,238.6a3.83,3.83,0,0,1,1.19,2.92q-.09,13.32,0,26.64a2.35,2.35,0,0,1-1.16,2.2,54.24,54.24,0,0,0-10.83,9.34,47.67,47.67,0,0,0-5.65,7.87c-1,1.61-1.8,3.27-2.69,4.91a13.39,13.39,0,0,0-.9,2.38.88.88,0,0,1-.51.65c-.47-1-1-2.07-1.42-3.12a54.6,54.6,0,0,0-8.76-13.94,47.28,47.28,0,0,0-7.29-6.77c-.26-.19-.49-.43-.76-.6a1.61,1.61,0,0,1-.69-1.56q0-14.49,0-29a2.07,2.07,0,0,1,.53-1.42c1-1.24,2.18-2.39,3.13-3.71a38.06,38.06,0,0,0,4.68-8.76,31.14,31.14,0,0,0,1.76-5.68,24.42,24.42,0,0,0,.11-10,10.86,10.86,0,0,0-5.15-7.35c-3.28-1.85-6.45-1.5-9.5.51a16.79,16.79,0,0,0-4.48,4c-.53.72-.92.65-1.31-.18a70.9,70.9,0,0,0-6.75-11.22c-.76-1.05-1.59-2-2.41-3A1.26,1.26,0,0,1,161,192c1.39-1.74,1.22-3.67.7-5.66a31.46,31.46,0,0,0-4.29-8.67,84.23,84.23,0,0,0-8.35-10.86,92.82,92.82,0,0,0-9.8-9.43,71,71,0,0,0-14.35-9.49,58.62,58.62,0,0,0-16.45-5.35,52.39,52.39,0,0,0-9.19-.7,49.71,49.71,0,0,0-9.86,1.22,98.71,98.71,0,0,0-11.23,3.1A77.36,77.36,0,0,0,59,155.6,73,73,0,0,0,47,166a98.93,98.93,0,0,0-11.53,15.59c-1.72,2.84-3.27,5.78-4.79,8.73-1.39,2.7-2.55,5.51-3.8,8.28-1.45,3.22-2.57,6.56-3.82,9.86-.49,1.28-.82,2.61-1.22,3.92-.45,0-.33-.36-.33-.56a57.07,57.07,0,0,1,.38-6.66c.17-1.61.29-3.22.53-4.82a101.88,101.88,0,0,1,2.89-13.27,108.72,108.72,0,0,1,8.2-20.5,111,111,0,0,1,6.17-10.17,89.59,89.59,0,0,1,13.41-15.62c1.81-1.63,3.6-3.26,5.5-4.78,2.09-1.67,4.3-3.16,6.51-4.65a87.82,87.82,0,0,1,14.62-7.91,52.5,52.5,0,0,1,12.16-3.74,31,31,0,0,1,11.6.13,53.43,53.43,0,0,1,15.5,6.22,98.92,98.92,0,0,1,16.54,12.09c2.24,2,4.45,4,6.56,6.14,2.4,2.42,4.58,5,6.83,7.59a111.32,111.32,0,0,1,8.54,11.19c1.9,2.82,3.66,5.74,5.46,8.63a7.2,7.2,0,0,0,1.74,2,2.93,2.93,0,0,0,4.69-1.38,10.71,10.71,0,0,0-.3-7.6,42.91,42.91,0,0,0-4.34-8,142.14,142.14,0,0,0-9.56-12.85,124.42,124.42,0,0,0-21.12-20,100.71,100.71,0,0,0-9.44-6.18,67.66,67.66,0,0,0-31.21-9.39,72.49,72.49,0,0,0-9,.15A55.19,55.19,0,0,0,73,110.61,75.79,75.79,0,0,0,53.9,119,110.79,110.79,0,0,0,39,130.09c-2.72,2.38-5.35,4.84-7.84,7.45a132.8,132.8,0,0,0-12.75,15c-2.38,3.36-4.81,6.7-7,10.21-.29.45-.46,1-1.14,1.3a14.2,14.2,0,0,1,.56-3.14,92.14,92.14,0,0,1,2.61-9.22,104,104,0,0,1,8.45-18.42,107,107,0,0,1,6.6-10.2,121.14,121.14,0,0,1,10.06-12,118.87,118.87,0,0,1,13-11.66A83.13,83.13,0,0,1,63.83,91.7,73.86,73.86,0,0,1,81.2,85.23a68.42,68.42,0,0,1,9.34-1.44,67.46,67.46,0,0,1,7.65-.21,54.22,54.22,0,0,1,17.21,3.35,61.29,61.29,0,0,1,12.45,6,84.91,84.91,0,0,1,11.92,9.37,123.65,123.65,0,0,1,17.36,20.57c3.14,4.59,6,9.32,8.71,14.18,1.71,3.08,3.19,6.29,4.76,9.45a10.46,10.46,0,0,0,1.07,1.76,3,3,0,0,0,5.28-.62,9.25,9.25,0,0,0,.17-6.31,57,57,0,0,0-3.53-8.91,117.53,117.53,0,0,0-10-17.32A127.11,127.11,0,0,0,154.17,103c-2.37-2.66-4.81-5.26-7.37-7.74A104.56,104.56,0,0,0,134.35,85a84,84,0,0,0-14.74-8.41,79.92,79.92,0,0,0-12.81-4.55c-3.22-.81-6.46-1.49-9.74-2a45.59,45.59,0,0,0-6.4-.59c-1.38,0-2.74-.24-4.13-.2a87.17,87.17,0,0,0-17.32,2,92.37,92.37,0,0,0-15,4.9,90.84,90.84,0,0,0-14.9,8.15A111.33,111.33,0,0,0,26.46,94.51c-1.59,1.44-3.18,2.87-4.75,4.34a32.23,32.23,0,0,0-2.86,3c-.3.37-.65,1.15-1.13.83s.08-1,.28-1.42a67.37,67.37,0,0,1,3.14-6.31,86.82,86.82,0,0,1,4.94-7.8,90.79,90.79,0,0,1,6.76-8.26c2-2.08,4-4.17,6.1-6.11a83.7,83.7,0,0,1,11.7-8.84A79.44,79.44,0,0,1,60,58.82a86.91,86.91,0,0,1,16.82-5.88,90.16,90.16,0,0,1,9.09-1.5,80.34,80.34,0,0,1,11.39-.67,81.63,81.63,0,0,1,36.13,8.85A84.33,84.33,0,0,1,150.39,70.7a84.86,84.86,0,0,1,7.9,7.74,99.71,99.71,0,0,1,9.8,12.82q3,4.71,5.66,9.64c2.08,3.9,4,7.86,6,11.83.86,1.74,1.64,3.53,2.53,5.26a14.42,14.42,0,0,0,1.37,2.14,2.27,2.27,0,0,0,2.4,1.08,2.4,2.4,0,0,0,1.84-1.89,8.79,8.79,0,0,0,.13-3.5,47.76,47.76,0,0,0-2-9c-1.16-3.58-2.16-7.21-3.39-10.77a165.08,165.08,0,0,0-10.27-23.87,110.85,110.85,0,0,0-9.76-15.07c-1-1.28-2.08-2.48-3.15-3.69a102.51,102.51,0,0,0-14.09-13A100.84,100.84,0,0,0,128.65,30.1c-2.29-1.13-4.61-2.19-6.92-3.28-.73-.34-1.51-.58-2.27-.85a2.85,2.85,0,0,1-1.17-.67c1.38,0,2.56,0,3.75,0,.4,0,.8.09,1.21.09A66.08,66.08,0,0,1,143.73,29a60.83,60.83,0,0,1,17,8.82A67,67,0,0,1,172,48.29a83.38,83.38,0,0,1,12.25,19.63,64.69,64.69,0,0,1,3.88,10.6c1.27,4.86,2.39,9.74,3.19,14.71.74,4.59,1.25,9.22,2.06,13.8.48,2.71.83,5.44,1.52,8.11a5,5,0,0,0,1.11,2.27c.69.74,1.2.72,2,0a6.23,6.23,0,0,0,1.77-3.91c.86-5.23,1.61-10.48,2.76-15.65.64-2.88,1.41-5.74,2.25-8.58a110.3,110.3,0,0,1,8.36-20.43c1.57-3,3.4-5.8,5.25-8.61a74.19,74.19,0,0,1,7.84-9.57,66,66,0,0,1,17.52-13.3,74.69,74.69,0,0,1,18.09-7,76.83,76.83,0,0,1,12.09-1.9c3-.2,6-.14,9-.16a4.09,4.09,0,0,1,.61,0c.23,0,.53,0,.52.36s-.26.26-.46.32a79.42,79.42,0,0,0-14.41,6.11,108.93,108.93,0,0,0-19.39,12.86,101.68,101.68,0,0,0-7.88,7.22A108.92,108.92,0,0,0,223.6,81.21a138.91,138.91,0,0,0-6.34,15A134,134,0,0,0,212.49,114a60.68,60.68,0,0,0-1.31,11.57,11.81,11.81,0,0,0,.5,3.35,3.72,3.72,0,0,0,1.62,2.2,1.59,1.59,0,0,0,2.13-.1,5.53,5.53,0,0,0,1.49-1.73,69.39,69.39,0,0,0,2.77-6.61,144.09,144.09,0,0,1,9.55-19.39,110.89,110.89,0,0,1,7.17-10.53,90.62,90.62,0,0,1,6.71-7.68,103.3,103.3,0,0,1,7.63-7.32,111.1,111.1,0,0,1,12.59-9.3c2.34-1.45,4.67-2.91,7.14-4.15a89.13,89.13,0,0,1,13.66-5.7,73.14,73.14,0,0,1,13.38-2.93,71.26,71.26,0,0,1,9.58-.5,79.17,79.17,0,0,1,17.66,2.23,88.78,88.78,0,0,1,23,9.31,86.68,86.68,0,0,1,13.74,10,89.44,89.44,0,0,1,14.16,15.63,98,98,0,0,1,8.24,13.74c.36.73.76,1.43,1.13,2.15a.52.52,0,0,1-.05.54c-.43-.11-.66-.5-.92-.8a68.29,68.29,0,0,0-6-6c-2.43-2.2-4.89-4.37-7.45-6.41a101.77,101.77,0,0,0-22-13.44,86.68,86.68,0,0,0-12.69-4.52,88.73,88.73,0,0,0-10-2,71.18,71.18,0,0,0-23.79.61A77.56,77.56,0,0,0,292,78.77a99.66,99.66,0,0,0-15.52,6.92,111.91,111.91,0,0,0-15.15,10.07c-2.8,2.2-5.53,4.48-8.11,6.95-1.24,1.17-2.51,2.31-3.72,3.5-3.14,3.11-6,6.48-8.83,9.87a123.21,123.21,0,0,0-9.7,13,127.88,127.88,0,0,0-8.11,14.39,55.21,55.21,0,0,0-4.23,12,26.21,26.21,0,0,0-.66,5.66,5.74,5.74,0,0,0,.76,2.78c.82,1.42,1.87,1.53,3.06.4A11.5,11.5,0,0,0,224,161c1.69-3.41,3.25-6.89,5.07-10.23a149.4,149.4,0,0,1,9.6-15.48,102.64,102.64,0,0,1,11.5-13.47,84.91,84.91,0,0,1,7.22-6.31A70.07,70.07,0,0,1,288,101.7,64.3,64.3,0,0,1,300,100.6a92.84,92.84,0,0,1,9.59.36,83.27,83.27,0,0,1,10.15,1.8,75.68,75.68,0,0,1,21.72,8.91A78.89,78.89,0,0,1,352.71,120,102.84,102.84,0,0,1,363,130.44a109.93,109.93,0,0,1,9.62,12.82,114.58,114.58,0,0,1,13.26,28.05,102.34,102.34,0,0,1,3.5,14.75,39.54,39.54,0,0,1,.59,5.43c0,.23,0,.47,0,.72-.47,0-.61-.32-.71-.6-.89-2.46-2.4-4.59-3.61-6.88-1.89-3.59-4.1-7-6.33-10.36-2.11-3.21-4.45-6.27-6.81-9.3a108.81,108.81,0,0,0-9.16-10.37,91.57,91.57,0,0,0-9.52-8.3A98.73,98.73,0,0,0,337,136a94.38,94.38,0,0,0-16.76-6.1,79.83,79.83,0,0,0-12.2-2,63.51,63.51,0,0,0-10.68-.13,71.43,71.43,0,0,0-17.12,3.3,79,79,0,0,0-16.61,7.69,97.51,97.51,0,0,0-13.58,10c-2.36,2.06-4.69,4.14-6.82,6.41a104.29,104.29,0,0,0-12.5,15.62,27.41,27.41,0,0,0-3.51,7.19,8.14,8.14,0,0,0-.23,4.43,3.78,3.78,0,0,0,.46,1.12c1.25,1.86,2.67,2.39,4.54.85a13.64,13.64,0,0,0,2.74-3.07,139.49,139.49,0,0,1,9.36-12.68,103.53,103.53,0,0,1,7.23-7.87,89.32,89.32,0,0,1,12-10.09A70.07,70.07,0,0,1,280.1,142a57.38,57.38,0,0,1,10-2.54,43.33,43.33,0,0,1,5.79-.57,71.17,71.17,0,0,1,10.92.46,59.31,59.31,0,0,1,7.35,1.57A55.73,55.73,0,0,1,325,145.06a66.69,66.69,0,0,1,15.72,11.31c2.81,2.76,5.54,5.58,8.06,8.6,1.73,2.09,3.26,4.34,4.81,6.56a98,98,0,0,1,12.06,22.82,105.25,105.25,0,0,1,3.56,11.36c.67,2.83,1.26,5.69,1.72,8.57C371,214.53,371.11,214.82,370.8,215.12Z"/><path class="cls-6" d="M199.14,340.2c.27.11.3.37.39.59a49.17,49.17,0,0,0,13.4,18.86A51.84,51.84,0,0,0,232,370.28,66.43,66.43,0,0,0,245.8,373a86.66,86.66,0,0,0,10.68.38c4.74-.16,9.45-.51,14.16-1.1A108.27,108.27,0,0,0,290.31,368a93.23,93.23,0,0,0,24.15-12.08c4.58-3.13,8.9-6.61,13.33-9.94a75.25,75.25,0,0,1,13.09-8.35,35.62,35.62,0,0,1,11.81-3.55c7.3-.7,14.21.55,20.42,4.69A32.23,32.23,0,0,1,383,349.32a37.23,37.23,0,0,1,4.82,16.4,57,57,0,0,1-.37,12.25,65.21,65.21,0,0,1-4.65,16.81,88.36,88.36,0,0,1-5.7,10.86A94.78,94.78,0,0,1,361,425.33a95.87,95.87,0,0,1-12.23,9.76,89.61,89.61,0,0,1-11.3,6.64,86.9,86.9,0,0,1-9.88,4.07,95.6,95.6,0,0,1-12.67,3.33c-2.78.54-5.59.89-8.41,1.2-12.89,1.44-25.82.92-38.74.91-8.75,0-17.51-.08-26.26-.27-7.66-.17-15.32-.07-23-.25-8.67-.21-17.34-.05-26-.22-9.24-.19-18.48-.06-27.72-.28-6.56-.15-13.13-.05-19.69-.22-10.54-.27-21.08,0-31.61-.24-4.34-.08-8.67-.19-13-.49a108.65,108.65,0,0,1-26.2-4.87,93.89,93.89,0,0,1-15.8-6.89,99.89,99.89,0,0,1-12-8,76,76,0,0,1-7.56-6.68,86.81,86.81,0,0,1-11.7-13.76,74,74,0,0,1-9.75-19.36,57.28,57.28,0,0,1-2.64-13.92,53.23,53.23,0,0,1,.39-10.18A35.42,35.42,0,0,1,17.62,357a36,36,0,0,1,4.49-8,33.07,33.07,0,0,1,3.49-3.89,30.22,30.22,0,0,1,17.26-8.45,34.93,34.93,0,0,1,13.73.87,51.61,51.61,0,0,1,14,6.32c4.14,2.63,8,5.61,12,8.45a128.1,128.1,0,0,0,14.72,9.21,102.6,102.6,0,0,0,19,7.27,123.41,123.41,0,0,0,12.43,2.83,76,76,0,0,0,8.9,1.13c2.91.2,5.82.43,8.74.43a64.22,64.22,0,0,0,21.8-3.73,47.35,47.35,0,0,0,11.25-5.67,58.9,58.9,0,0,0,7.72-6.27,50.41,50.41,0,0,0,7.61-9.59,61.18,61.18,0,0,0,3.69-7C198.68,340.61,198.79,340.3,199.14,340.2Z"/><path class="cls-7" d="M204.42,318a49.24,49.24,0,0,1,.53-9.17,45.88,45.88,0,0,1,13.54-25.28,41.4,41.4,0,0,1,18-10,43.55,43.55,0,0,1,21.78-.32,42.43,42.43,0,0,1,16.94,8.43,47.3,47.3,0,0,1,13.93,55.06A41.48,41.48,0,0,1,280.83,349,43.5,43.5,0,0,1,264,360a44.09,44.09,0,0,1-17.35,2.42,43.59,43.59,0,0,1-24.75-9.33,44.76,44.76,0,0,1-13-16A42.63,42.63,0,0,1,204.42,318Z"/><path class="cls-8" d="M193.78,316.5A42.11,42.11,0,0,1,191.64,331a48.4,48.4,0,0,1-5.84,12.12,42.87,42.87,0,0,1-39.42,19,46.26,46.26,0,0,1-8.84-1.57,42.72,42.72,0,0,1-13.38-6.46,45.44,45.44,0,0,1-9.24-8.92,43.59,43.59,0,0,1-8.73-22A46.32,46.32,0,0,1,107.42,306a45,45,0,0,1,6.26-13.88,45.49,45.49,0,0,1,13.5-13.29,49.29,49.29,0,0,1,11.57-5.3A46.29,46.29,0,0,1,156.57,272a37.41,37.41,0,0,1,14.07,4.36,42.41,42.41,0,0,1,17.69,17.7,48.48,48.48,0,0,1,5.14,15.5A43.16,43.16,0,0,1,193.78,316.5Z"/><path class="cls-9" d="M148.31,181.86a4.51,4.51,0,0,1-1.5-.88,51.1,51.1,0,0,0-10.22-5.56,50.53,50.53,0,0,0-7.66-2.72,54.34,54.34,0,0,0-12.45-1.82,52.42,52.42,0,0,0-16.13,2.4,32.09,32.09,0,0,0-4.09,1.55,85.68,85.68,0,0,0-14,7.79A93.39,93.39,0,0,0,67.5,195.91a103.67,103.67,0,0,0-9.79,12.21c-1.6,2.38-3.25,4.74-4.68,7.23-.17.29-.24.7-.78.78a28.46,28.46,0,0,1,.66-4.65,77.94,77.94,0,0,1,5.78-17.73,88.77,88.77,0,0,1,5.29-10A59.33,59.33,0,0,1,82.78,165a80.64,80.64,0,0,1,14.06-6.88,87,87,0,0,1,9.47-3,36.29,36.29,0,0,1,4.27-.87,13.71,13.71,0,0,1,6.5,1.24,58.16,58.16,0,0,1,17.5,11c3.12,2.79,5.93,5.87,8.78,8.91a15,15,0,0,1,1.07,1.32q1.75,2.32,3.64,4.55A.74.74,0,0,1,148.31,181.86Z"/><path class="cls-10" d="M218.48,474.63c.43,1.77.58,3.59.89,5.38.49,2.75.95,5.5,1.42,8.25,0,.2.07.4.1.6.07.53-.09.87-.71.83h-.73c-5.79,0-11.58.09-17.37-.05-5.34-.13-10.68-.11-16-.19l-.73,0a.64.64,0,0,1-.69-.79c.1-.76.19-1.52.33-2.28.42-2.39.88-4.77,1.3-7.16.23-1.35.4-2.72.6-4.08.21-.2,0-.52.21-.73h0a1.18,1.18,0,0,1,1.17-.46c9.34.18,18.67,0,28,.09C217,474,217.91,473.82,218.48,474.63Z"/><path class="cls-11" d="M309.32,211a.55.55,0,0,1-.58-.34,58.31,58.31,0,0,0-8.2-9.73A52.35,52.35,0,0,0,287,191.14a46.29,46.29,0,0,0-12-3.89,40.21,40.21,0,0,0-10-.65,37.63,37.63,0,0,0-12.95,3c-.36.15-.71.39-1.13.26-.07-.32.14-.48.3-.65a46.41,46.41,0,0,1,7.75-6.79,33.8,33.8,0,0,1,11.67-5,21.3,21.3,0,0,1,10.09.48,37.89,37.89,0,0,1,16.15,9.53,45.09,45.09,0,0,1,11.89,20.44A14,14,0,0,1,309.32,211Z"/><path class="cls-12" d="M218.48,474.63a2.91,2.91,0,0,0-1.54-.22l-26.87,0a6.1,6.1,0,0,1-2.17-.16c-.3-.11-.55.09-.82.16.28-1.75.57-3.5.83-5.25.31-2.07.6-4.15.9-6.22,0-.28.12-.55.16-.83a.65.65,0,0,1,.75-.61h.61l24.76,0c1.25,0,1.28,0,1.48,1.18.48,2.9.94,5.8,1.41,8.71C218.15,472.48,218.31,473.56,218.48,474.63Z"/><path class="cls-13" d="M97.55,210.53c.64-1.74,1.16-3.39,1.86-5A43.53,43.53,0,0,1,109.67,191a27.47,27.47,0,0,1,15.49-7.49,16.35,16.35,0,0,1,7.73,1.26,56.88,56.88,0,0,1,10.9,5.85,1,1,0,0,1,.27.24.84.84,0,0,1,.07.27c-1,.32-1.89-.13-2.82-.22a55,55,0,0,0-6.16-.28,36.12,36.12,0,0,0-10,1.66,50.5,50.5,0,0,0-11.93,5.35,73,73,0,0,0-14.27,11.83c-.33.34-.5.84-1,1.07A2.14,2.14,0,0,1,97.55,210.53Z"/><path class="cls-12" d="M187.08,474.39c0,.27,0,.55-.21.73A.68.68,0,0,1,187.08,474.39Z"/><path class="cls-14" d="M286.1,434.94c-3.32,0-6.65.08-10,0-4.54-.14-9.08-.13-13.61-.27-3.37-.11-6.73-.06-10.09-.22-4.29-.2-8.59-.07-12.88-.25-4.74-.2-9.48-.12-14.22-.24-6.89-.19-13.78-.08-20.67-.26-5.55-.15-11.1,0-16.65-.21-7.21-.23-14.43-.12-21.64-.28s-14.26-.15-21.39-.07q-21.52.24-43,.2a115.52,115.52,0,0,1-11.77-.59,75.35,75.35,0,0,1-15.55-3.19,66.42,66.42,0,0,1-14.93-7,67.35,67.35,0,0,1-9-6.8,68.14,68.14,0,0,1-12.88-15.59,55.88,55.88,0,0,1-7.28-19,31.52,31.52,0,0,1-.16-10,22,22,0,0,1,3.79-10c3.66-5.1,8.53-8.06,14.93-8.26a23.64,23.64,0,0,1,13.13,3.7,106.78,106.78,0,0,1,12.61,9.48A151.49,151.49,0,0,0,92,378.65a125.58,125.58,0,0,0,30.83,13.24,242.19,242.19,0,0,0,25.08,5.77c4.26.75,8.55,1.36,12.85,1.86,3.34.38,6.68.75,10,1.09,2.37.24,4.76.35,7.15.53q7.82.57,15.65.83,2.73.11,5.46.18c5.47.14,10.94.26,16.41.15s11.1-.21,16.64-.49q8-.4,16-1.2a188.4,188.4,0,0,0,22.87-3.8,118.6,118.6,0,0,0,17.29-5.3A124.86,124.86,0,0,0,300,386.25a133.1,133.1,0,0,0,13-7.88,173.45,173.45,0,0,0,14.11-10.92c2.87-2.43,5.72-4.9,8.66-7.25,4.07-3.27,8.45-6,13.68-7.06,5.74-1.14,11.09-.25,15.79,3.31a19.47,19.47,0,0,1,6.26,8.66,23.9,23.9,0,0,1,1.43,7.48,33.85,33.85,0,0,1-.51,8.47,50.11,50.11,0,0,1-3.23,10.42,68.83,68.83,0,0,1-9.79,16,74.47,74.47,0,0,1-9.28,9.43A78.84,78.84,0,0,1,341,423.6a63.91,63.91,0,0,1-11.09,5.49,79.35,79.35,0,0,1-14.24,4c-3,.57-6.08.93-9.15,1.21A182.52,182.52,0,0,1,286.1,434.94Z"/><path class="cls-14" d="M254.55,317.16a14.19,14.19,0,0,1-4.24,10.95c-3.33,3.37-7.4,4.07-11.78,2.79a11.55,11.55,0,0,1-6.64-5.59A16.24,16.24,0,0,1,233,307.46a11.43,11.43,0,0,1,14.82-3.08,13.56,13.56,0,0,1,5.52,6.45A14.11,14.11,0,0,1,254.55,317.16Z"/><path class="cls-15" d="M167.63,317.45a14.68,14.68,0,0,1-4.37,10.48,10.13,10.13,0,0,1-5.7,3A11.58,11.58,0,0,1,145,325a15.8,15.8,0,0,1-1.31-13,13.44,13.44,0,0,1,6.54-8.11,11.28,11.28,0,0,1,14.66,3.89C167,310.87,167.66,313.21,167.63,317.45Z"/><path class="cls-16" d="M143.28,424a18.4,18.4,0,0,1-10.14-2.59,13.76,13.76,0,0,1-6.61-10.52,18.31,18.31,0,0,1,.19-6.64c.24-.95.23-1,1.23-.73,2.52.6,5,1.2,7.55,1.84,3.73.95,7.53,1.53,11.32,2.17s7.44,1.16,11.16,1.74l.47.11c1,.25,1,.25.8,1.3a20.28,20.28,0,0,1-2.84,7.19,13.36,13.36,0,0,1-9.79,5.88A19.87,19.87,0,0,1,143.28,424Z"/><path class="cls-17" d="M199.43,412.57c6.19.15,12.39.2,18.59,0,1.21,0,1.2,0,1.22,1.18a26.46,26.46,0,0,1-1.75,8.66,9.45,9.45,0,0,1-1,1.69,1.18,1.18,0,0,1-1,.58c-.37,0-.73,0-1.1,0l-29.53-.09c-1.83,0-2.17.17-3.11-2.19a30.37,30.37,0,0,1-2-9.84c-.06-1.07,0-1.06,1.06-1Q190.13,412.29,199.43,412.57Z"/><path class="cls-18" d="M248.52,425.47a28.56,28.56,0,0,1-6.86-.69,9.62,9.62,0,0,1-5.5-4.15,20.65,20.65,0,0,1-2.72-7.11c-.06-.27-.09-.56-.13-.84-.07-.53.12-.85.71-.87s1.21-.12,1.81-.14c6.13-.19,12.21-.82,18.28-1.58,3-.36,5.93-.87,8.89-1.35,1.24-.2,1.39-.14,1.44,1.07a17,17,0,0,1-3.21,11.33,11.32,11.32,0,0,1-7.36,4.09A31.09,31.09,0,0,1,248.52,425.47Z"/><path class="cls-19" d="M308.94,399.38a18.4,18.4,0,0,1-2.15,9.22,13.31,13.31,0,0,1-6,5.53,14.61,14.61,0,0,1-7.62,1.67,10.5,10.5,0,0,1-9.21-6.33,18.44,18.44,0,0,1-1.34-4c-.24-1.07-.23-1.11.83-1.49,2.17-.77,4.38-1.46,6.53-2.28a103.87,103.87,0,0,0,17.09-8.09c.8-.49,1-.44,1.24.49a19,19,0,0,1,.58,4.57C309,398.89,308.94,399.13,308.94,399.38Z"/><path class="cls-20" d="M93.06,406.06A14.72,14.72,0,0,1,81.68,401a14.13,14.13,0,0,1-3.35-7.69,20.54,20.54,0,0,1,.7-9.5c.39-1.1.54-1.2,1.49-.48a72.76,72.76,0,0,0,8.53,5.59,136.53,136.53,0,0,0,13.25,6.64c.67.28,1.37.52,2,.77.91.34,1,.53.61,1.44a13.9,13.9,0,0,1-2,3.33A12.75,12.75,0,0,1,93.06,406.06Z"/><path class="cls-20" d="M344.63,375.88a17.23,17.23,0,0,1-2.19,8.24,12,12,0,0,1-7.3,5.85,11.42,11.42,0,0,1-12.82-5.43.61.61,0,0,1,.18-.93c.52-.38,1-.8,1.55-1.18,4.85-3.53,9.49-7.33,14-11.29,1.4-1.23,2.86-2.38,4.3-3.57.48-.39.65-.37.86.21A18.76,18.76,0,0,1,344.63,375.88Z"/><path class="cls-21" d="M331.73,414.35a2.67,2.67,0,0,1,2.16.54c.66.64.71,1.07.15,1.79a3.12,3.12,0,0,1-.83.7,29.53,29.53,0,0,1-4.52,2c-1.13.43-2.28.78-3.43,1.17q-.4.14-.81.24a1,1,0,0,1-1.18-.39c-.25-.38,0-.7.14-1a7,7,0,0,1,2.73-2.84c.73-.4,1.36-1,2.1-1.42A6.81,6.81,0,0,1,331.73,414.35Z"/><path class="cls-22" d="M104.72,423.57c-1.53,0-3.07,0-4.6,0a2.18,2.18,0,0,1-1.65-.65.86.86,0,0,1-.17-1.1,2.69,2.69,0,0,1,2-1.59,16.3,16.3,0,0,1,5.66.17,10.65,10.65,0,0,1,3.55,1.73c.35.23.8.66.66,1.08s-.77.64-1.33.63h-4.12Z"/></g></g></svg>