<svg xmlns="http://www.w3.org/2000/svg" viewBox="0 0 444.2 500"><defs><style>.cls-1{fill:#2d1f19;}.cls-1,.cls-2,.cls-3,.cls-4,.cls-5,.cls-6,.cls-7{fill-rule:evenodd;}.cls-2{fill:#3d7a99;}.cls-3{fill:#faf0df;}.cls-4{fill:#a3cace;}.cls-5{fill:#e3a138;}.cls-6{fill:#d06a39;}.cls-7{fill:#dd8d7d;}</style></defs><title>Varlık 228</title><g id="katman_2" data-name="katman 2"><g id="katman_1-2" data-name="katman 1"><polygon class="cls-1" points="331.98 76.94 336.35 80.98 341.38 84.68 346.08 87.7 351.14 91.06 361.55 96.77 371.97 101.81 382.71 107.19 393.46 111.89 403.88 117.27 414.3 122.98 416.99 125 419.68 127.34 422.02 130.04 422.7 131.71 423.36 133.06 423.36 136.42 422.7 139.78 421.69 142.81 420.34 145.5 418.67 148.52 416.66 151.2 412.29 155.91 417.65 162.97 422.02 170.02 426.06 177.42 429.08 185.15 431.78 192.88 434.11 200.94 436.15 209.01 437.82 217.4 438.81 225.8 439.83 234.54 441.17 251.68 441.86 269.15 442.85 286.29 443.54 290.32 443.87 292.34 444.2 294.35 438.15 286.96 431.44 279.91 427.73 276.54 424.05 273.52 420.01 270.83 415.97 268.48 415.97 268.14 415.64 268.14 415.31 268.48 414.99 268.48 406.9 277.55 402.53 281.92 397.83 285.95 393.13 289.99 387.74 293.35 382.71 296.37 377.33 298.72 376.31 299.39 375.65 299.39 374.63 299.06 374.31 298.39 374.31 297.38 375.65 295.02 376.31 294.02 376.67 293.35 380.02 286.63 383.37 279.91 386.07 272.51 388.44 265.12 390.44 257.39 392.12 249.66 393.46 241.6 394.48 233.53 394.81 225.47 395.13 217.4 394.81 209.01 394.15 201.28 392.81 193.21 391.13 185.48 389.1 178.09 386.39 171.04 377.33 172.38 368.26 173.72 358.86 174.39 353.83 174.06 349.1 173.72 345.75 173.38 344.4 173.38 342.72 173.38 345.42 175.07 348.44 176.41 354.49 178.76 360.87 181.11 366.91 183.13 365.56 184.47 363.89 185.82 360.21 187.5 356.16 188.5 352.13 189.51 354.16 191.86 356.5 194.22 359.85 199.26 362.55 204.97 364.9 210.69 364.9 212.37 364.58 213.04 363.56 213.04 362.9 213.04 361.89 212.69 360.53 212.03 359.85 212.03 358.86 212.37 360.53 215.38 361.55 218.41 362.55 221.77 363.23 225.13 363.89 231.85 364.21 239.24 363.23 253.02 362.55 260.07 362.21 267.14 360.53 269.49 359.19 271.84 358.53 274.53 358.17 277.21 357.51 282.93 356.82 285.61 356.16 288.64 343.74 324.6 337.34 342.4 331.65 360.55 326.26 379.03 321.56 397.51 319.53 406.92 317.85 416.33 316.5 426.07 315.16 435.82 314.5 439.51 313.84 443.21 312.5 450.94 310.79 458.67 308.45 466.06 307.11 469.42 305.43 472.78 303.4 476.14 301.39 479.5 299.06 482.19 296.36 485.21 293.33 487.56 289.62 489.92 284.6 492.27 279.57 494.62 274.18 496.3 268.46 497.64 262.75 498.99 257.02 499.67 251.31 500 245.3 500 239.22 499.67 233.54 498.99 227.49 497.64 222.1 496.3 216.38 494.62 211.36 492.61 206.29 489.92 201.26 487.23 198.24 485.21 195.55 482.52 193.18 479.83 190.85 477.15 189.18 474.46 187.5 471.1 184.8 465.06 182.43 458.33 180.43 451.61 178.43 445.23 176.06 438.51 171.37 422.71 166.66 406.92 156.58 376 140.77 372.31 125 368.61 109.85 363.91 94.41 359.88 89.38 362.23 83.99 364.58 78.6 365.92 72.89 366.93 67.52 367.61 61.48 367.61 56.09 367.61 50.05 366.93 44.32 365.92 38.61 364.25 33.26 362.57 27.87 360.55 22.5 358.2 17.45 355.51 12.75 352.15 8.38 349.12 5.03 345.77 2.33 342.07 1.32 340.05 0.66 338.04 0 335.69 0 333.33 0.33 330.64 0.98 328.63 2.66 326.61 4.34 325.27 8.71 322.91 13.44 320.56 23.5 318.55 34.27 317.54 44.69 317.2 55.44 317.54 66.18 318.55 76.6 320.22 86.68 322.91 96.41 325.61 99.46 324.6 102.46 323.59 108.17 320.22 113.56 316.53 118.59 312.5 114.91 308.47 111.89 304.1 109.19 299.73 107.19 294.69 105.84 289.31 105.15 283.93 105.15 278.9 105.84 273.52 106.83 270.5 108.5 267.81 109.19 266.8 110.54 265.45 111.89 264.79 113.56 264.44 114.91 263.77 116.59 263.77 119.94 264.11 122.96 264.79 125.65 266.46 123.29 254.7 121.61 242.6 119.94 230.51 119.28 217.75 119.28 211.69 119.28 205.3 119.94 199.26 120.62 193.21 121.61 187.16 123.29 181.45 125 175.74 127.33 170.36 129.01 167 131.04 163.3 132.72 159.61 134.72 156.25 137.09 153.22 138.43 151.88 140.11 150.87 141.79 149.86 143.79 149.19 145.83 148.85 147.83 148.85 149.51 149.19 150.85 149.53 152.21 150.21 153.88 150.87 155.88 148.52 158.25 146.16 160.62 144.15 163.64 142.46 161.27 140.45 159.6 138.44 158.25 136.42 157.92 135.08 157.56 134.06 160.25 133.4 163.28 133.06 168.34 133.4 174.06 134.06 179.42 134.06 173.37 127.01 170.67 122.98 168.34 119.29 166.66 115.26 165.97 110.89 165.64 108.54 165.97 106.52 166.3 104.16 167.32 101.81 168.34 100.81 168.67 100.14 169.32 99.8 178.43 105.5 187.5 110.89 196.57 115.92 201.26 118.27 205.97 120.29 206.98 119.96 206.98 118.95 207.31 115.26 207.64 111.55 207.31 107.52 206.98 103.83 203.96 101.81 200.94 99.46 194.53 95.09 188.81 89.71 186.48 87.03 183.79 84.34 179.08 77.96 175.04 71.57 171.37 64.51 168.67 57.45 166.3 50.4 164.95 42.68 163.97 34.61 163.97 26.55 164.95 21.5 166.66 17.13 169.32 12.43 172.35 8.4 179.42 5.37 186.48 2.68 193.55 1.34 200.58 0.33 207.64 0 214.71 0.67 222.1 1.68 229.16 3.02 235.87 5.37 242.93 8.06 249.63 10.75 256.04 14.11 262.42 17.8 268.46 21.83 274.51 25.87 279.9 30.24 292.65 42.34 305.75 54.09 318.87 65.85 331.98 76.94"/><polygon class="cls-2" points="271.81 32.59 284.6 44.69 297.35 56.78 310.13 68.55 323.24 79.97 329.95 85.35 337.01 90.39 343.74 95.43 351.14 99.8 358.17 104.16 365.56 108.2 373.32 111.55 381.04 114.92 390.44 118.27 399.84 122.31 404.54 124.32 408.91 127.01 413.28 129.7 417.31 132.73 418.01 134.06 418.67 135.75 418.99 138.1 418.33 140.79 417.31 143.14 415.97 145.5 414.3 148.18 410.62 152.55 406.9 155.24 403.22 157.93 398.85 160.28 394.81 162.3 390.44 163.97 386.07 165.66 381.7 167 377 168.34 367.93 169.69 358.17 170.36 348.44 170.36 338.69 169.69 341.38 167 344.07 164.99 350.45 161.29 356.82 157.93 363.56 154.57 360.53 154.57 357.84 155.24 355.15 156.25 352.45 157.59 351.79 157.59 351.47 157.93 350.77 157.93 350.12 157.59 345.75 150.87 341.05 144.49 335.99 138.44 330.96 132.73 325.24 127.69 319.53 122.31 313.15 117.94 307.11 113.24 300.37 109.2 293.67 105.5 286.93 101.81 279.9 98.78 272.83 95.76 265.44 93.41 258.38 90.73 251.31 88.71 245.62 88.03 240.24 87.03 228.81 85.68 223.12 85.35 217.4 85.68 211.68 86.36 206.29 87.7 205.31 85.01 204.29 82.66 202.94 80.31 200.94 78.62 201.92 82.99 203.27 87.36 204.61 92.06 205.63 96.77 201.26 94.08 197.22 90.73 193.18 87.7 189.5 84 186.15 80.31 183.13 76.27 180.1 72.24 177.74 67.87 175.37 63.5 173.69 59.14 171.69 54.43 170.67 49.73 169.69 44.69 169 39.65 168.67 34.61 169 29.57 169.32 27.21 169.69 25.2 170.67 20.83 172.02 16.8 173.37 14.79 174.71 13.1 178.06 11.09 181.09 9.74 184.8 8.4 188.48 7.39 192.19 6.72 196.21 6.05 203.96 6.05 211.68 6.38 219.4 7.73 226.47 9.4 233.18 11.76 233.54 11.76 238.56 13.77 243.59 16.13 253.35 20.83 262.75 26.88 271.81 32.59"/><polygon class="cls-3" points="171.03 104.84 176.72 109.54 182.77 114.24 189.18 117.94 195.55 121.3 202.28 124.32 208.99 126.68 216.05 128.36 223.78 129.36 219.73 133.4 216.05 137.76 212.7 142.13 209.64 146.83 206.62 151.54 203.96 156.25 201.6 160.95 199.23 165.99 197.22 171.04 195.55 176.41 192.53 186.82 190.52 197.91 189.18 209.34 189.5 210.01 189.83 210.34 190.16 209.68 190.85 208.67 191.5 207.99 192.53 199.6 194.53 191.86 196.89 183.8 199.23 176.07 202.61 168.69 206.29 160.95 210.34 153.9 214.71 146.83 218.39 142.46 222.1 138.1 226.14 134.06 230.84 130.71 235.54 127.69 238.23 126.34 240.89 125.67 243.59 125 246.61 124.32 249.63 124.32 252.69 124.66 256.04 125.33 259.07 125.67 265.44 127.69 270.83 130.38 275.86 133.4 280.56 137.43 284.93 141.8 288.96 146.83 292.32 151.88 295.67 156.92 299.06 162.63 304.74 174.06 307.11 179.77 309.8 185.48 312.14 190.86 314.83 195.9 313.48 189.18 311.8 182.46 309.8 176.07 307.11 169.69 304.08 163.64 300.73 157.59 293.67 145.5 297.35 147.17 301.39 149.19 308.78 153.55 315.85 158.6 322.91 163.64 329.95 169.01 337.01 174.06 344.4 178.09 348.44 180.1 352.45 181.79 354.49 182.12 356.5 182.46 358.17 182.79 359.52 183.8 357.84 184.47 355.84 185.15 351.79 185.48 347.76 185.82 343.74 185.82 348.11 191.86 352.45 197.24 356.82 202.95 360.87 209.01 358.53 208.67 356.16 207.99 354.16 206.99 351.79 206.32 352.13 208.33 353.14 210.69 354.49 213.37 355.15 215.72 357.18 223.12 358.86 230.51 359.85 238.57 360.21 242.6 359.85 246.64 359.85 246.97 359.52 246.97 359.19 246.64 358.86 246.64 356.16 241.93 353.14 237.23 349.47 232.86 347.76 230.84 345.42 229.17 345.09 230.17 345.42 231.18 350.12 237.56 352.13 240.59 353.83 243.95 355.5 247.65 356.5 251.01 357.18 254.7 357.51 258.74 356.5 256.39 354.82 253.36 352.81 251.01 350.77 248.65 348.11 246.31 345.09 244.96 342.4 243.61 339.37 242.94 335.99 243.28 332.97 243.61 330.3 244.62 327.61 245.97 324.92 247.65 322.55 249.33 320.54 251.68 318.18 254.03 314.5 259.07 311.14 264.44 308.45 270.16 306.09 275.2 305.75 275.2 305.43 263.44 304.41 252.02 302.74 240.59 300.73 229.84 297.71 218.75 293.99 208.33 289.62 198.25 286.93 193.21 284.27 188.17 280.56 183.47 276.51 179.44 272.51 175.4 267.44 172.38 262.42 170.02 257.02 168.01 251.31 167 245.3 166.67 241.91 167.34 238.89 168.34 235.87 169.69 233.18 171.37 230.51 173.38 228.15 175.4 223.78 180.78 220.09 186.15 217.03 192.2 214.37 198.25 212.34 203.97 210 215.05 208.33 226.47 206.62 237.9 205.97 249.33 206.29 261.09 206.62 266.8 207.31 272.51 208.33 278.22 209.31 283.61 210.99 288.98 212.7 294.35 207.31 290.32 201.26 286.96 194.53 284.27 188.16 282.25 181.45 281.25 178.06 280.91 174.71 280.91 171.03 281.58 167.65 282.25 164.3 282.93 160.95 284.27 158.91 275.2 157.24 265.79 154.54 246.97 151.88 227.82 149.19 208.67 148.16 205.98 147.51 202.95 145.83 196.9 144.48 194.56 142.78 192.2 141.79 191.53 140.44 190.86 139.09 190.52 137.42 190.19 136.07 190.52 135.06 190.86 133.04 192.54 131.37 194.22 130.03 196.57 128.02 201.28 126.31 205.65 124.64 210.01 123.65 215.05 123.29 215.05 123.29 206.66 123.65 198.58 124.64 190.52 126.31 182.79 128.68 175.07 131.7 167.67 135.74 160.95 137.75 157.93 140.11 154.57 142.45 153.22 144.81 152.89 147.14 152.89 149.51 153.55 152.53 156.25 155.22 159.27 156.9 162.97 158.58 166.67 160.95 174.73 162.95 182.79 164.3 190.19 165.64 197.58 166.66 204.97 167.98 212.37 168.67 212.03 168.67 211.36 169 210.01 168.34 195.56 167.65 188.5 166.66 181.79 165.32 174.73 163.28 168.34 160.62 161.96 157.24 155.91 159.6 153.22 162.29 150.53 165.32 147.85 168.67 145.16 172.02 146.83 176.06 147.85 183.79 149.19 181.78 152.22 180.1 155.24 179.74 156.59 179.42 158.6 179.42 160.28 180.1 161.62 181.09 162.3 182.11 162.63 185.13 162.63 186.15 161.29 186.15 160.28 185.82 159.95 185.13 159.61 184.11 159.95 183.13 159.61 182.77 158.93 182.43 158.27 183.13 155.91 184.11 154.23 186.81 150.53 189.83 147.17 192.85 143.48 191.84 143.48 191.18 143.48 189.5 143.81 187.5 144.49 182.43 144.49 179.74 144.15 177.41 143.81 174.71 142.81 172.35 141.8 170.01 140.79 165.64 137.43 167.32 137.43 169.32 137.43 173.69 137.76 178.06 138.44 182.43 138.1 184.8 137.76 187.13 137.76 189.18 137.43 189.83 136.76 190.85 136.09 190.52 136.09 185.82 133.06 181.09 129.36 177.08 125.33 175.04 122.98 173.37 120.29 172.35 118.61 171.37 116.59 170.01 112.9 169.32 110.89 169.32 108.87 169.32 106.85 170.01 104.84 171.03 104.84"/><polygon class="cls-4" points="284.27 196.57 287.29 202.95 289.96 209.68 292.32 216.74 294.32 224.13 297.02 238.57 299.38 253.36 296.69 251.01 295.01 250.34 293.33 249.33 291.3 248.99 289.3 248.65 287.29 248.99 285.25 249.99 282.56 251.01 280.23 252.35 278.55 254.36 276.88 257.06 274.51 262.1 272.51 267.47 271.81 272.85 271.49 278.9 271.49 284.61 272.17 290.32 273.49 295.7 274.84 298.05 275.86 300.74 277.54 303.09 279.2 305.11 281.25 306.79 283.91 308.47 284.6 308.47 285.25 308.47 285.94 308.47 285.59 309.14 285.25 309.81 284.6 310.48 283.57 311.15 282.56 312.5 278.19 314.51 274.18 315.86 270.14 316.87 265.77 317.2 261.73 317.2 257.39 316.87 253.35 316.2 249.31 315.19 245.3 313.84 241.25 312.16 233.54 308.13 226.14 303.76 219.07 299.39 217.03 293.68 215.03 288.31 213.69 282.59 212.34 276.54 211.68 270.83 210.99 264.79 210.66 259.07 210.66 253.02 210.99 240.93 212.34 229.17 214.37 217.4 217.03 205.98 217.03 205.65 219.07 200.27 221.08 194.56 223.78 189.18 227.13 183.8 230.84 179.44 233.18 177.42 235.54 175.74 237.91 174.06 240.89 173.05 243.59 172.38 246.97 171.7 252.69 172.38 258.38 174.06 263.76 176.07 268.79 179.1 273.49 182.79 277.54 186.82 280.88 191.53 284.27 196.57"/><polygon class="cls-4" points="141.46 199.26 143.14 205.65 144.48 212.37 145.83 219.09 146.82 226.14 148.16 239.58 148.85 246.64 149.51 253.02 147.14 253.36 145.14 254.03 143.46 256.05 142.78 257.06 142.45 258.06 141.79 262.1 141.46 266.46 141.46 270.83 142.12 275.2 143.14 279.23 144.81 283.26 146.82 286.63 149.51 289.99 148.16 291 146.82 291.66 145.14 291.66 143.79 291 140.11 286.29 137.09 281.58 134.4 276.21 132.03 270.83 130.03 265.45 128.35 259.74 127 254.03 125.98 248.32 125.65 242.27 125.33 236.56 125.65 230.51 125.98 224.8 127 218.75 128.35 213.04 130.03 206.99 131.7 201.61 132.72 199.26 134.06 196.9 134.72 195.9 135.74 195.23 136.76 194.89 138.07 195.23 139.75 197.24 141.46 199.26"/><polygon class="cls-5" points="349.79 253.02 351.14 254.7 352.13 256.39 353.14 258.06 353.47 259.74 354.16 263.44 354.16 267.47 353.83 271.5 353.14 275.54 351.79 283.61 346.77 300.06 341.71 315.86 335.99 331.99 330.63 347.78 325.58 363.57 320.88 380.04 318.87 388.44 317.19 396.5 315.51 405.24 314.17 413.64 311.8 429.43 309.48 444.89 307.77 452.62 305.75 460.01 302.74 467.07 299.38 474.13 295.67 478.16 291.3 481.52 286.6 484.54 281.9 487.23 276.88 489.25 271.49 490.92 266.1 492.27 260.74 493.28 255.02 493.62 249.31 493.95 243.59 493.95 237.91 493.62 232.52 492.61 227.13 491.6 221.77 490.25 216.71 488.91 211.36 486.9 206.62 484.21 202.28 481.18 198.57 477.48 195.55 473.79 192.53 469.42 190.52 464.71 188.48 460.01 185.13 449.93 182.11 439.51 179.42 429.1 177.74 424.39 176.06 419.69 173.69 408.94 170.34 398.52 167 388.1 162.95 378.36 166.66 378.36 170.34 379.03 178.76 380.37 179.42 380.37 180.1 381.05 180.1 381.38 180.43 381.72 180.76 382.39 182.77 387.43 184.44 392.13 187.5 402.22 189.83 412.3 192.19 422.71 194.2 433.13 196.89 443.21 199.59 453.29 201.26 457.99 203.27 463.04 204.95 465.72 206.62 468.07 210.66 472.11 213.03 473.79 215.03 475.47 220.42 477.82 225.78 479.5 231.5 480.51 237.21 481.18 243.26 481.18 249.99 480.84 256.37 480.17 262.75 479.17 268.79 477.48 274.51 475.13 277.2 473.45 279.57 471.77 281.9 469.76 284.27 467.4 286.27 465.06 287.95 462.03 289.96 457.32 291.99 452.62 295.01 442.54 297.35 432.12 299.38 421.71 301.06 410.95 302.74 400.53 304.41 389.78 306.77 379.7 312.14 358.87 315.51 348.79 318.54 338.37 322.22 328.29 325.93 318.21 330.3 308.47 334.68 298.72 336.35 291.33 338.35 283.61 339.05 279.56 339.05 275.54 338.69 271.5 338.03 267.47 340.03 266.8 342.07 266.46 344.07 266.46 346.44 266.8 346.44 265.79 346.08 265.45 345.09 264.79 344.4 264.44 343.74 264.11 342.72 263.77 339.71 263.44 336.68 264.11 333.98 265.12 331.29 267.14 328.96 270.16 326.92 273.52 323.57 281.25 324.59 281.58 325.24 281.25 326.26 280.24 326.59 279.56 328.27 276.54 330.3 274.19 332.31 271.84 334.68 270.16 334.68 274.19 334.68 278.22 334.32 282.25 333.66 285.95 331.65 293.68 328.96 301.07 325.58 307.8 321.9 314.85 313.48 327.96 308.78 334 303.75 339.71 298.36 345.1 292.98 350.13 287.29 354.84 281.25 359.2 274.84 363.24 268.46 366.6 262.09 369.96 255.02 372.31 247.96 374.67 240.89 376.34 233.86 377.69 226.14 378.02 218.75 378.02 210.99 377.69 200.58 376.68 190.52 375.67 180.76 373.99 171.03 372.31 151.51 367.94 132.36 362.9 113.56 357.86 94.41 352.82 74.92 348.11 65.49 346.1 55.76 344.08 46.69 343.41 37.95 343.41 33.58 343.75 29.21 344.42 25.2 345.1 21.16 346.1 20.84 346.77 20.84 347.45 21.16 347.78 21.82 348.11 29.9 347.11 38.28 347.11 46.69 347.45 54.74 348.79 62.83 350.13 70.88 352.15 86.68 356.52 82.64 358.53 78.6 359.88 73.9 361.22 69.89 361.89 65.16 362.23 60.79 362.57 56.09 362.57 51.39 362.23 47.02 361.56 42.65 360.89 37.95 359.54 33.91 358.53 29.54 356.85 25.53 355.18 21.82 353.16 18.14 351.14 13.44 347.78 10.74 345.77 8.38 343.75 6.71 341.06 5.03 338.37 4.34 335.69 4.01 332.32 6.05 329.97 8.71 328.29 11.4 326.95 14.43 325.94 20.84 324.6 26.88 323.59 35.58 323.59 44 323.59 52.41 324.26 61.15 324.93 69.53 325.94 77.62 327.29 85.67 328.63 93.71 330.31 101.8 332.66 109.85 334.68 117.61 337.03 125.33 339.71 140.44 345.77 155.22 352.48 161.61 355.51 168.34 358.2 175.04 360.89 181.78 362.9 172.71 357.52 163.64 352.48 154.21 347.78 144.48 343.08 134.72 338.71 124.64 334.68 114.58 330.98 104.49 327.62 111.2 323.25 114.58 320.22 117.61 317.54 120.96 314.51 123.29 311.15 125.65 307.8 127.33 304.1 128.02 301.75 128.02 299.73 127.66 297.72 127.33 295.7 125.98 291.66 124.31 287.97 124.31 286.96 125 286.29 125.98 285.28 127 284.27 127 283.61 126.67 282.93 124.64 283.61 122.96 284.94 121.28 286.63 119.94 288.64 119.61 290.32 119.61 292.34 119.94 294.02 120.62 295.7 120.96 294.35 121.61 293.01 122.3 292 122.64 291.66 123.29 291.66 123.98 293.68 124.31 296.03 124.64 298.05 124.31 300.74 123.98 303.09 123.29 305.44 122.3 307.46 120.96 309.14 119.61 308.13 118.26 306.79 116.25 304.1 114.58 301.07 113.23 297.72 110.86 291.66 110.21 288.31 109.52 284.61 109.19 281.25 109.19 277.89 109.85 274.53 111.2 271.17 111.89 270.16 112.88 269.49 114.91 268.48 117.25 268.48 119.61 268.82 121.94 269.49 124.31 270.5 125.98 271.84 127.66 273.52 130.35 276.88 132.72 280.91 134.72 284.94 137.42 288.98 140.11 292.34 142.12 294.02 144.16 295.36 148.85 294.69 153.55 293.35 162.29 289.99 166.66 288.31 171.03 286.63 175.73 285.61 180.76 285.28 185.82 286.29 190.85 287.63 195.87 289.65 200.58 292 204.95 294.35 209.31 297.38 218.05 303.43 224.79 308.47 232.52 313.18 236.2 315.19 240.24 316.87 244.6 318.21 248.65 319.56 253.02 320.56 257.39 321.23 261.73 321.57 266.1 321.23 270.47 320.56 274.84 319.56 278.88 317.87 283.25 315.86 288.64 311.83 293.33 307.12 297.35 302.08 301.06 296.7 304.08 291 307.11 284.94 311.48 272.85 313.84 269.15 316.17 265.12 318.87 261.09 321.56 257.39 324.92 253.7 328.63 251.01 330.63 249.99 332.64 248.99 335 248.32 337.69 247.98 340.72 248.32 344.07 248.99 347.1 250.67 348.44 251.68 349.79 253.02"/><polygon class="cls-6" points="236.52 477.48 232.84 476.81 229.16 476.14 225.78 474.8 222.76 473.45 216.71 470.09 211.36 466.06 210 464.38 208.66 462.36 207.31 459.34 206.29 455.98 204.95 451.95 203.6 447.57 202.28 442.87 201.26 437.83 198.9 427.08 196.21 415.99 193.55 405.57 192.53 400.87 191.18 396.17 188.48 389.11 186.15 381.72 193.55 382.39 201.26 383.39 208.66 384.41 215.72 385.08 222.1 394.83 229.16 404.23 236.2 413.31 240.57 417.67 244.6 422.04 245.62 422.04 246.28 421.71 246.97 420.7 247.3 419.36 247.3 418.68 247.63 418.01 248.29 412.97 248.97 407.59 251.67 397.85 254.7 387.77 257.39 377.69 264.78 374.33 271.81 370.97 278.55 366.93 285.25 362.57 291.3 357.52 297.71 352.15 303.75 346.77 309.48 341.06 305.75 354.5 302.41 367.94 299.71 381.38 297.35 395.16 295.01 409.27 292.65 423.38 289.96 437.16 286.93 450.94 285.94 454.3 284.6 457.66 282.56 460.69 280.23 463.71 277.54 466.4 274.84 468.42 272.17 470.43 269.48 471.77 266.46 472.78 263.07 473.79 258.7 474.8 254.36 475.81 245.3 477.15 240.89 477.48 236.52 477.48"/><polygon class="cls-7" points="252.33 379.7 249.63 388.78 247.63 398.52 246.28 408.26 244.6 418.01 241.91 413.98 238.89 410.28 232.52 402.22 226.47 393.81 221.08 385.41 221.41 385.08 222.1 385.08 222.1 384.74 229.82 384.41 237.54 383.39 244.94 381.72 252.33 379.7"/></g></g></svg>