<svg xmlns="http://www.w3.org/2000/svg" viewBox="0 0 667.19 498.73"><defs><style>.cls-1{fill:#2b1e17;}.cls-2{fill:#9ba59c;}.cls-3{fill:#f09e8a;}.cls-4{fill:#f2be5c;}.cls-5{fill:#f2bd5a;}.cls-6{fill:#c34b3f;}.cls-7{fill:#c24a3e;}.cls-8{fill:#c1493e;}.cls-9{fill:#c24b3f;}.cls-10{fill:#da8371;}.cls-11{fill:#f5ba55;}.cls-12{fill:#f4b956;}.cls-13{fill:#db8472;}.cls-14{fill:#f7a68f;}.cls-15{fill:#291c15;}.cls-16{fill:#2a1c15;}.cls-17{fill:#2c1e14;}.cls-18{fill:#2a1e16;}.cls-19{fill:#2d1d14;}.cls-20{fill:#2d1c13;}.cls-21{fill:#fff6dc;}.cls-22{fill:#538c9c;}.cls-23{fill:#fdfae2;}.cls-24{fill:#fff7dd;}.cls-25{fill:#508a9c;}.cls-26{fill:#fefdea;}</style></defs><title>Varlık 147</title><g id="katman_2" data-name="katman 2"><g id="katman_1-2" data-name="katman 1"><path class="cls-1" d="M465.51,150.23c41.77-.21,84.09-20.64,126.43-8.67,50.52,11.5,83.68,75.14,73.37,93.91-39.65,10.56-53.68,26.25-67.49,58.66-29.56,65.16,4,189.75-78.12,204.32-42.74,3.95-70.57-35-85-70.37-1.74-1.91-1.67-11.54-6.5-6.58-18.79,13.46-27.27-2.54-40.55,6.91-23.55,20.51-31.63,27-57.62,31.36-14.14,18-39.32,29-61.17,18-23.59-11.59-22.08-38.15,1.95-44.13-15.39-19.58-20.22-11.32-36.88-11.34-9.11.93-13.8-11-16.11-.65C190,510.06,120.27,515.85,94.9,458c-24.65-64.63,2-146.57-50.82-200.56C23.61,237.65,14.82,243.67.42,235.06c-5.63-43.95,47-89.77,84.13-93.05,50.62-7.2,101.49,23.75,151,2.23,7.44-9.66,13.58-18.27,24.11-25.48,30-14.64-.14-17,9.53-34.8,12.08-15.23,22.93-2.51,27-16.45,23.64-62,89.29-80.05,103.73-59.28C412.86,33,366.47,36.8,371.62,73.9c51.8,10.81,8.53,31.79,18.6,39.05C436.69,143.64,405.48,149.32,465.51,150.23Z"/><path class="cls-2" d="M263.84,463.41c-1.91-2-2.58-4.48-3.12-7-1.34-6.34,4.15-14.44,12.41-14.53a14.77,14.77,0,0,1,6,1,21.78,21.78,0,0,1,7.32,4.63A4.32,4.32,0,0,1,288,451c-.11,1.45,1.59,2.68,3.17,2.5a9.92,9.92,0,0,0,4.59-2,24.27,24.27,0,0,0,7.57-9c4.05-8,5.36-16.61,5.28-25.51a93.87,93.87,0,0,0-3-21.88,190.41,190.41,0,0,0-7.37-23.07,192.35,192.35,0,0,0-14.83-30.35c-2.75-4.52-5.59-9-8.6-13.34-.26-.38-.5-.78-.79-1.15a4.9,4.9,0,0,1-.71-5.66,7.72,7.72,0,0,0,.61-2c.15-.75-.25-1.11-1-.9a6.7,6.7,0,0,0-1.43.63c-4.92,2.65-9.49,5.86-14.11,9-.8.54-1.76,1.17-1.39,2.36s1.48,1,2.37,1a19.4,19.4,0,0,0,6-1c2.17-.55,2.2-.6,3.58,1.25a193.85,193.85,0,0,1,12.39,18.56c2.42,4.18,4.73,8.41,6.73,12.8.19.42.37.85.53,1.29,0,.08-.06.2-.12.4a6.05,6.05,0,0,1-2.65-.51,139.14,139.14,0,0,1-13.32-4.67c-10.31-4.14-20.51-8.53-30.38-13.64-6.2-3.21-12.29-6.61-17.66-11.13-6-5.06-11.31-10.71-14.64-18A35.43,35.43,0,0,1,205.51,304a44.56,44.56,0,0,1,4-20.33c1.79-4.1,3.66-8.17,5.44-12.28a80.89,80.89,0,0,0,6-21.93c1.12-8.6,1.6-17.24,2.07-25.88.35-6.44,1.14-12.84,2-19.24a186.87,186.87,0,0,1,4-20.87A121.36,121.36,0,0,1,241,152.65a84.27,84.27,0,0,1,14.85-19.71,77.56,77.56,0,0,1,18.66-13.33c1.42-.72,1.48-.71,2.17.59,3.3,6.23,8.48,10.36,14.78,13.25,8.38,3.85,17.27,5.73,26.36,6.88a128,128,0,0,0,17.05.88,98.58,98.58,0,0,0,28.84-4.39,43,43,0,0,0,12.67-6.11,30.22,30.22,0,0,0,8.74-9.34c.9-1.56.9-1.51,2.48-.56a75.2,75.2,0,0,1,13.2,9.94,79.4,79.4,0,0,1,13.86,17.38A121.65,121.65,0,0,1,426,173.9a152.44,152.44,0,0,1,5.66,26.73c1.15,9.83,1.52,19.69,1.81,29.57a159.55,159.55,0,0,0,1.82,22.05,95.1,95.1,0,0,0,8.47,25.39A67.12,67.12,0,0,1,449.22,292a39.84,39.84,0,0,1-1.14,22.83,45.43,45.43,0,0,1-10.34,16,75.75,75.75,0,0,1-18,13.32,198.42,198.42,0,0,1-22.32,10.66c-8.08,3.28-16.25,6.32-24.55,9a50.18,50.18,0,0,1-5.65,1.51c-.35-.34-.14-.61,0-.84a178.62,178.62,0,0,1,20.52-31.91c.18-.23.4-.43.57-.66a1.76,1.76,0,0,1,2.39-.65,23.83,23.83,0,0,0,4.72,1.19,8.66,8.66,0,0,0,2.78.07,2.3,2.3,0,0,0,1.9-1.37c.32-.84-.34-1.39-.88-1.91a4.6,4.6,0,0,0-.95-.76c-4.93-2.74-9.65-5.84-14.5-8.71-.62-.37-1.35-1.16-2-.64s0,1.48.13,2.24a1.28,1.28,0,0,0,.11.33c1.45,2.49.61,4.61-.95,6.72-4.15,5.62-8,11.41-11.73,17.33a199.27,199.27,0,0,0-18.48,38.22c-3.15,8.76-5.64,17.72-8.15,26.67-2.27,8.12-4.47,16.25-7.65,24.08a82.16,82.16,0,0,1-10.64,19.54A53,53,0,0,1,307,469.31,38.65,38.65,0,0,1,284.64,474c-1.71-.17-3.48,0-5.09-.81.89-.78,1.87-.25,2.82-.16,1.84.18,2.22-.26,1.42-1.87a54.6,54.6,0,0,0-7.47-11.88c-3.11-3.53-8.48-3.92-11.61-.82-1.13,1.13-1.77,2.29-.82,3.84A.88.88,0,0,1,263.84,463.41Z"/><path class="cls-3" d="M486.42,195.79c8.45-3.59,17-6.87,25.46-10.47a206.37,206.37,0,0,1,31.43-10.89,94.5,94.5,0,0,1,34.77-2.33,109.39,109.39,0,0,1,24.27,6.14,98.8,98.8,0,0,1,43,31.33,95.85,95.85,0,0,1,12,19.15,5.06,5.06,0,0,1,.24.46c.36.86.3,1-.65,1.09-2.09.21-4.15.51-6.21.92A66,66,0,0,0,627.66,241c-12.86,8.38-22.38,19.78-29.87,33a155.81,155.81,0,0,0-14.38,36.38,218,218,0,0,0-5.08,23.69c-1.32,8.61-2.57,17.24-3.34,25.93-.81,9-1.41,18-2.31,26.92-.51,5.15-.73,10.32-1.19,15.47-.48,5.5-1.21,11-1.9,16.45a147.29,147.29,0,0,1-5.42,25.37c-3.16,10.25-7.54,19.89-14.53,28.17-5.48,6.5-11.9,11.74-19.9,14.86A43.2,43.2,0,0,1,511.26,490a55.31,55.31,0,0,1-25.95-8.34A82,82,0,0,1,464,462.3a148.59,148.59,0,0,1-20.53-35.69c-3-7.31-5.41-14.84-7.72-22.41-4.83-15.8-8.64-31.85-11.93-48-.08-.4-.14-.8-.21-1.2-.35-1.94-.39-2,1.36-3A98.75,98.75,0,0,0,439,342.31c7.47-6.17,13.42-13.55,17-22.59a46.05,46.05,0,0,0,1.71-30.25,92.33,92.33,0,0,0-5.44-14.32c-3.4-7.28-6.5-14.66-8-22.62a127.39,127.39,0,0,1-1.86-20.82,58.45,58.45,0,0,1,0-5.92,2.68,2.68,0,0,1,1.84-.86c14.7-2.71,28.12-8.71,41.06-15.92a49,49,0,0,0,5.73-3.64c1.52-1.14,1.56-1.44.05-2.52a14.39,14.39,0,0,1-4.76-6.09C486.26,196.43,486.13,196.11,486.42,195.79Z"/><path class="cls-3" d="M213.67,228.25c0,4.66-.44,9.29-.86,13.92a90,90,0,0,1-3,17.14,96,96,0,0,1-5.71,14,98.13,98.13,0,0,0-5.63,13.88c-3.8,12.85-2.78,25.26,3.72,37.12,4.72,8.6,11.52,15.25,19.37,20.93,1.93,1.39,3.94,2.69,5.91,4,1.64,1.11,1.71,1.13,1.17,3.1-1.42,5.21-2.86,10.42-4.37,15.61-3.36,11.55-6.82,23.08-9.94,34.7a240.14,240.14,0,0,1-11.52,34.35,124.23,124.23,0,0,1-12.16,21.52,82.18,82.18,0,0,1-15,16.41,51.91,51.91,0,0,1-20.85,10.86,38.46,38.46,0,0,1-23.14-1.34c-8.65-3.26-15.36-9-20.86-16.31-7.52-9.95-11.65-21.34-14.34-33.37a214.81,214.81,0,0,1-3.89-28.47c-.48-5.62-.7-11.25-1.07-16.87-.66-10.27-1.24-20.53-2.25-30.77-.88-8.91-1.89-17.8-3.22-26.65a234.79,234.79,0,0,0-6-27.75A138.63,138.63,0,0,0,70.21,279,101.79,101.79,0,0,0,53,253.94a80.87,80.87,0,0,0-23.6-17.34,66.13,66.13,0,0,0-20.16-5.89c-1.43-.18-1.54-.31-1-1.61A43.09,43.09,0,0,1,11.55,223a128.91,128.91,0,0,1,12.8-17.17A95.16,95.16,0,0,1,59.92,181a89.18,89.18,0,0,1,24.43-6.15,91.61,91.61,0,0,1,31.17,1.94,165.86,165.86,0,0,1,22.5,7.4q11,4.47,22,8.94c.69.28,1.35.61,2,.92.42.6.09,1.12-.23,1.6a44.93,44.93,0,0,1-3.9,4.91c-.72.79-1.78,1-2.9,1.53a12,12,0,0,0,3.19,2.29A208.25,208.25,0,0,0,190.5,219a132.22,132.22,0,0,0,20.39,5.3C214,224.9,214,224.93,213.67,228.25Z"/><path class="cls-2" d="M657.85,219.57c-.58-1-1-1.72-1.46-2.47a97.44,97.44,0,0,0-14.13-19.16,102.42,102.42,0,0,0-15.11-13.65,104,104,0,0,0-37.74-17.4,113.3,113.3,0,0,0-18.6-2.6c-14.35-.87-28.24,1.54-41.9,5.73-10.12,3.1-19.91,7.13-29.69,11.14-8.77,3.59-17.59,7.05-26.64,9.86a149.35,149.35,0,0,1-25.83,5.72c-1.67.21-3.36.33-5,.45s-1.63.09-1.94-1.47c-.66-3.3-1.29-6.61-2-9.91a154.54,154.54,0,0,0-8.58-27l-1.62-4c.57-.4,1-.16,1.45-.06,5,1.15,10.11,2.11,15.24,2.79a105,105,0,0,0,10.77.82c6.16.17,12.33.18,18.48-.23,7.83-.52,15.62-1.37,23.36-2.65,11.52-1.91,22.93-4.4,34.4-6.56a177.51,177.51,0,0,1,24.22-2.8,111.09,111.09,0,0,1,28.24,2.21,92.64,92.64,0,0,1,22.07,7.46,90.58,90.58,0,0,1,16.75,10.61,105.93,105.93,0,0,1,12.17,11.7,117.55,117.55,0,0,1,15.62,22.4,106.16,106.16,0,0,1,7.36,17.12A2.47,2.47,0,0,1,657.85,219.57Z"/><path class="cls-4" d="M333.61,97.81a107,107,0,0,1-28.43-3.61,37,37,0,0,1-4.92-1.78,2,2,0,0,1-1.34-2.32A57.13,57.13,0,0,1,301,80.21a108.5,108.5,0,0,1,12-27.38,100.28,100.28,0,0,1,18.79-22.77,89.43,89.43,0,0,1,22.9-14.8,79.33,79.33,0,0,1,19.43-6,30.78,30.78,0,0,1,11.44-.17,11,11,0,0,1,5.37,2.73,6.53,6.53,0,0,1,1.17,8.26,24.88,24.88,0,0,1-6.31,6.67A100.09,100.09,0,0,0,375.55,36a44.31,44.31,0,0,0-12,25.59,141.08,141.08,0,0,0-.44,27.49c.05.81.05,1.63.07,2.44,0,1.77,0,1.91-1.73,2.52A60.83,60.83,0,0,1,350,96.7,113,113,0,0,1,333.61,97.81Z"/><path class="cls-2" d="M11,213.72a10.65,10.65,0,0,1,.94-3.12A80.28,80.28,0,0,1,18,198.83a113.48,113.48,0,0,1,20.71-25.68A87.62,87.62,0,0,1,69.32,154.6a95.57,95.57,0,0,1,27.08-5.34,130.57,130.57,0,0,1,20.36.7c9.66,1,19.15,3,28.69,4.75a301.08,301.08,0,0,0,30.65,4.54,181.06,181.06,0,0,0,23.17.48,137.09,137.09,0,0,0,25.16-3.52c1.69-.41,3.4-.74,5.11-1.09.09,0,.2.08.37.15a9.34,9.34,0,0,1-1,2.53,135.61,135.61,0,0,0-9.43,27.85c-.73,3.17-1.45,6.34-2,9.55-.22,1.29-.32,1.37-1.73,1.35a121.13,121.13,0,0,1-15.09-1.31,164.3,164.3,0,0,1-28.94-6.91c-5.74-1.88-11.36-4.1-17-6.3-9.09-3.56-18.14-7.25-27.51-10a109,109,0,0,0-22-4.28,115,115,0,0,0-21.4.24,93.79,93.79,0,0,0-26.39,6.85A97.23,97.23,0,0,0,32,190.53a114.24,114.24,0,0,0-17.59,18.79c-.94,1.26-1.77,2.59-2.66,3.89A.93.93,0,0,1,11,213.72Z"/><path class="cls-5" d="M333.89,102.8a126.77,126.77,0,0,0,16.18-.89,104.83,104.83,0,0,0,21.56-4.79,32.28,32.28,0,0,0,5.52-2.59,6.68,6.68,0,0,0,1.36-1.07,1.54,1.54,0,0,0,.3-1.92c-.39-.69-1.09-.61-1.71-.41-1,.33-2,.74-2.94,1.09-1.9.67-2,.55-2.26-1.39-.29-2.49-.28-5-.34-7.48,0-1.14.25-1.37,1.35-1.21a39.63,39.63,0,0,1,10.9,2.93A10.06,10.06,0,0,1,387,87.41a5.74,5.74,0,0,1,1,6.76,19,19,0,0,1-4.31,5.44,10.65,10.65,0,0,0-3.1,5.52,89.82,89.82,0,0,1-2.86,10.23,18.92,18.92,0,0,1-6.31,8.37,39,39,0,0,1-14,6.8c-12.56,3.5-25.34,3.89-38.21,2.71a75.09,75.09,0,0,1-17.72-3.61,39.46,39.46,0,0,1-11.54-6c-3.83-3-5.81-7-6.92-11.57a22.27,22.27,0,0,1-.75-5.86c0-1.2.22-1.38,1.34-.94,2.44.94,4.93,1.73,7.44,2.46a67.84,67.84,0,0,0,11.82,2.13,4.17,4.17,0,0,0,2.07-.15.73.73,0,0,0,.48-.46c.1-.37-.19-.53-.44-.65a8.48,8.48,0,0,0-1.29-.52c-3.22-1-6.45-2-9.66-3a61.47,61.47,0,0,1-9.08-3.55,23,23,0,0,1-7-5.15c-1.65-1.84-2.65-3.94-2-6.53a5.28,5.28,0,0,1,1.45-2.53,18.39,18.39,0,0,1,8.69-4.57,15.4,15.4,0,0,1,4.09-.77c1,0,1.17.11,1,1.08-.44,2.7-.82,5.4-1.11,8.12-.11,1.06-.37,1.15-1.38.62-.51-.26-1-.64-1.48-.91s-1.28-.53-1.72.14a1.39,1.39,0,0,0,.32,1.75,7.94,7.94,0,0,0,2,1.4,53.23,53.23,0,0,0,10.85,4.24,108.52,108.52,0,0,0,16.08,3c3.05.42,6.11.82,9.17,1C327.26,102.72,330.57,102.71,333.89,102.8Z"/><path class="cls-6" d="M337.41,449c.41-1,.72-1.77,1.08-2.55a87.74,87.74,0,0,0,5.85-15.27,3.94,3.94,0,0,1,3.51-3.29,36,36,0,0,0,14.24-7.06c3.79-2.89,7.36-6,10.93-9.18a47.49,47.49,0,0,1,8.44-6.13,18.64,18.64,0,0,1,10.9-2.23c3.75.34,7.54.75,11.27-.05a26.18,26.18,0,0,0,12.4-6.75,49.65,49.65,0,0,0,5.77-6.52c.24-.3.38-.81.9-.64.35.12.45.53.51.86.58,3.21,1.56,6.31,2.42,9.45.72,2.63,1.29,5.3,2.12,7.9a3.67,3.67,0,0,1-1.28,4.3,31,31,0,0,1-6.37,4.53,21.8,21.8,0,0,1-12.73,1.84,70.2,70.2,0,0,1-8.52-1.71c-4.32-1.08-8.28-.05-12.05,2.06a46.93,46.93,0,0,0-8.25,6.1c-3.38,3-6.64,6.16-10.14,9.05a78.93,78.93,0,0,1-18.54,11.94,49.7,49.7,0,0,1-10.26,3.29A5.4,5.4,0,0,1,337.41,449Z"/><path class="cls-7" d="M251.35,411.42a36.32,36.32,0,0,0-5.6.86,49.09,49.09,0,0,1-7.17,1.4c-6,.59-11.27-1-15.37-5.69a3.14,3.14,0,0,1-.76-3.06c1.26-4.83,2.36-9.7,3.77-14.49.31-1.05.55-2.13.86-3.18.12-.44.11-1.06.63-1.16s.81.58,1.07,1a36.86,36.86,0,0,0,5.41,6.35,20.63,20.63,0,0,0,11.36,6,26.94,26.94,0,0,0,7.12,0,27.25,27.25,0,0,1,9,.15,16.1,16.1,0,0,1,5.09,2.21,43,43,0,0,1,6.74,5.21c2.45,2.4,4.82,4.89,7.31,7.24a72,72,0,0,0,9.93,8.17,39,39,0,0,0,9,4.08c1.75.59,1.75.56,1.43,2.45a34.17,34.17,0,0,1-4.47,12c-.61,1-1.06,1.2-2.15.67a38.15,38.15,0,0,1-3.66-2A69.65,69.65,0,0,1,279,430.26c-3.15-3.1-6.26-6.23-9.39-9.36a48.28,48.28,0,0,0-8.12-6.54A20.54,20.54,0,0,0,251.35,411.42Z"/><path class="cls-8" d="M300.42,403.81a3.27,3.27,0,0,1-2-.79,42.27,42.27,0,0,1-6.93-5.23c-4.77-4.4-9.39-9-14.78-12.69-4.57-3.1-9.58-5.16-15.27-5.18a71.18,71.18,0,0,1-7.3-.32c-4.25-.44-7.58-2.63-10.45-5.71s-5-7-6.88-10.84a6.89,6.89,0,0,1-.52-5.54,15.49,15.49,0,0,0,.73-2.69c.14-.95.44-1.09,1.31-.66,1.77.86,3.56,1.72,5.27,2.7a112.83,112.83,0,0,0,11.15,5.34A277,277,0,0,0,283,372.81a48.59,48.59,0,0,0,5.89,1.54,4.12,4.12,0,0,1,3.48,2.89A160.78,160.78,0,0,1,299.55,399,33,33,0,0,1,300.42,403.81Z"/><path class="cls-9" d="M353.34,401.79c-.31-.65.08-1.25.24-1.83,1.41-4.85,3.12-9.61,4.82-14.36q1.68-4.67,3.68-9.22a2.86,2.86,0,0,1,2.29-1.82c9.07-1.83,17.81-4.77,26.53-7.82a177.48,177.48,0,0,0,20.55-8.58c.78-.39,1.56-.79,2.31-1.23s1.12-.29,1.34.45c.61,2.11,1.26,4.18.18,6.42-3.42,7.13-7.81,13.44-14.6,17.78a15.92,15.92,0,0,1-8.88,2.65c-2.09,0-4.18-.16-6.26-.27a22.41,22.41,0,0,0-12.81,3.24c-4.92,2.91-9.21,6.64-13.56,10.3-1.78,1.49-3.65,2.87-5.48,4.28C353.62,401.84,353.47,401.79,353.34,401.79Z"/><path class="cls-10" d="M213.67,228.25c0-.69-.08-1.39-.07-2.08s-.24-1-1-1.1a124.67,124.67,0,0,1-22.14-5.59,145.78,145.78,0,0,1-16.87-6.87c-2.47-1.27-5.09-2.22-7.55-3.5a116.63,116.63,0,0,1-10.75-6,3.72,3.72,0,0,1-1.18-1.19c.11-.15.17-.32.24-.33,3.18-.2,4.41-2.86,6.07-4.91.64-.78,1.5-1.5,1.56-2.65,2.09.31,3.93,1.34,5.9,2a191.59,191.59,0,0,0,24,6.62,147.18,147.18,0,0,0,22.25,2.84c1.3.06,1.35.09,1.22,1.45-.26,2.77-.6,5.54-.79,8.32-.26,3.94-.64,7.87-.69,11.81A2.31,2.31,0,0,1,213.67,228.25Z"/><path class="cls-11" d="M397.21,399c-.84-.07-2.29-.16-3.73-.31a23.68,23.68,0,0,0-16.55,4.08,139.59,139.59,0,0,0-12.68,10.35c-4.17,3.65-8.57,7-13.81,9-.7.27-1.4.56-2.13.77-.58.17-.92-.1-.77-.73.26-1.14.56-2.26.86-3.38.75-2.81,1.52-5.61,2.25-8.42a2.45,2.45,0,0,1,1.22-1.79c4.24-2.15,7.73-5.34,11.33-8.35a122,122,0,0,1,10.39-7.9,19.7,19.7,0,0,1,11.62-3.64c2.27.06,4.53.07,6.79.17,6,.27,11-2.26,15.34-6a41.78,41.78,0,0,0,10.28-12.85c.15-.3.28-.69.71-.6s.31.43.37.71c.83,3.8,1.63,7.61,2.51,11.4a2.44,2.44,0,0,1-.41,2.25,76.37,76.37,0,0,1-7,8.4,24.48,24.48,0,0,1-9.08,6A20.22,20.22,0,0,1,397.21,399Z"/><path class="cls-12" d="M233.15,367c.86,1.52,1.47,2.7,2.16,3.83a32.11,32.11,0,0,0,11.77,11.86,15.23,15.23,0,0,0,7.15,2c1.27,0,2.56.19,3.83.12,7.16-.42,13.33,2.08,18.92,6.32,2.59,2,5,4.13,7.44,6.31,3.63,3.26,7.13,6.68,11.27,9.32a19.39,19.39,0,0,0,4.79,2.46,1.36,1.36,0,0,1,1,1.24c.12.92.29,1.84.34,2.76.11,2.27.2,4.53.23,6.8s-.05,2.23-2.15,1.51a32,32,0,0,1-8.62-4.49,118.73,118.73,0,0,1-12.43-11.18,61.54,61.54,0,0,0-8.67-7.53,22,22,0,0,0-15.56-3.74c-1.67.22-3.35.34-5,.44a14.94,14.94,0,0,1-9.81-3c-4.32-3.09-7.24-7.33-9.92-11.78a2.17,2.17,0,0,1-.22-1.69C230.63,374.78,231.83,371.09,233.15,367Z"/><path class="cls-13" d="M486.42,195.79c1.3,3,3,5.57,5.84,7.29,1,.62,1.06,1.08.14,1.86a23.09,23.09,0,0,1-3.07,2.26c-2.33,1.41-4.67,2.81-7.07,4.07a167.91,167.91,0,0,1-21.56,9.67,106.13,106.13,0,0,1-16.88,4.51c-.45.09-.89.23-1.34.34-.1-1.45-.22-2.89-.28-4.34-.2-4.75-.37-9.51-.55-14.26,0-1.22-.06-1.22,1.18-1.31a143.64,143.64,0,0,0,27.49-5.1q7.64-2.09,15.1-4.75A8.56,8.56,0,0,1,486.42,195.79Z"/><path class="cls-14" d="M263.84,463.41a1.86,1.86,0,0,0-.49-1.27,2.2,2.2,0,0,1,.16-3,7.67,7.67,0,0,1,3.18-2.59,9,9,0,0,1,10.3,2.78,62.3,62.3,0,0,1,7.21,11.63c.36.72,1,1.53.41,2.27s-1.42.31-2.14.26a12.49,12.49,0,0,0-2.92-.3h0c-.39-.39-1,0-1.38-.32C272.31,471.34,267.35,468.48,263.84,463.41Z"/><path class="cls-2" d="M278.16,472.85c.49,0,1-.18,1.38.32A1.43,1.43,0,0,1,278.16,472.85Z"/><path class="cls-15" d="M370,269.22c.27-8.8,1.91-17.3,6.05-25.17,2.25-4.28,5.24-8,9.71-10.15,3.85-1.89,7.69-2.06,11.49.16.2.12.42.21.62.32,1.91,1,1.93,1.06,3.36-.66a21,21,0,0,0,2.55-3.73l.57-1.08c.24-.43.53-.81,1.09-.67s.68.62.74,1.07a8.27,8.27,0,0,1-.26,3.28,14.92,14.92,0,0,1-2.69,4.65c-.95,1.24-1,1.24.06,2.46q.28.33.6.63c1,1,1.24,1,2.44.41a11,11,0,0,0,4.05-3.24,6.88,6.88,0,0,1,.76-.95c.37-.38.62-1.2,1.3-.85s.57,1.12.4,1.75a9.6,9.6,0,0,1-4,5.9,19.29,19.29,0,0,1-2.13,1.19c-.66.32-.74.7-.5,1.39A43.11,43.11,0,0,1,408.51,262c-.34,7.65-1.89,15-6.29,21.45a22.06,22.06,0,0,1-14.35,9.7,11.92,11.92,0,0,1-12.13-4.33A25.12,25.12,0,0,1,370.27,275,36.76,36.76,0,0,1,370,269.22Z"/><path class="cls-16" d="M285.93,268a36.87,36.87,0,0,1-1.86,13.74c-1.42,3.93-3.68,7.22-7.51,9.23a10,10,0,0,1-4,1.14c-6.62.47-12-2.09-16.48-6.79-3.95-4.17-6-9.32-7.23-14.86a50.08,50.08,0,0,1,.08-20.76c.37-1.82,1-3.57,1.54-5.36.4-1.37.4-1.36-.72-2.24a12.58,12.58,0,0,1-4-5,5.17,5.17,0,0,1-.4-2.9.76.76,0,0,1,.64-.72c.35,0,.5.24.64.49a12.8,12.8,0,0,0,3.83,4.22c.43.3.89.55,1.34.81a1,1,0,0,0,1.37-.31c.11-.14.22-.26.32-.41,1.95-2.79,2-1.76.17-4.55a9.93,9.93,0,0,1-1.86-4.45,4,4,0,0,1-.07-.69c.06-.82.08-1.8,1-2.06s1.2.73,1.52,1.36a23.26,23.26,0,0,0,2.72,4.45c1.11,1.35,1.23,1.42,2.74.57,6.21-3.51,11.59-1.36,15.72,2.59a27.55,27.55,0,0,1,6.32,9.51A55.8,55.8,0,0,1,285.93,268Z"/><path class="cls-17" d="M242.57,200.13a19,19,0,0,1,2.69-8.56,30.47,30.47,0,0,1,11.8-12,14.59,14.59,0,0,1,8.69-1.94,8.18,8.18,0,0,1,5.7,3c.53.63,1.06,1.33.71,2.21a2.12,2.12,0,0,1-2,1.16c-1.56.17-3.11.37-4.66.56a18.77,18.77,0,0,0-8.41,3.57,36.88,36.88,0,0,0-9.36,9.49c-.63.91-1.29,1.79-2,2.65a9.3,9.3,0,0,1-1.46,1.48c-1,.79-1.61.52-1.72-.71A8.42,8.42,0,0,1,242.57,200.13Z"/><path class="cls-18" d="M395,177.87a16,16,0,0,1,10.94,4.51,30.51,30.51,0,0,1,9.36,14.41,13.63,13.63,0,0,1,.64,4.11,4.23,4.23,0,0,1-.18,1.37c-.4,1.11-.91,1.27-1.76.5a14,14,0,0,1-2.32-3,44.09,44.09,0,0,0-7.12-9.19,31,31,0,0,0-6.38-4.52,18.59,18.59,0,0,0-7.4-1.75,10.4,10.4,0,0,1-2.22-.37c-1.3-.42-1.63-1.21-.94-2.4a6.69,6.69,0,0,1,3.25-2.78A8.85,8.85,0,0,1,395,177.87Z"/><path class="cls-17" d="M327.45,308.55a31.24,31.24,0,0,1,17.48,5.11,9.48,9.48,0,0,1,2.75,2.64,2.6,2.6,0,0,1,.59,1.43c0,.71-.38,1.14-1.08,1a14.19,14.19,0,0,1-2.3-.79c-1.88-.78-3.7-1.71-5.62-2.39a34.81,34.81,0,0,0-26.64.93c-1.17.52-2.35,1-3.54,1.48-.71.29-1.48.59-2-.26s.11-1.32.49-1.87a10.88,10.88,0,0,1,3.87-3.19A32.45,32.45,0,0,1,327.45,308.55Z"/><path class="cls-19" d="M348.56,289.58c0,.65-.3.93-.87.81a7.35,7.35,0,0,1-1.3-.49c-1.37-.61-2.73-1.27-4.12-1.86a33.84,33.84,0,0,0-19.07-2.37,36.86,36.86,0,0,0-11.84,3.87,22.92,22.92,0,0,1-2.38,1c-.43.17-.92.34-1.3-.07s-.13-1,.09-1.43a5.29,5.29,0,0,1,1.36-1.58,27.15,27.15,0,0,1,10-5.44,30.62,30.62,0,0,1,22.08,1.27,19.57,19.57,0,0,1,6.14,4.2A4.36,4.36,0,0,1,348.56,289.58Z"/><path class="cls-20" d="M327.71,343.47a24.6,24.6,0,0,1,11.7,3.32,10.24,10.24,0,0,1,3.09,2.77,3.2,3.2,0,0,1,.61,1.24c.24,1.2-.41,1.8-1.57,1.36s-2.22-1-3.34-1.48a26.45,26.45,0,0,0-19.83-1c-1,.35-2,.65-3,.91a4.52,4.52,0,0,1-1.55.15c-1-.1-1.28-.75-.81-1.6a8,8,0,0,1,3.23-3.07A24.59,24.59,0,0,1,327.71,343.47Z"/><path class="cls-21" d="M375.78,253.73a28.94,28.94,0,0,1,5.93-11.14A12.89,12.89,0,0,1,389,238.2a8.46,8.46,0,0,1,6.93,1.51,17.47,17.47,0,0,1,6.59,9.81,44.07,44.07,0,0,1-1.66,28.88A21.56,21.56,0,0,1,392.15,289c-1.06.18-.66-.49-.48-.9.43-.95,1.18-1.71,1.66-2.65a34.84,34.84,0,0,0,3.56-11,33.23,33.23,0,0,0-1.53-16.28,15.89,15.89,0,0,0-2.73-4.82c-4.12-5-10.27-5.1-14.56-.22a9.55,9.55,0,0,1-1.28,1.42c-.27.2-.61.46-.93.22S375.65,254.07,375.78,253.73Z"/><path class="cls-22" d="M375.78,253.73l.1,1c.74-.34,1-1,1.46-1.48a10.74,10.74,0,0,1,6.14-4c4.11-.82,7.25.86,9.72,4a21.86,21.86,0,0,1,4.11,10.62,34.89,34.89,0,0,1-3.4,21.5,23.55,23.55,0,0,1-2.15,3.17c-.33.45.18.36.39.46-2.81,2-7.26,2.43-9.86.86a4.29,4.29,0,0,1,.78-.42c4.45-1.3,6.85-4.7,8.41-8.68a23.53,23.53,0,0,0,1.13-13,45.89,45.89,0,0,0-1.8-6,1.45,1.45,0,0,0-.68-.76c-.1.08-.25.14-.3.07-.89-1.39-2.17-2.46-3.13-3.79a7.68,7.68,0,0,0-8,.72,13.18,13.18,0,0,0-3.93,4.56,2.39,2.39,0,0,1-1,1.25A47.41,47.41,0,0,1,375.78,253.73Z"/><path class="cls-23" d="M386.7,257.24a8.69,8.69,0,0,1,3.43,3.72,4.07,4.07,0,0,1-.2,2.21,3,3,0,0,1-3.41,1.44,4.3,4.3,0,0,1-2.95-5.2A3,3,0,0,1,386.7,257.24Z"/><path class="cls-24" d="M280.2,251.84a2.77,2.77,0,0,0,.44,1.59c.21.62-.06.78-.59.56s-.93-.85-1.36-1.32c-1.91-2.09-3.95-3.94-7-4.1-3.9-.21-6.4,2-8.56,4.83a21.54,21.54,0,0,0-3.86,10,37.37,37.37,0,0,0,1.21,16.88,28.6,28.6,0,0,0,2.35,5.05c.23.45,1.19,1.31-.26,1.61-4.53-3.22-7-7.83-8.66-13a41,41,0,0,1-.1-24.86,23.52,23.52,0,0,1,4.66-8.68,11,11,0,0,1,4.68-3.23,8.68,8.68,0,0,1,7.56.59c4,2.26,6.33,5.88,8.14,9.92.47,1.05.75,2.19,1.12,3.29C280.14,251.25,280,251.6,280.2,251.84Z"/><path class="cls-25" d="M262.55,286.91c.19-.1.5-.13.38-.44a6.55,6.55,0,0,0-.53-1.1c-3.68-5.94-4.37-12.5-3.93-19.28a29.69,29.69,0,0,1,1.38-7.51,18.73,18.73,0,0,1,5.25-8.09,9.18,9.18,0,0,1,5.46-2.45,8.68,8.68,0,0,1,6.66,2.46,21.09,21.09,0,0,1,2.78,3.11c.35.47.52.21.64-.18.63,1.14.56,2.44.81,3.67a42.82,42.82,0,0,1,.76,5.9c-.86-.1-1-.78-1.28-1.28a16.91,16.91,0,0,0-2.22-3.69c-.26-.28-.45-.32-.62.05a.42.42,0,0,1-.62,0,7.06,7.06,0,0,0-4-1.67c-1-.66-1.89-.28-2.8.12a11.37,11.37,0,0,0-6.54,7.92,24.42,24.42,0,0,0,2.1,18.4,10.9,10.9,0,0,0,6.26,5.51.7.7,0,0,1,.54.39C270.93,290.19,265.46,289.21,262.55,286.91Z"/><path class="cls-26" d="M273.43,256.44a3.22,3.22,0,0,1,3.33.61c.47.32.75.86,1.33,1l.48,1a4.6,4.6,0,0,1,.05,1.81c-.75,1.87-1.64,2.58-3.08,2.49a3.8,3.8,0,0,1-3.34-3.05A3.7,3.7,0,0,1,273.43,256.44Z"/><path class="cls-25" d="M278.62,260.9c0-.6,0-1.21-.05-1.81A1.62,1.62,0,0,1,278.62,260.9Z"/><path class="cls-25" d="M280.2,251.84A.74.74,0,0,1,280,251,.69.69,0,0,1,280.2,251.84Z"/></g></g></svg>