<svg xmlns="http://www.w3.org/2000/svg" viewBox="0 0 360.53 498.77"><defs><style>.cls-1{fill:#2b281d;}.cls-2{fill:#807d79;}.cls-3{fill:#eae4cc;}.cls-4{fill:#da966d;}.cls-5{fill:#e8ac50;}.cls-6{fill:#e9e3ca;}.cls-7{fill:#eae3cb;}.cls-8{fill:#eaac50;}.cls-9{fill:#eaaa4a;}.cls-10{fill:#eaab4a;}.cls-11{fill:#ebac4a;}.cls-12{fill:#eba942;}.cls-13{fill:#eca842;}.cls-14{fill:#898576;}.cls-15{fill:#2a271b;}.cls-16{fill:#29271b;}.cls-17{fill:#2a271c;}.cls-18{fill:#f2e5c9;}.cls-19{fill:#f3e6c9;}.cls-20{fill:#2b281c;}.cls-21{fill:#2a281b;}.cls-22{fill:#27261b;}.cls-23{fill:#27271c;}.cls-24{fill:#2a2d22;}.cls-25{fill:#252a1f;}.cls-26{fill:#dc956e;}.cls-27{fill:#db936b;}.cls-28{fill:#ede2c7;}.cls-29{fill:#ede1c7;}.cls-30{fill:#2c271b;}.cls-31{fill:#2b271a;}</style></defs><title>Varlık 187</title><g id="katman_2" data-name="katman 2"><g id="katman_1-2" data-name="katman 1"><path class="cls-1" d="M261.44,33.73c10.05,4.44,7.88,17.25-2.35,20.67-2,2.73-1.23,6.62-2.29,10.83-.37,9.44-4.84,21-2.29,28.78,8.08-7.22,20.78-11.19,21.2-24.14,3.06-5.61,10.87-6.57,15.76-1.78,3.73,4,3.57,9.88-.61,14.06-7.13,4.85-8.14-.13-11.67,9.52-9.85,21.57-21.27,44.05-16.58,65.41,18.29,62.84,73.12,82.67,92.35,133.69,6.43,16.63,7.91,33.6,1.13,50.66A92.9,92.9,0,0,1,344.8,385c-4.19,9.19-10.89,14-16.87,22.37-15.09,30.68-23.52,25.23-40.84,44.15-11.32,9.49-23.52,15.91-38.27,18.91-8.53,4.74-19.06,12.64-30.13,10.33-13.15,6-25.59,14.19-40.17,18-12.88-5.62-24.22-11.93-37.31-18.69-11.8-.8-21.89-7.45-32.75-13.07-28.84-3.72-45.63-27.68-66.37-43.52C28.53,410.58,25,394.64,20,377.19c-9.47-10.28-12.46-25-14.37-39.52-10.1-19.12-5.54-42.13,4.52-61,21.34-39,63.16-60.59,80.62-102.83,15.63-28.11,3.48-53.89-8.94-80.33-1.37-1.85-2.31-6.44-5.21-8.64-2.63-.31-5.26-.5-7.5-2.66-5.09-4.27-4.06-13.12,2.17-16,5.79-2.77,13.23.24,13.88,7.61C85.3,77,84.3,78,88,80.4,93.5,83.36,101.77,93.72,107,93c-1.06-10.92-2.84-23-4.95-34.85.77-6.63-18.6-7.5-6.2-22.81,6.3-5.84,17.64-.78,17.44,8,.7,3.6-3.85,5.3-.34,8.54,11.46,10.74,21.55,25.74,34.6,32.48A265.88,265.88,0,0,0,173.84,21.6c-5.74-5.06-7.49-16.27,1.56-20.26,9.59-5.22,20.83,5.76,15,16.06-5.5,6.06-2.88,6.47-.38,14.75,6.6,18.06,13,35.32,23.55,52,11.14-8,20.82-19.57,31-29.85,8.76-5.49-4.48-15.09,9.15-21C255.53,32.93,258.66,32.4,261.44,33.73Z"/><path class="cls-2" d="M261.44,33.73a15.56,15.56,0,0,0-7.14-.42,4.28,4.28,0,0,1-.62,0,2.3,2.3,0,0,1,1.26-.41,11.19,11.19,0,0,1,5.85.35A.94.94,0,0,1,261.44,33.73Z"/><path class="cls-3" d="M120.19,465.71a105.45,105.45,0,0,1-11.8-7.84,107.64,107.64,0,0,1-9.24-8,83.37,83.37,0,0,1-11.54-14.08,91.08,91.08,0,0,1-5.86-10.93c-.19-.4-.4-.8-.62-1.2s-.38-.6-.79-.57-.64.37-.78.74a3.85,3.85,0,0,0-.21,1.43,20.64,20.64,0,0,0,1.13,5.61,57.49,57.49,0,0,0,9.29,17.85A79.45,79.45,0,0,0,95,455.24a.72.72,0,0,1,.27.45c-.23.25-.44,0-.62-.08-2.62-1.21-5.16-2.57-7.67-4a94.32,94.32,0,0,1-13.42-9.16,82.92,82.92,0,0,1-9.5-9,68.24,68.24,0,0,1-9.17-12.89,70.3,70.3,0,0,1-6.46-16.12,92.09,92.09,0,0,1-2.54-15.83c-.09-1.25-.22-2.5-.36-3.74a1.68,1.68,0,0,0-.56-1.19,1,1,0,0,0-1.54.15A6.33,6.33,0,0,0,42.39,386a23.78,23.78,0,0,0-.62,4.75,61.76,61.76,0,0,0,.84,13.92,68.89,68.89,0,0,0,2.81,10.57c.45,1.32.87,2.64,1.44,3.92a.78.78,0,0,1,0,.69,9.92,9.92,0,0,1-2-1.92,75.58,75.58,0,0,1-5.82-7.74A73.61,73.61,0,0,1,30.86,393a66.46,66.46,0,0,1-3-15.42,77,77,0,0,1,.41-17.37,98.27,98.27,0,0,1,6-21.88,111.69,111.69,0,0,1,7.3-14.75,11.21,11.21,0,0,0,1-2,1.87,1.87,0,0,0,.13-1,1,1,0,0,0-1.1-.87,2.81,2.81,0,0,0-1.82.92,35.65,35.65,0,0,0-4.4,5.27,78.49,78.49,0,0,0-7.89,14.2c-.37.86-.63,1.76-1,2.64,0,.12-.06.28-.29.31a8.57,8.57,0,0,1,.16-2.53c.49-3.41.91-6.83,1.67-10.18a146,146,0,0,1,5.44-18.18,153.84,153.84,0,0,1,9.47-20.64c1.55-2.83,3-5.7,4.77-8.44,3.36-5.36,7-10.55,10.78-15.6,3.17-4.22,6.53-8.3,9.93-12.34,4.74-5.63,9.51-11.25,14-17.06,2.26-2.91,4.37-5.93,6.45-9s4.25-6.44,6.11-9.82a100.94,100.94,0,0,0,5.49-10.77c.08-.19.2-.36.37-.68a1.69,1.69,0,0,1,0,1.08,44.29,44.29,0,0,0-.34,10.29,36.73,36.73,0,0,0,1.86,8.11A25.2,25.2,0,0,0,104,231c.24.45.16.72-.32,1A67,67,0,0,0,94,238.93a70.54,70.54,0,0,0-13.39,14.94,20.32,20.32,0,0,0-2.17,4,4.58,4.58,0,0,0-.41,1.5,1.53,1.53,0,0,0,2,1.61,3.6,3.6,0,0,0,1.5-.92c1.45-1.4,2.75-2.94,4.13-4.41a138.9,138.9,0,0,1,11.19-10.92,83.24,83.24,0,0,1,11.12-7.9,71.45,71.45,0,0,1,19.08-8,72.82,72.82,0,0,1,22.1-2.42,1.37,1.37,0,0,1,1.17.7,11.21,11.21,0,0,0,3.6,3.42,8.8,8.8,0,0,0,5.51,1.16,1.35,1.35,0,0,1,1.35.47,21.11,21.11,0,0,0,2.9,2.69,23,23,0,0,0,9.36,4.14,24.88,24.88,0,0,0,11.16,0,22.16,22.16,0,0,0,11-6,3.33,3.33,0,0,1,2.69-1.2c3.29.11,5.75-1.55,7.8-3.95a3,3,0,0,0,.32-.41,1.75,1.75,0,0,1,1.68-.78,87.82,87.82,0,0,1,23.12,3.51,72.19,72.19,0,0,1,14.43,6.2,78.81,78.81,0,0,1,9,6,104.22,104.22,0,0,1,9.56,8.38c3.28,3.11,6.31,6.47,9.49,9.67a12.54,12.54,0,0,0,3.14,2.57c.64.31,1.29.65,1.92.07a1.76,1.76,0,0,0,.43-2.1,18.29,18.29,0,0,0-1.68-3.11,91.29,91.29,0,0,0-18.93-20.53c-1.6-1.22-3.26-2.36-4.9-3.54-.8-.58-.83-.6-.31-1.49A33.39,33.39,0,0,0,256.5,224a39.29,39.29,0,0,0,1.05-13.14c-.1-1.16-.23-2.32-.35-3.56.42.21.46.54.57.81A145.3,145.3,0,0,0,267,226.15c1.75,3,3.72,5.79,5.65,8.64,3.09,4.55,6.42,8.9,9.83,13.21,4.71,5.94,9.45,11.84,14,17.87a173.83,173.83,0,0,1,11.2,16.71c2.47,4.16,4.77,8.41,6.85,12.77a128.87,128.87,0,0,1,6.49,16c1.09,3.41,2,6.86,2.93,10.33a7.81,7.81,0,0,1,.31,2c-.36,0-.37-.29-.45-.46a92.68,92.68,0,0,0-8.31-13.95,39.16,39.16,0,0,0-4.43-5.51,11.48,11.48,0,0,0-2-1.69,1.92,1.92,0,0,0-2.93.9,1.66,1.66,0,0,0,0,1.41,6.89,6.89,0,0,0,.86,1.66,96.24,96.24,0,0,1,6.59,11c2.07,3.83,3.91,7.76,5.69,11.73A135.4,135.4,0,0,1,325.39,345a79,79,0,0,1,2.67,11.68,88.85,88.85,0,0,1,.56,20.29,84.73,84.73,0,0,1-4.24,20.47,83.69,83.69,0,0,1-12,22.9c-1.37,1.84-2.95,3.51-4.45,5.25a.81.81,0,0,1-.54.39,4.4,4.4,0,0,1,.52-1.45,66.47,66.47,0,0,0,3.73-11.16A81.63,81.63,0,0,0,314,392.58a45,45,0,0,0-1.25-10.33,7.18,7.18,0,0,0-1.3-3,1.82,1.82,0,0,0-.8-.65,1.11,1.11,0,0,0-1.42.71,3.35,3.35,0,0,0-.18,1.33c0,2.19,0,4.39,0,6.58a82.14,82.14,0,0,1-1.5,14.92,79,79,0,0,1-5.08,16.84,72.12,72.12,0,0,1-10.56,17.42,77.25,77.25,0,0,1-11.05,11,78.46,78.46,0,0,1-12.43,8.38c-1.33.7-2.56,1.56-3.92,2.17a2.07,2.07,0,0,1-1.13.35c-.09-.39.18-.64.38-.89a73.5,73.5,0,0,0,6.61-10.11,55.15,55.15,0,0,0,5.57-14.34,15.48,15.48,0,0,0,.4-3.72,3.93,3.93,0,0,0-.29-1.63c-.3-.66-.84-.72-1.27-.13a11.41,11.41,0,0,0-1.23,2.41,92.31,92.31,0,0,1-7,13.28,73,73,0,0,1-14.47,16.59,80.67,80.67,0,0,1-15.79,10.64c-1.67.84-3.36,1.66-5,2.49a2,2,0,0,1-1,.31A2.1,2.1,0,0,1,231,472a56,56,0,0,0,7.59-9.51,40.41,40.41,0,0,0,6.08-14,9.76,9.76,0,0,0,.22-2.59,2.08,2.08,0,0,0-.14-.7c-.27-.62-.81-.72-1.19-.17a16.62,16.62,0,0,0-1.27,2.15A58.34,58.34,0,0,1,233.47,460a75.75,75.75,0,0,1-17.54,14.15,222.73,222.73,0,0,1-21.11,10.9c-4.61,2.13-9.22,4.24-13.77,6.5-2.18,1.09-1.48,1.13-3.65-.13-3.36-2-6.82-3.75-10.29-5.51-5.09-2.58-10.21-5.09-15.17-7.89a117.76,117.76,0,0,1-17.29-11.63,76.33,76.33,0,0,1-12.59-13,10.51,10.51,0,0,0-1.17-1.32c-.54-.5-1.08-.37-1.4.33a2.34,2.34,0,0,0,0,1.63,18,18,0,0,0,1.79,4.32,52.82,52.82,0,0,0,7.26,10.29c.25.31.54.6.82.89.13.14.35.28.23.5s-.4.16-.62,0h0A84.18,84.18,0,0,1,120.19,465.71Z"/><path class="cls-4" d="M179.78,130.17c3.56-.11,7.18.06,10.79.26a152.69,152.69,0,0,1,18.19,2.16,110.65,110.65,0,0,1,17.64,4.56,107.61,107.61,0,0,1,18.13,8.15,1.1,1.1,0,0,1,.67,1c.09,3.44.51,6.85.9,10.27.21,1.87.32,3.74.48,5.61.24,2.77.47,5.54.75,8.31.16,1.66.13,3.33.27,5,.37,4.43.82,8.86,1.44,13.26.66,4.65,1.3,9.29,2,13.93a63.66,63.66,0,0,1,.83,11.11,31.94,31.94,0,0,1-4.61,15.83c-.33.55-.36.56-1,.22a72,72,0,0,0-11.7-4.94,83.24,83.24,0,0,0-11.86-2.75,93.77,93.77,0,0,0-13.89-1.28c-.91,0-1,0-1-.94a12.43,12.43,0,0,0-2.31-6.7,10.7,10.7,0,0,0-8.9-4.61,4.45,4.45,0,0,0-.73,0c-.6.06-.89-.23-1-.79-.43-1.61-.93-3.2-1.31-4.82-.58-2.47-1.09-5-1.46-7.47a81.55,81.55,0,0,1-.88-15.69,46.73,46.73,0,0,1,.67-5.9,12,12,0,0,0,.13-2.08,1.7,1.7,0,0,0-.43-1.14,1.08,1.08,0,0,0-1.72-.21,5.89,5.89,0,0,0-1.63,1.88,13.17,13.17,0,0,0-1.43,3.79,45.06,45.06,0,0,0-.74,10.37c.12,3.13.32,6.24.68,9.35a69.78,69.78,0,0,0,4.06,16.67,16.23,16.23,0,0,0,1.8,3.64,1.55,1.55,0,0,0,2.79.08,5.85,5.85,0,0,0,.77-1.59c.26-.74.36-.83,1.15-.75a5.5,5.5,0,0,1,4,2.36,6.16,6.16,0,0,1,.72,6.5c-.77,1.65-1.95,2.79-4,2.67a10.21,10.21,0,0,1-2.28-.15,2,2,0,0,0-2.2.79c-.4.47-.77,1-1.15,1.48a14.82,14.82,0,0,1-9.74,5.5,22.47,22.47,0,0,1-9.82-.38,20.73,20.73,0,0,1-4.55-1.8,12.73,12.73,0,0,1-4-3.59l-.37-.51a3.32,3.32,0,0,0-3.46-1.61,8.87,8.87,0,0,1-1.46,0,5,5,0,0,1-4.7-3.2,6.12,6.12,0,0,1,1.43-6.72,6.85,6.85,0,0,1,3.08-1.68c.79-.18.87-.16,1.12.62a3,3,0,0,0,1.09,1.61,2,2,0,0,0,2.66-.17,5.72,5.72,0,0,0,1.3-2,68.44,68.44,0,0,0,3.1-8.3,93.14,93.14,0,0,0,2.9-11.3,64,64,0,0,0,1.36-12.72,39.08,39.08,0,0,0-1.25-9.38,13.82,13.82,0,0,0-2-4.46,2.59,2.59,0,0,0-1.1-.92c-.71-.29-1-.18-1.28.56a8.65,8.65,0,0,0-.14,3.51c.15,2.22.38,4.43.48,6.65A65.45,65.45,0,0,1,166,191.1a112.91,112.91,0,0,1-3.8,14.62c-.18.6-.42,1.18-.65,1.76-.37.89-.43.93-1.39.89a10.88,10.88,0,0,0-6.23,1.71,11.14,11.14,0,0,0-4.32,5.33,11.36,11.36,0,0,0-.82,4.07c0,.8,0,.81-.8.82-1.77,0-3.54.08-5.31.15a82.28,82.28,0,0,0-13.73,1.77,78,78,0,0,0-17.72,6l-.38.18c-.69.28-.7.28-1-.37a29.41,29.41,0,0,1-3.16-9.87,42.8,42.8,0,0,1,.12-11c.55-4.62,1.51-9.18,2.31-13.76.72-4.07,1.35-8.15,1.8-12.26.3-2.74.37-5.48.5-8.22.26-5.52.57-11,1.27-16.52.43-3.34.76-6.69,1.12-10a1.68,1.68,0,0,1,.83-1.35,65.43,65.43,0,0,1,8.19-4.34,105.83,105.83,0,0,1,20.43-6.8c3.45-.8,6.95-1.35,10.45-1.9,3.78-.59,7.58-.95,11.38-1.33,1.07-.11,2.15-.2,3.22-.23C172.08,130.31,175.9,130.06,179.78,130.17Z"/><path class="cls-5" d="M108,55.9a1.31,1.31,0,0,1,.84.55l9.34,9.69c4.39,4.56,8.79,9.11,13.39,13.45,3.77,3.55,7.63,7,11.74,10.17a17.54,17.54,0,0,0,1.9,1.28c2.63,1.57,4.87,1,6.42-1.7.63-1.08,1.22-2.18,1.86-3.26,3.39-5.72,6.33-11.67,9.2-17.65s5.32-12,7.72-18.13q3.75-9.55,7.22-19.23l1.92-5.29a5.86,5.86,0,0,1,.35-.87c.24-.44.49-.45.76,0a5.11,5.11,0,0,1,.43.95c1.84,5.1,3.65,10.21,5.54,15.29,1.8,4.86,3.75,9.65,5.7,14.45,3,7.51,6.52,14.83,10.2,22,2.05,4,4.17,8,6.58,11.84a6.63,6.63,0,0,0,1.23,1.41,3.36,3.36,0,0,0,4.15.32,32.35,32.35,0,0,0,4-3,272.71,272.71,0,0,0,21.95-20.78c3.34-3.49,6.65-7,10-10.51a6.29,6.29,0,0,1,1.47-1.49,2.25,2.25,0,0,1,0,1.38c-.72,4.88-1.52,9.75-2.15,14.64-.66,5.21-1.31,10.41-1.75,15.65-.3,3.67-.67,7.33-.82,11a8.73,8.73,0,0,0,.16,2.69,2.94,2.94,0,0,0,4.46,1.82c1.37-.75,2.7-1.58,4-2.44,3.59-2.39,7-5.09,10.43-7.62,2.62-1.9,5.08-4,7.7-5.89a2,2,0,0,1,.91-.53c.22.37-.07.66-.21.93-1.86,3.62-3.57,7.31-5.26,11-3.14,6.86-6.08,13.81-8.58,20.94-.26.75-.49,1.51-.76,2.37l-2.7-1.67a105.76,105.76,0,0,0-14.85-7.56,137,137,0,0,0-22-7.1c-5-1.17-10-2.21-15-2.94-5.34-.78-10.68-1.34-16.06-1.69q-7.45-.46-14.9-.28c-5.18.14-10.34.53-15.49,1.09a173.06,173.06,0,0,0-23.25,4.23,124,124,0,0,0-23.17,8.15,69.67,69.67,0,0,0-11.78,6.87.9.9,0,0,1-.78.29A269.4,269.4,0,0,0,84.38,85.3a3.46,3.46,0,0,1,1.41.82c2.94,2.21,5.86,4.45,8.81,6.66,3.78,2.83,7.58,5.64,11.56,8.2a17.93,17.93,0,0,0,3.09,1.72,2.8,2.8,0,0,0,3.9-2.64c0-1.66,0-3.34-.11-5-.21-2.91-.47-5.82-.8-8.72q-.61-5.43-1.34-10.86c-.54-4-1.2-8-1.79-12.06-.33-2.23-.74-4.45-1.12-6.67A1.3,1.3,0,0,1,108,55.9Z"/><path class="cls-6" d="M250.42,148.78c.25-.09.42.07.58.19a39.92,39.92,0,0,1,3.79,3.09,3.38,3.38,0,0,1,1,1.69c.48,2.06,1,4.13,1.51,6.18a122.81,122.81,0,0,0,5.67,16.23,150.25,150.25,0,0,0,10.47,20.39A175.65,175.65,0,0,0,287,215.39c6.77,8.26,14.18,15.94,21.57,23.64,4.35,4.54,8.74,9.05,12.94,13.74s8.21,9.52,12,14.55a116,116,0,0,1,9.75,15.16,101,101,0,0,1,7.2,16.74,61.29,61.29,0,0,1,3,14c.09,1.28.21,2.56.32,3.84a9.08,9.08,0,0,1-.13,2.58,4,4,0,0,1-.66-1.59,72.14,72.14,0,0,0-6.18-15,64.5,64.5,0,0,0-7.56-11.22,11.67,11.67,0,0,0-2.8-2.63c-.39-.23-.8-.66-1.33-.33a1.78,1.78,0,0,0-.85,1.67,2.94,2.94,0,0,0,.46,1.37c1.54,2.8,3.14,5.58,4.54,8.45a92.63,92.63,0,0,1,5.08,12.33c1,3,1.89,6,2.63,9.12a77.4,77.4,0,0,1,1.91,11.93,89.09,89.09,0,0,1-.14,14.79A86.93,86.93,0,0,1,345,367.37a84.73,84.73,0,0,1-5.73,13.75,78.44,78.44,0,0,1-5,8.4c-.19.27-.41.53-.65.84a1,1,0,0,1,0-1A62,62,0,0,0,335.23,379a95.24,95.24,0,0,0,.38-15,65.12,65.12,0,0,0-1.77-13.1,14.6,14.6,0,0,1-.45-4.84,59.77,59.77,0,0,0-.27-9.27c-.23-3.13-.7-6.22-1.19-9.31-.58-3.67-1.39-7.3-2.33-10.9A132.49,132.49,0,0,0,324.41,301c-1.64-4.13-3.5-8.17-5.48-12.16a165.58,165.58,0,0,0-11-18.77c-3-4.41-6.19-8.64-9.53-12.79-3.57-4.44-7.17-8.85-10.7-13.33a245,245,0,0,1-14.93-20.58c-2.55-4-4.83-8.21-7.08-12.41s-4.15-8.79-6-13.29a117.51,117.51,0,0,1-5.29-16.24,110.36,110.36,0,0,1-2.91-17.79c-.39-4.67-.81-9.35-1.12-14C250.31,149.3,250.21,149,250.42,148.78Z"/><path class="cls-7" d="M19,364.75c-.25-.59-.52-1.17-.76-1.77a72.45,72.45,0,0,1-4.11-13.44,79,79,0,0,1-1.39-11.37A103.48,103.48,0,0,1,13,325.35a80.14,80.14,0,0,1,1.29-8.45,82.93,82.93,0,0,1,4.46-15.29c1.09-2.71,2.33-5.36,3.58-8a12.08,12.08,0,0,0,1-2.73,5.9,5.9,0,0,0,.09-.72,1.29,1.29,0,0,0-.64-1.33c-.47-.26-.9,0-1.26.27a15.45,15.45,0,0,0-3.24,3.22,44.65,44.65,0,0,0-3.53,5.29,65.53,65.53,0,0,0-7.58,20.54c0,.2-.1.4-.16.6,0,0,0,0-.17.12,0-.4-.1-.75-.11-1.1A63.86,63.86,0,0,1,8.5,300.4,80,80,0,0,1,13,287.19a100,100,0,0,1,10-17.64c1.69-2.42,3.37-4.85,5.21-7.17A258.22,258.22,0,0,1,46.58,242c6.27-6.37,12.63-12.64,18.75-19.16,3.68-3.92,7.21-8,10.55-12.22,1.94-2.46,3.87-4.91,5.67-7.47a152.8,152.8,0,0,0,9.28-14.84,160.61,160.61,0,0,0,8.25-18.12c1.07-2.75,2-5.57,2.82-8.4a86.35,86.35,0,0,0,2.37-9.07,2.32,2.32,0,0,1,.92-1.45c1-.74,1.89-1.51,2.93-2.2.36.34.23.74.19,1.09-.21,2.14-.45,4.28-.67,6.43-.28,2.8-.49,5.61-.81,8.4a114.74,114.74,0,0,1-5.07,24,153.5,153.5,0,0,1-8.38,20c-1.71,3.38-3.59,6.66-5.57,9.9A167.06,167.06,0,0,1,76.49,235c-2.72,3.47-5.52,6.88-8.36,10.26-3.59,4.25-7.15,8.51-10.67,12.82a208.49,208.49,0,0,0-15.67,21.46,174.35,174.35,0,0,0-9.07,16.54,151.58,151.58,0,0,0-7.81,19.54,123.35,123.35,0,0,0-5.27,24.64,129.38,129.38,0,0,0-.79,16.34c0,2.12.13,4.24.34,6.35A3.17,3.17,0,0,1,19,364.75Z"/><path class="cls-8" d="M258.36,128.28c-.18,1.09-.31,2.2-.54,3.28-.83,3.95-1.53,7.92-2.26,11.88-.14.75-.34.84-.93.39a78,78,0,0,0-13.94-8.11,120.17,120.17,0,0,0-14.6-5.56,116.48,116.48,0,0,0-15.16-3.74c-4.75-.86-9.53-1.55-14.33-2-3.25-.32-6.51-.5-9.77-.71-3.64-.23-7.29-.27-10.94-.15-5.62.2-11.24.5-16.84,1.15a141.78,141.78,0,0,0-23.39,4.56,115.06,115.06,0,0,0-15.34,5.64,87.56,87.56,0,0,0-12.8,7c-.84.56-1.65,1.16-2.47,1.74s-.8.48-1-.36c-.88-4.86-1.73-9.71-2.62-14.56a2,2,0,0,1,.9-2.3c2.1-1.44,4.28-2.74,6.49-4a106.29,106.29,0,0,1,18.94-8.13,140.07,140.07,0,0,1,24.11-5.66,198.05,198.05,0,0,1,19.91-1.89q9.18-.33,18.34.15A164.91,164.91,0,0,1,208.58,109a152.24,152.24,0,0,1,20.77,4.94,113.7,113.7,0,0,1,23.33,10c1.65,1,3.25,2,4.87,3C258,127.24,258.49,127.58,258.36,128.28Z"/><path class="cls-9" d="M174.81,11.64A5.69,5.69,0,0,1,180.44,6a5.61,5.61,0,0,1,5.67,5.58,5.88,5.88,0,0,1-6.05,5.85A5.62,5.62,0,0,1,174.81,11.64Z"/><path class="cls-10" d="M97.65,43.59c-.21-2.07,2.09-4.84,4.84-4.87a5.26,5.26,0,0,1,5.22,5c-.06,2.26-1.7,5.23-4.87,5.23A5.09,5.09,0,0,1,97.65,43.59Z"/><path class="cls-11" d="M252.43,43.63a4.71,4.71,0,0,1,4.74-4.87,4.9,4.9,0,0,1,4.88,4.91,5,5,0,0,1-5,5A4.68,4.68,0,0,1,252.43,43.63Z"/><path class="cls-12" d="M284,79.27c-2.15,0-3.76-1.87-3.74-4.3A3.83,3.83,0,0,1,284,71.29a4,4,0,0,1,4.08,3.76A4.09,4.09,0,0,1,284,79.27Z"/><path class="cls-13" d="M75.85,79.08a4,4,0,0,1-4-4.23c0-1.83,2-3.55,4-3.53a3.71,3.71,0,0,1,3.69,3.8C79.58,77.06,77.78,79.31,75.85,79.08Z"/><path class="cls-14" d="M120.19,465.71a1,1,0,0,1,.68.21c2.54,1.32,5,2.77,7.68,3.87a.58.58,0,0,1,.4.3c-.52.09-.91-.26-1.35-.43a71.84,71.84,0,0,1-7.16-3.64A.49.49,0,0,1,120.19,465.71Z"/><path class="cls-14" d="M129,470.09l.51-.09c-.24-.52-.81-.79-.94-1.35.62.31,1,.93,1.48,1.37a.3.3,0,0,1,.09.37.33.33,0,0,1-.36.13A1.1,1.1,0,0,1,129,470.09Z"/><path class="cls-15" d="M242.46,268.41c-4.23-.26-8.32-.9-12.44-1.26l-10-.88c-4-.36-8-.79-11.9-1.43-1.54-.26-1.11-.47-2.09.89a28.22,28.22,0,0,1-10.56,8.92,39.49,39.49,0,0,1-8.67,3.22,38.78,38.78,0,0,1-14.08.73,40.76,40.76,0,0,1-8.11-1.85,30.67,30.67,0,0,1-13.76-9.24,11.18,11.18,0,0,1-2.06-3c-.21-.53-.58-.38-.95-.34l-4.86.61c-3.86.47-7.74.71-11.62,1-3.22.25-6.43.65-9.65.9-3.74.3-7.45,1-11.21,1-.52,0-1,0-1.56,0a2.21,2.21,0,0,1-1.17-.39,1,1,0,0,1-.18-1.75,5.33,5.33,0,0,1,1.94-1.19A60.14,60.14,0,0,1,121.25,261a135.16,135.16,0,0,1,14.17-1.67c4.65-.35,9.28-.79,13.88-1.55a50.26,50.26,0,0,0,15.87-5.2,36.23,36.23,0,0,0,8.56-6.41c1-1,1.89-1.95,2.84-2.92,1.6-1.64,2.43-1.61,3.88.19a41.58,41.58,0,0,0,7.19,7.21,36.39,36.39,0,0,0,9.35,5,75.84,75.84,0,0,0,18.31,3.82c4.9.52,9.82.93,14.69,1.71a59.21,59.21,0,0,1,12.69,3.28,13.63,13.63,0,0,1,2.68,1.39,5.86,5.86,0,0,1,.5.37c.35.34.81.7.66,1.22a1.47,1.47,0,0,1-1.26,1A11.93,11.93,0,0,1,242.46,268.41Z"/><path class="cls-16" d="M216.81,142a28.67,28.67,0,0,1,13.89,3.55,24.68,24.68,0,0,1,10.23,10.26,19.58,19.58,0,0,1,2.28,8.48,7.82,7.82,0,0,1-.75,4.06,4.23,4.23,0,0,1-3.18,2.28,3.1,3.1,0,0,1-2-.36c-1.33-.7-2.53-1.58-3.8-2.37a38.09,38.09,0,0,0-17.78-5.68,47.64,47.64,0,0,0-15.77,1.69,7.25,7.25,0,0,1-1.84.32,4.91,4.91,0,0,1-4.9-3.18c-1.58-3.84-.74-7.3,1.75-10.43a19.37,19.37,0,0,1,7.35-5.36A36.36,36.36,0,0,1,214,142.14C214.93,142.05,215.87,142.05,216.81,142Z"/><path class="cls-17" d="M165.66,157.35a8.45,8.45,0,0,1-1.44,4.82,4.63,4.63,0,0,1-5.13,2.13c-1.23-.2-2.43-.58-3.64-.87a63.26,63.26,0,0,0-9.58-1.42,39,39,0,0,0-11.9,1,29.22,29.22,0,0,0-10,4.56,32.83,32.83,0,0,0-3.34,2.48c-1.54,1.37-3,.81-4.17-.26a5.8,5.8,0,0,1-1.69-3.49,16,16,0,0,1,.74-7.61,20.08,20.08,0,0,1,4.62-7.71,25.54,25.54,0,0,1,6.27-5.12,29.63,29.63,0,0,1,11.23-3.61,35.79,35.79,0,0,1,18.08,3.11,24.36,24.36,0,0,1,6.46,4.16A10,10,0,0,1,165.66,157.35Z"/><path class="cls-18" d="M157.81,185.88a3.24,3.24,0,0,1,.51,2.24,13.57,13.57,0,0,1-.72,4.69,23.56,23.56,0,0,1-2.11,4.73,11,11,0,0,1-3.79,3,18.19,18.19,0,0,1-12.39,2,15.64,15.64,0,0,1-6.26-3,1.52,1.52,0,0,1-.76-1.07,44,44,0,0,1-2.07-4.26,7.82,7.82,0,0,1-.66-2.37,2.3,2.3,0,0,0-.43-1.05,12.18,12.18,0,0,1,.75-3.83,17.05,17.05,0,0,1,7-10,12.66,12.66,0,0,1,5.32-2,13,13,0,0,1,9.8,2.13,15.93,15.93,0,0,1,5.78,8.21A.81.81,0,0,1,157.81,185.88Z"/><path class="cls-19" d="M228.48,190.1a10.28,10.28,0,0,1-1,4.6c-.55,1.26-1.24,2.46-1.86,3.69,0,.29-.18.44-.36.59a16.27,16.27,0,0,1-12.91,3.91,14.41,14.41,0,0,1-8.69-4.22,1.69,1.69,0,0,1-.64-.93A17.09,17.09,0,0,1,200.66,185a.5.5,0,0,1,0-.49c1.41-2.56,2.7-5.17,5.17-7a13.77,13.77,0,0,1,20,3.82,17.13,17.13,0,0,1,2.68,7.16,4.63,4.63,0,0,0,.09,1.11A.57.57,0,0,1,228.48,190.1Z"/><path class="cls-20" d="M157.81,185.88c-.62-1.09-.91-2.32-1.53-3.42a14.33,14.33,0,0,0-5.62-5.85,13,13,0,0,0-8.48-1.31c-5.36.88-8.74,4.22-11,8.92A16.76,16.76,0,0,0,129.7,189a10.1,10.1,0,0,1-.57,1.87l-.62.38a1.77,1.77,0,0,1-2.69-.81,3.26,3.26,0,0,1-.38-1.71,16.54,16.54,0,0,1,1.63-6.74,20.26,20.26,0,0,1,4.63-6.62,18.54,18.54,0,0,1,13-5.26,15.52,15.52,0,0,1,13.35,7,10.64,10.64,0,0,1,2,6,3.28,3.28,0,0,1-1.34,2.59A1.06,1.06,0,0,1,157.81,185.88Z"/><path class="cls-21" d="M228.29,188.62c-.82-4.62-2.76-8.57-6.76-11.27-4.34-2.95-8.89-3-13.53-.78a12.41,12.41,0,0,0-5.41,5c-.67,1.13-1.28,2.28-1.92,3.42a2.61,2.61,0,0,1-1.87-2.32,8.09,8.09,0,0,1,.94-4.33,15.54,15.54,0,0,1,10.88-8,17.38,17.38,0,0,1,13,2.54,19.48,19.48,0,0,1,8.23,10.76,12.84,12.84,0,0,1,.93,5,2.39,2.39,0,0,1-1.49,2.39,2.22,2.22,0,0,1-2.85-1l-.06-.53C228.27,189.27,228.45,188.92,228.29,188.62Z"/><path class="cls-22" d="M132.29,198.53a13.61,13.61,0,0,0,7,3.72,17.8,17.8,0,0,0,14.95-3.8,13.87,13.87,0,0,1,1.26-.91,2,2,0,0,1,1.56.46,1.44,1.44,0,0,1,.55,2.06,9.08,9.08,0,0,1-2.83,3.14,17.49,17.49,0,0,1-8.19,3.61,21.42,21.42,0,0,1-9.78-.46,15.29,15.29,0,0,1-6.62-4,4.85,4.85,0,0,1-1.25-2,1.87,1.87,0,0,1,2.21-2.28A10.13,10.13,0,0,1,132.29,198.53Z"/><path class="cls-23" d="M203,197.74a18.63,18.63,0,0,0,3.79,3.06,15.64,15.64,0,0,0,11.66,1.45,14.83,14.83,0,0,0,6.14-3.13c.32-.26.67-.49,1-.73a2.15,2.15,0,0,1,1.12.07c1.5.62,1.9,1.87.92,3.16a13.18,13.18,0,0,1-4.09,3.49,18.46,18.46,0,0,1-11.15,2.23,16.41,16.41,0,0,1-10.84-5.16,6,6,0,0,1-1.19-1.81,1.65,1.65,0,0,1,.9-2.4A3.32,3.32,0,0,1,203,197.74Z"/><path class="cls-24" d="M113.91,199.24a1.69,1.69,0,0,1,.46-1.17,9.64,9.64,0,0,1,5.5-3.15,4.53,4.53,0,0,1,2.07.1,2.68,2.68,0,0,1,.92.47c.87.7.85,1.39-.06,2a3.87,3.87,0,0,1-.64.33c-1.9.78-3.79,1.56-5.7,2.32a3,3,0,0,1-1.62.29C114.13,200.32,113.89,200,113.91,199.24Z"/><path class="cls-25" d="M235.57,193.4c2.61.14,5,.79,6.8,2.88.41.48,1.06.95.58,1.7s-1.12.42-1.71.25c-1.4-.4-2.79-.84-4.19-1.26-.7-.21-1.41-.39-2.1-.61a8.1,8.1,0,0,1-1.26-.51,1.18,1.18,0,0,1-.79-1.12c0-.55.48-.83.94-1A3.65,3.65,0,0,1,235.57,193.4Z"/><path class="cls-26" d="M177.45,272.89a35.49,35.49,0,0,1-10.13-1.44,25.28,25.28,0,0,1-11.06-6.62,16.32,16.32,0,0,1-1.07-1.27c-.25-.31-.11-.52.22-.62l2.89-.88a3,3,0,0,1,2.29.46,28.87,28.87,0,0,0,5.17,1.9,39.09,39.09,0,0,0,6.35,1.12,50.8,50.8,0,0,0,7.19.27,38.1,38.1,0,0,0,14.76-3.25,3.64,3.64,0,0,1,3.09-.17c.86.36,1.8.53,2.69.81.63.21.67.37.24.83a26.31,26.31,0,0,1-12.58,7.63A32.56,32.56,0,0,1,177.45,272.89Z"/><path class="cls-27" d="M169.11,257.45c1.78-1.28,3.47-2.41,5-3.71s2.88-2.78,4.37-4.15a34.19,34.19,0,0,0,7.31,7c.3.23.6.46.89.71a3.28,3.28,0,0,1,.34.39C183.67,258.88,173.75,259.34,169.11,257.45Z"/><path class="cls-28" d="M237.56,163.62c-1.17-.68-2.17-1.29-3.2-1.86a46.22,46.22,0,0,0-14.83-5.32,41.23,41.23,0,0,0-16.95.82c-1.18.29-2.36.61-3.54.86s-1.5-.11-1.42-1.24a4.76,4.76,0,0,1,1.42-2.95,17,17,0,0,1,5.16-3.65,28.69,28.69,0,0,1,12.1-2.78,22.81,22.81,0,0,1,11.56,2.67,19.45,19.45,0,0,1,9.39,11.49,9.86,9.86,0,0,1,.3,1.33A3.6,3.6,0,0,1,237.56,163.62Z"/><path class="cls-29" d="M120.26,162.79a4.06,4.06,0,0,1,.34-2.24,16.55,16.55,0,0,1,4.85-7.55,20.59,20.59,0,0,1,11.86-5.33,31.53,31.53,0,0,1,11.08.76,22.39,22.39,0,0,1,10.7,5.74,5.4,5.4,0,0,1,1.18,1.58,3.15,3.15,0,0,1,.22,1.63c-.1,1-.41,1.18-1.36,1-2.22-.41-4.38-1.08-6.57-1.63a40.15,40.15,0,0,0-30.89,5.38q-.53.33-1.08.63A1.06,1.06,0,0,1,120.26,162.79Z"/><path class="cls-30" d="M152.29,188.72c-.11,2.44-.48,4.76-2,6.69a6.59,6.59,0,0,1-5,2.82,6.38,6.38,0,0,1-5.49-2.68,9.92,9.92,0,0,1-1.68-8.5,9.52,9.52,0,0,1,2.34-4.58,6.7,6.7,0,0,1,7.34-1.78,5.34,5.34,0,0,1,2.46,1.85A10.52,10.52,0,0,1,152.29,188.72Z"/><path class="cls-31" d="M220.16,189.69a9.83,9.83,0,0,1-1.88,5.95,6,6,0,0,1-9.11,1.08,8.8,8.8,0,0,1-3-5.55,11,11,0,0,1,1.06-7.37,6.57,6.57,0,0,1,7.6-3.32,5.73,5.73,0,0,1,3.33,2.34A10.69,10.69,0,0,1,220.16,189.69Z"/><path class="cls-4" d="M228.29,188.62a1.22,1.22,0,0,1,.13.95A1,1,0,0,1,228.29,188.62Z"/></g></g></svg>