<svg xmlns="http://www.w3.org/2000/svg" viewBox="0 0 479.38 499.27"><defs><style>.cls-1{fill:#251a13;}.cls-2{fill:#f8cba4;}.cls-3{fill:#21313b;}.cls-4{fill:#be3f34;}.cls-5{fill:#bf3f34;}.cls-6{fill:#21303c;}.cls-7{fill:#bf3e36;}.cls-8{fill:#bf3d34;}.cls-9{fill:#be3e33;}.cls-10{fill:#fdcba1;}.cls-11{fill:#fdcca3;}.cls-12{fill:#be4135;}.cls-13{fill:#251910;}.cls-14{fill:#251911;}.cls-15{fill:#251a10;}.cls-16{fill:#fff9e5;}.cls-17{fill:#fff8e4;}.cls-18{fill:#261b12;}.cls-19{fill:#be4037;}.cls-20{fill:#251c13;}.cls-21{fill:#231c15;}.cls-22{fill:#f3e6d1;}.cls-23{fill:#72726e;}.cls-24{fill:#4f2c1c;}.cls-25{fill:#512d1c;}.cls-26{fill:#fed0ac;}.cls-27{fill:#241a13;}.cls-28{fill:#ffffef;}.cls-29{fill:#fffef5;}</style></defs><title>Varlık 143</title><g id="katman_2" data-name="katman 2"><g id="katman_1-2" data-name="katman 1"><path class="cls-1" d="M344.67,459.83c-9.06,2-19.68-5-28.11-.63-51.68,46.24-94.34,57.65-153.3,6.45-10.81-11.87-12.19-5.6-26.49-6.09-56.66-3.75-83-27.32-105.68-77.29-46.87-50.88-35.52-91-.47-145.81-21-197,209-309.54,357.08-182.78,93.32,88,50.95,179.72,67,196.74,33,45,35.52,95.46-8.65,138.51C426.87,432.33,394.32,459.57,344.67,459.83Z"/><path class="cls-2" d="M384.54,235.83a123,123,0,0,1-1.71,18.37c-.48,2.91-.86,5.83-1.37,8.73s-1.12,5.7-1.69,8.54c-.9,4.55-1.83,9.09-2.7,13.65s-1.79,9.19-2.5,13.82c-.89,5.84-1.48,11.7-2,17.58-.51,6.4-.81,12.81-1.37,19.2a205.52,205.52,0,0,1-3.82,26.12,154.58,154.58,0,0,1-5,18.17,135,135,0,0,1-7.34,17.21A140,140,0,0,1,336,425.37,251.73,251.73,0,0,1,311.52,450c-5.33,4.76-10.82,9.35-16.49,13.71a185.2,185.2,0,0,1-18.44,12.66,95,95,0,0,1-20,9.13,67.32,67.32,0,0,1-26.6,2.88,76.71,76.71,0,0,1-27.29-8.08,153.36,153.36,0,0,1-25.49-16.53,367.8,367.8,0,0,1-35.15-31.68,151.23,151.23,0,0,1-16.6-19.81,134.91,134.91,0,0,1-12-20.68,139.18,139.18,0,0,1-6.12-15.88,131.66,131.66,0,0,1-4.24-16.08q-2.11-11.19-3.21-22.52c-.86-8.82-1.18-17.66-1.53-26.5A166.07,166.07,0,0,0,96.53,292c-1.14-7.5-2.76-14.91-4.18-22.36a172.82,172.82,0,0,1-3-21,82.61,82.61,0,0,1,1.77-24.18,66.8,66.8,0,0,1,9.15-21.56,49.29,49.29,0,0,1,11-12,58.74,58.74,0,0,1,12.46-7.47,117.23,117.23,0,0,1,15.18-5.43c8-2.28,16.18-4.25,24.27-6.39A193,193,0,0,0,193.8,161a137.52,137.52,0,0,0,22.44-12.56,101.94,101.94,0,0,0,10.92-8.82,84.52,84.52,0,0,0,9.63-10.73,71.63,71.63,0,0,0,5.94-9.15c.1-.19.18-.41.43-.43s.35.2.45.39a79.9,79.9,0,0,0,8.37,12.2,110.49,110.49,0,0,0,13.26,13.58,111.86,111.86,0,0,0,19,13.17,171.07,171.07,0,0,0,18.22,8.61c5.78,2.37,11.74,4.24,17.71,6.1,9.8,3.06,19.69,5.91,29.16,10a75.93,75.93,0,0,1,14.78,8.13,56,56,0,0,1,9,7.85,42.79,42.79,0,0,1,9.7,18.31,67,67,0,0,1,1.72,17.68C384.53,235.48,384.53,235.65,384.54,235.83Z"/><path class="cls-3" d="M333.67,30.39A33.6,33.6,0,0,1,338,32.32c.51.25,1,.58,1.47.83,3.21,1.53,6.3,3.27,9.36,5.08,2.42,1.42,4.87,2.79,7.24,4.29,1.6,1,3.19,2.07,4.75,3.15,2.63,1.82,5.22,3.69,7.74,5.66s5,4,7.51,6a133.17,133.17,0,0,1,12.76,11.8c2.12,2.21,4.13,4.54,6.17,6.83,1.44,1.61,2.84,3.25,4.25,4.89,1.79,2.1,3.46,4.31,5.12,6.51,1.5,2,3,4,4.35,6.13,1.95,3,3.81,6,5.69,9,2,3.19,3.81,6.48,5.6,9.78,1.61,3,3.09,6,4.49,9,.77,1.7,1.59,3.36,2.32,5.07s1.38,3.52,2.05,5.29,1.22,3.3,1.79,5c1,2.94,2,5.89,2.89,8.86.8,2.6,1.33,5.28,2.08,7.89,1,3.57,1.55,7.24,2.28,10.87s1.13,7.06,1.63,10.59c.35,2.39.6,4.79.82,7.19.19,2.15.35,4.3.54,6.44.15,1.65.11,3.28.22,4.92.55,8.27.19,16.55.19,24.83,0,2.41,0,4.84-.26,7.25-.14,1.51-.06,3-.23,4.52-.35,3.07-.08,6.15-.27,9.21a19.48,19.48,0,0,0,1.13,8.24,37.82,37.82,0,0,0,3.14,6.66q4.75,7.64,9.58,15.26a89.62,89.62,0,0,1,5.5,10.1c.6,1.28,1.33,2.51,1.89,3.83a95.31,95.31,0,0,1,3.54,9.84c.84,2.81,1.48,5.67,2.11,8.54.53,2.44,1,4.89,1.27,7.38a46.4,46.4,0,0,1,.49,7.35c-.14,2.8-.26,5.6-.45,8.39A83.5,83.5,0,0,1,466,339.46a50.62,50.62,0,0,1-2,6,65.63,65.63,0,0,1-3.2,7.23A97.52,97.52,0,0,1,454.53,363c-1.38,1.92-2.82,3.81-4.15,5.78-.58.86-1.41,1.51-2,2.34a36,36,0,0,1-2.87,3.18c-2.1,2.12-4.1,4.34-6.18,6.5a31.81,31.81,0,0,0-6.46,9.34c-1.13,2.57-2.12,5.2-3.21,7.78-1.21,2.83-2.64,5.55-4.09,8.25-.94,1.74-2,3.43-3,5.11a50,50,0,0,1-3.86,5.2,118,118,0,0,1-9,9.2,68.16,68.16,0,0,1-7.21,5.9,105,105,0,0,1-13,8,91.16,91.16,0,0,1-9.31,4.3,81.68,81.68,0,0,1-11,3.49c-2.3.54-4.58,1.21-6.93,1.57s-4.85.73-7.29,1-4.94,0-7.39.25a30.6,30.6,0,0,1-4.27.2c-2.46-.12-4.91-.26-7.36-.44-1.77-.13-3.51-.42-5.27-.58a1.6,1.6,0,0,1-.63-.1c-.36-.21-1,0-1.12-.5s.4-.72.66-1.05a66.52,66.52,0,0,1,5.58-5.81c3.65-3.63,7.09-7.45,10.39-11.4,1.89-2.26,3.81-4.48,5.52-6.86,1.19-1.65,2.39-3.29,3.56-4.94,1.92-2.72,3.67-5.55,5.48-8.34,1.35-2.09,2.43-4.36,3.64-6.55A111.55,111.55,0,0,0,369,392.73c1-2.43,2.06-4.86,3-7.33a40,40,0,0,0,2-6.29,2.41,2.41,0,0,1,2.3-2.19,40.36,40.36,0,0,0,6.27-1.53,26.36,26.36,0,0,0,5.64-2.83,12,12,0,0,0,3.4-3.14,4.26,4.26,0,0,0,.8-2.4,26.45,26.45,0,0,0-1.31-9.71c-1.25-4.14-3-8.11-4.47-12.16-.37-1-.72-2-1-3.08-.81-2.68-1.63-5.37-2.18-8.11a34.29,34.29,0,0,1-.92-8c.1-2.47,0-4.94,0-7.42a52.88,52.88,0,0,1,.73-8.23,23,23,0,0,0,.27-3.09c0-1.7.53-3.32.67-5,.18-2.14.6-4.26,1-6.38.32-1.91.7-3.81,1.05-5.71.6-3.22,1.18-6.44,1.81-9.65.35-1.77.76-3.54,1.18-5.3.62-2.64,1.2-5.29,1.68-8,.44-2.41,1-4.81,1.36-7.24s1-4.89,1.26-7.38c.15-1.41.51-2.79.69-4.2.15-1.11.13-2.23.3-3.35a99,99,0,0,0,.54-14.51,35.34,35.34,0,0,0-.43-4.11,2.79,2.79,0,0,1-.07-.38c0-.36-.19-.86.33-1s.56.29.76.58a47.35,47.35,0,0,1,4.17,7.62c.79,1.68,1.39,3.44,2.26,5.09a40.29,40.29,0,0,1,2.05,4.72c.17.44.27,1.19.94,1.05s.67-.79.67-1.39a51.16,51.16,0,0,0-2.93-17.64,67.44,67.44,0,0,0-4.19-10.45c-1.13-2.25-2.51-4.33-3.84-6.46-1.1-1.75-2.19-3.52-3.43-5.18a42.11,42.11,0,0,0-4-4.88c-1.08-1.07-1.92-2.35-3.07-3.35-2.25-2-4.38-4-6.77-5.84-2.69-2-5.44-4-8.19-5.93a40.76,40.76,0,0,0-4.6-2.62c-1.88-1-3.78-1.93-5.68-2.87a76.33,76.33,0,0,0-7.07-3.23c-2.22-.84-4.49-1.54-6.7-2.42s-4.49-1.51-6.73-2.27c-3.23-1.08-6.52-2-9.77-3-3-1-6.1-1.89-9.12-2.94-3.79-1.32-7.63-2.5-11.41-3.83-1.87-.66-3.66-1.52-5.48-2.32s-3.65-1.58-5.44-2.45c-2.68-1.3-5.35-2.61-7.95-4.07-2.87-1.61-5.67-3.33-8.46-5.06a59.48,59.48,0,0,1-5.53-4.06c-2.05-1.65-4.08-3.34-6.08-5.05a101,101,0,0,1-7.66-7.4c-1.86-2-3.62-4.07-5.38-6.14-.95-1.12-1.86-2.28-2.69-3.48-1.15-1.68-2.35-3.32-3.45-5-2.26-3.49-4.14-7.19-6.16-10.82-.48-.86-.85-.89-1.35,0-.87,1.48-1.67,3-2.53,4.5a113,113,0,0,1-9,13.77,56.24,56.24,0,0,1-5.32,6.17c-2.15,2.06-4.23,4.21-6.51,6.15a120,120,0,0,1-10.85,8.2c-2.62,1.76-5.38,3.29-8.14,4.82-3.48,1.93-7,3.82-10.62,5.41-3.37,1.47-6.81,2.76-10.24,4.08-2.66,1-5.35,2-8,2.93-3.47,1.21-7,2.07-10.58,3-3.71,1-7.41,2-11.13,3-5.14,1.33-10.3,2.56-15.42,3.94A81.69,81.69,0,0,0,123,174c-2,.89-4.2,1.58-6.19,2.63a53.78,53.78,0,0,0-4.87,2.7c-.93.63-1.95,1.12-2.88,1.76a63.47,63.47,0,0,0-8.13,6.41,61.19,61.19,0,0,0-8.28,9.75,93.19,93.19,0,0,0-5.6,9.48A52.79,52.79,0,0,0,85,211.6c-.81,2-1.62,4.09-2.24,6.2-.9,3-1.59,6.1-2.22,9.18-.2,1-.2,2.05-.31,3.08-.28,2.44-.63,4.88-.73,7.33a32.7,32.7,0,0,0,.14,7.13,3.33,3.33,0,0,1,0,.77,49.92,49.92,0,0,0,.31,6.35c.07,1.79.53,3.57.7,5.37.2,2,.45,3.94.81,5.88.56,3,1.07,5.94,1.68,8.89,1,5.07,2.24,10.1,3.18,15.18.45,2.4.78,4.84,1.12,7.27A101.14,101.14,0,0,1,88.36,307c0,2.54.3,5.1.15,7.65-.12,2.18-.3,4.37-.6,6.55-.33,2.49-1,4.9-1.47,7.35a75,75,0,0,1-2.1,7.74c-.76,2.38-1.69,4.71-2.3,7.14-.21.83-.56,1.63-.84,2.45-.52,1.55-1,3.12-1.56,4.67a24.85,24.85,0,0,0-1.28,7.62c-.15,4.29,2,7.27,5.09,9.81a21.88,21.88,0,0,0,4.07,2.53,13.69,13.69,0,0,0,4,1.53c.9.13,1.74.51,2.65.64a2.42,2.42,0,0,1,2,1.82c.65,1.84,1.06,3.74,1.74,5.56.81,2.14,1.51,4.32,2.25,6.48,1,3,2.25,5.89,3.54,8.77,1.42,3.15,3,6.2,4.64,9.25,2,3.81,4.37,7.36,6.62,11,1.18,1.9,2.63,3.64,4,5.43,1.64,2.17,3.24,4.37,5,6.46,1.33,1.6,2.64,3.2,4.08,4.7,2.13,2.22,4.2,4.49,6.3,6.73.33.34.75.58,1.09.91,2.93,2.83,5.66,5.86,8.77,8.51a4.3,4.3,0,0,1,.8.85c.25.37.15.67-.34.73a6.88,6.88,0,0,1-.91,0c-3.29,0-6.59,0-9.89,0a55.69,55.69,0,0,1-6.18-.59c-1.58-.16-3.15-.46-4.72-.68a89.82,89.82,0,0,1-10.5-2.2A113.59,113.59,0,0,1,99,442a88.33,88.33,0,0,1-9.46-4.28c-2.8-1.52-5.59-3.07-8.27-4.83-3.22-2.11-6.14-4.61-9.29-6.82a6.3,6.3,0,0,1-.75-.71c-2.15-2.14-4.29-4.3-6.46-6.43a70.65,70.65,0,0,1-5.24-6.09,65.18,65.18,0,0,1-6.3-9.64A60.93,60.93,0,0,1,49,394.28c-1-2.89-2-5.8-3.25-8.61a29.57,29.57,0,0,0-4.56-7.19q-3.12-3.64-6.36-7.18a144.75,144.75,0,0,1-9.42-11.53,58.13,58.13,0,0,1-3.89-6.43c-1.1-2-2.18-4-3.18-6.09a72.19,72.19,0,0,1-4.59-12.11c-.94-3.37-1.59-6.79-2.19-10.23a33.37,33.37,0,0,1-.61-6.56,17.52,17.52,0,0,0-.19-3.23,7.4,7.4,0,0,1,.11-3.1,5.84,5.84,0,0,0,.09-1.68,53.45,53.45,0,0,1,.78-9.53,70.5,70.5,0,0,1,1.54-7.46,85.34,85.34,0,0,1,2.95-9c1.31-3.26,2.87-6.38,4.34-9.54a103,103,0,0,1,7.55-12.71c2.33-3.54,4.69-7.06,6.93-10.65a71,71,0,0,0,3.76-6.77,20.12,20.12,0,0,0,1.72-4.61,5.07,5.07,0,0,0,.11-1c0-2.25.1-4.51,0-6.76-.53-10.14-.09-20.29-.23-30.43.54-2.51.12-5.08.44-7.62.19-1.56.32-3.17.38-4.77a26.84,26.84,0,0,1,.4-4c.22-1.19.07-2.4.3-3.61.47-2.45.67-4.95,1-7.42.49-3.68,1.18-7.31,1.91-10.94.49-2.41,1.06-4.8,1.64-7.19s1.18-4.51,1.87-6.73c1.06-3.46,2.26-6.88,3.43-10.31s2.61-6.68,4.05-9.95c.95-2.17,1.88-4.36,3-6.44.93-1.69,1.8-3.44,2.65-5.18a104.25,104.25,0,0,1,6.28-11.21c2.51-3.92,4.89-7.93,7.76-11.6,2.33-3,4.51-6.11,7-9,2.17-2.57,4.41-5.09,6.61-7.64C91,76,93.15,74,95.28,72s4.23-4.19,6.44-6.18q3.07-2.77,6.29-5.4c1.83-1.51,3.67-3,5.47-4.57s3.83-2.95,5.79-4.36c3.47-2.5,7-4.85,10.64-7.18,3.26-2.12,6.55-4.18,10-6s7-3.77,10.59-5.54c.47-.23.9-.53,1.35-.78s.66-.1.75.35a1,1,0,0,1,0,.39c-.25,1.36-.18,2.75-.38,4.12a11.22,11.22,0,0,0-.14,1.41c-.11,4-.18,8-.33,12.07-.11,2.73-.12,5.45-.17,8.17a1.54,1.54,0,0,1-.9,1.54c-1,.55-2,1.09-3,1.59a108.47,108.47,0,0,0-11.37,6.52c-2.65,1.71-5.35,3.35-8,5.14-3.7,2.55-7.24,5.31-10.78,8.08a143.92,143.92,0,0,0-14.86,13.93,80.17,80.17,0,0,0-6.2,7.3c-1.61,2.14-3.36,4.17-4.9,6.36-1.39,2-2.85,3.9-4.11,6-1,1.58-2,3.09-3.14,4.6A74.73,74.73,0,0,0,80.28,126c-1.37,2.4-2.68,4.85-4,7.29-1.82,3.38-3.45,6.87-5,10.38-.69,1.54-1.44,3.06-2.15,4.59-1.13,2.46-2.2,5-3.28,7.45-1.58,3.65-2.91,7.4-4.39,11.09-.77,1.92-1.3,3.93-2,5.9-1.3,4-2.59,8-3.54,12-.73,3.14-1.31,6.32-1.79,9.51-.29,1.88-.37,3.78-.55,5.66-.27,2.84-.26,5.71-.57,8.52a51,51,0,0,0,.19,8.92,62.53,62.53,0,0,0,1.77,12,63.75,63.75,0,0,0,2.4,7.79,12.83,12.83,0,0,0,2.25,3.31c.3.35.71.73,1.23.51s.58-.69.59-1.21a44.65,44.65,0,0,0-.45-5.54c-.14-1.16-.16-2.32-.3-3.48a83.07,83.07,0,0,1-.31-10,13,13,0,0,0-.17-3.11c-.13-.5.15-1.09.16-1.65,0-1,0-2,0-3a70,70,0,0,1,.49-7.23,112.21,112.21,0,0,1,1.63-11.11c.41-2.15.86-4.31,1.38-6.44a107.86,107.86,0,0,1,4.67-13.85c.6-1.52,1.5-2.92,2.14-4.42.73-1.71,1.65-3.32,2.47-5,.5-1,1.07-2,1.67-2.92,2-3.13,3.93-6.31,6.2-9.26,1.44-1.87,2.93-3.72,4.53-5.49,2.21-2.46,4.53-4.79,6.91-7.06a94.11,94.11,0,0,1,9.25-8.12c2.89-2.1,5.73-4.3,8.66-6.37,2.11-1.5,4.35-2.82,6.59-4.13,3.36-2,6.72-3.93,10.18-5.72s6.94-3.47,10.49-5c2.33-1,4.71-2,7-3,3.39-1.52,6.85-2.86,10.26-4.32a2.05,2.05,0,0,1,2.71.66,19,19,0,0,0,3,2.66,16,16,0,0,0,7.56,2.83,33.72,33.72,0,0,0,7.9.2,53.88,53.88,0,0,0,9.42-1.58,85.3,85.3,0,0,0,10.2-3.4c2.42-.93,4.89-1.75,7.25-2.81,3.32-1.47,6.69-2.84,9.86-4.64,3.79-2.16,7.6-4.28,11.38-6.48a2.3,2.3,0,0,1,2.34,0,35,35,0,0,0,6.68,2,28.36,28.36,0,0,0,6,.77c1.9,0,3.82.11,5.71.08,2.42,0,4.85.1,7.26-.13a22.3,22.3,0,0,0,6-1.44,4.49,4.49,0,0,1,5,.68,63.37,63.37,0,0,0,7.42,5c2.07,1.25,4.2,2.4,6.31,3.6a91.31,91.31,0,0,0,8.7,4.31c1.66.73,3.39,1.29,5.07,2a72,72,0,0,0,11.67,3.44,42.15,42.15,0,0,0,6.9,1,26.8,26.8,0,0,0,3.1.25,28.26,28.26,0,0,0,11-2.57,11,11,0,0,0,3.77-3.12c.45-.58.88-1.18,1.35-1.74.6-.73.91-.8,1.8-.38,2.51,1.19,5.09,2.2,7.6,3.36,3.3,1.52,6.6,3,9.8,4.71,4,2.14,8.1,4.11,11.95,6.5,4.26,2.64,8.52,5.3,12.58,8.26,2.19,1.6,4.38,3.23,6.49,4.93a90,90,0,0,1,9.34,8.23c1.57,1.67,3.27,3.23,4.86,4.89A74.13,74.13,0,0,1,403.27,159c1.23,2.07,2.47,4.15,3.59,6.28s1.91,4.06,2.82,6.12a59.23,59.23,0,0,1,2.89,7.61c.88,3,2,6,2.59,9.08.66,3.47,1.48,6.9,2,10.4.45,3.08.77,6.15,1,9.25a135.5,135.5,0,0,1,.15,14.67c0,2.39-.39,4.8-.63,7.2a73.55,73.55,0,0,0-.87,8c0,.51-.18,1-.23,1.53a.8.8,0,0,0,.37.9c.38.2.64-.06.92-.28a7.2,7.2,0,0,0,1.47-2.12,33.2,33.2,0,0,0,3.49-9.44c.8-3.31,1.44-6.65,2-10a29.4,29.4,0,0,0,.59-6.82c-.1-1.44.32-2.83.26-4.27-.13-3.14-.25-6.29-.47-9.44-.13-1.89-.41-3.77-.61-5.65-.23-2.14-.73-4.24-1.06-6.37-.5-3.2-1.39-6.31-2.08-9.47a60,60,0,0,0-1.68-5.85c-1.26-3.86-2.28-7.8-3.69-11.62-1.23-3.28-2.52-6.53-3.74-9.81s-2.61-6.41-4.09-9.54c-1.73-3.63-3.45-7.27-5.43-10.78-1.4-2.49-2.78-5-4.23-7.44-2-3.38-4.32-6.55-6.57-9.76-1.24-1.76-2.5-3.52-3.82-5.22s-2.8-3.41-4.17-5.13c-2.16-2.7-4.48-5.26-6.83-7.79a59.37,59.37,0,0,0-6-5.81c-1.24-1-2.28-2.23-3.53-3.25-2.85-2.31-5.49-4.87-8.38-7.14-2.07-1.63-4.1-3.32-6.18-4.92-2.47-1.89-5-3.65-7.66-5.32-3.06-2-6.12-3.91-9.23-5.78-.33-.2-.66-.42-1-.65a2.37,2.37,0,0,1-1-2.1c.06-3.6,0-7.2,0-10.8,0-2.67.06-5.34,0-8a42.23,42.23,0,0,0-.63-6A7.82,7.82,0,0,1,333.67,30.39Z"/><path class="cls-4" d="M160.86,81.81c.17-4.76.41-9.52.48-14.29,0-1.89-.09-3.8-.09-5.71,0-4.16,0-8.33,0-12.49,0-3.86.24-7.71.53-11.55a37,37,0,0,1,1.54-8.28,15.06,15.06,0,0,1,2.56-4.93A7.38,7.38,0,0,1,170.42,22a21,21,0,0,1,9.27.4A70.2,70.2,0,0,1,196,28.69a76.71,76.71,0,0,1,18.08,13.63,60.06,60.06,0,0,1,7.64,9.33,6.2,6.2,0,0,1,1,4.81,44.53,44.53,0,0,0-.6,4.76c-.06.92-.47,1-1.16.56s-1.4-1-2.12-1.5a50.77,50.77,0,0,0-10.38-5.36A13.62,13.62,0,0,0,203,54a3.7,3.7,0,0,0-2.94,1.68,2.15,2.15,0,0,0,.19,2.74c1.53,1.84,3.65,2.74,5.78,3.64a82.45,82.45,0,0,1,13.61,7.3,12.8,12.8,0,0,1,1,.79,1.51,1.51,0,0,1,.6,1.36,31.48,31.48,0,0,0,.55,6.85,3,3,0,0,1-1.49,3.28,68.53,68.53,0,0,1-7.7,4.84q-4.2,2.35-8.56,4.39a116.61,116.61,0,0,1-20.22,7.49,42.66,42.66,0,0,1-11.78,1.73c-5.25-.14-8.09-2.34-9.86-7.12a22.61,22.61,0,0,1-1.31-7.51c0-1.22,0-2.43,0-3.65Z"/><path class="cls-5" d="M325,44.06c-.29,3.91-.17,8.3-.32,12.67-.13,3.85-.25,7.71-.52,11.56a118,118,0,0,0,.25,12.19,62.06,62.06,0,0,1-.37,9.73A24.12,24.12,0,0,1,322.73,96a10.45,10.45,0,0,1-10.25,7.17,39.42,39.42,0,0,1-10.89-1.65A83.8,83.8,0,0,1,291.28,98a104.13,104.13,0,0,1-14.1-7.23,67.59,67.59,0,0,1-8-5.53,41.23,41.23,0,0,1-3.1-3,2,2,0,0,1-.44-2.06,41.44,41.44,0,0,0,1-6.15,3.43,3.43,0,0,1,1.49-2.48q3.78-2.65,7.77-5a71.6,71.6,0,0,1,10.66-4.76A10.89,10.89,0,0,0,291,59.25a2.4,2.4,0,0,0,0-3.46c-1.59-1.71-3.62-1.69-5.67-1.41a27.75,27.75,0,0,0-7.64,2.46A54.53,54.53,0,0,0,267.72,63a5,5,0,0,1-.52.39c-.57.34-.77.26-.84-.38-.18-1.72-.34-3.44-.51-5.16-.08-.86-.17-1.72-.26-2.58a3.15,3.15,0,0,1,.39-1.75,38.89,38.89,0,0,1,4.5-6.51,61.29,61.29,0,0,1,5.14-5.67A73.87,73.87,0,0,1,287.45,32a67.57,67.57,0,0,1,11.17-5.79,50.07,50.07,0,0,1,11.12-3.1,28.77,28.77,0,0,1,6.62-.29,6.71,6.71,0,0,1,5.48,3.25,15.74,15.74,0,0,1,2.37,6.52A107.36,107.36,0,0,1,325,44.06Z"/><path class="cls-6" d="M243.78,10.82c1.4,0,2.49-.08,3.56,0,3.29.29,6.59.06,9.86.3,2.7.19,5.41.37,8.11.64,2,.21,4,.5,6,.66,2.36.18,4.7.6,7,1,3.09.55,6.18,1.14,9.25,1.81,2,.43,4,1,6,1.58A1.63,1.63,0,0,1,294,17c.19.09.4.18.44.43a.51.51,0,0,1-.45.55,39.84,39.84,0,0,0-3.8,1.63,45.32,45.32,0,0,0-8.13,4.55q-2.76,1.81-5.4,3.79A72.75,72.75,0,0,0,267,36.59c-1.85,2-3.61,4.07-5.36,6.16-.4.47-.68.63-1.29.39a30.33,30.33,0,0,0-7.27-1.79,19.61,19.61,0,0,0-3.6-.35,6.51,6.51,0,0,1-2.19-.19,2.81,2.81,0,0,0-1.41,0,7.28,7.28,0,0,1-2.45.19,37,37,0,0,0-6,.68,31.61,31.61,0,0,0-7.78,1.9,1.7,1.7,0,0,1-2.12-.63c-2.5-3-5.16-5.93-7.91-8.76a82.53,82.53,0,0,0-7.47-6.76,72.37,72.37,0,0,0-9.35-6.28,36.71,36.71,0,0,0-5.64-2.92c-.48-.17-1.28-.25-1.22-1s.82-.56,1.28-.7a89.72,89.72,0,0,1,9.46-2.11c2.33-.4,4.66-.84,7-1.21,1.61-.25,3.25-.37,4.86-.61s3.52-.33,5.25-.68c1.06-.21,2.14-.2,3.22-.32,3.43-.39,6.88-.5,10.34-.63C239.6,10.92,241.85,10.9,243.78,10.82Z"/><path class="cls-7" d="M85.35,135.37a24.09,24.09,0,0,1,2.84-5.91c1.81-3.1,3.65-6.19,5.71-9.14,2.94-4.22,5.94-8.41,9.19-12.4a146.39,146.39,0,0,1,13.18-14,140.17,140.17,0,0,1,13.32-11c2.68-2,5.51-3.74,8.3-5.56,3.52-2.3,7.12-4.46,10.79-6.51.76-.42,1.52-.84,2.3-1.22,1-.49,1.12-.4,1.14.65,0,.83,0,1.65,0,2.48,0,3.12,0,6.24,0,9.36A73.89,73.89,0,0,0,153,94c.15,1,0,1.16-.85,1.44C148,96.81,144,98.61,140,100.31c-5.35,2.26-10.64,4.64-15.78,7.35a174.56,174.56,0,0,0-16.26,9.49q-6.41,4.32-12.39,9.21a82.6,82.6,0,0,0-7.7,6.78C87.08,133.94,86.19,134.63,85.35,135.37Z"/><path class="cls-8" d="M333.26,69.71a9,9,0,0,1,2.2,1.22c3.32,2.13,6.62,4.28,9.81,6.59,4.56,3.31,9,6.76,13.27,10.42a159,159,0,0,1,11.74,11c3.68,3.86,7.13,7.91,10.45,12.09,2.34,3,4.45,6.07,6.63,9.14s4.16,6.38,6.12,9.65c1.34,2.23,2.44,4.59,3.6,6.92.09.18.23.38.09.62-.38.19-.53-.17-.71-.35a160.4,160.4,0,0,0-13.67-12c-3.31-2.66-6.76-5.13-10.26-7.54-4.15-2.85-8.4-5.52-12.74-8.06-4.61-2.68-9.4-5-14.19-7.39-3.93-1.92-7.94-3.67-12-5.38l-.36-.15c-1.36-.6-1.37-.67-1.08-2.15a44.55,44.55,0,0,0,.61-4.76c.47-6.28.21-12.57.25-18.85C333.05,70.45,332.91,70.09,333.26,69.71Z"/><path class="cls-9" d="M259.34,67.49a59.36,59.36,0,0,1-.55,9.53,8.66,8.66,0,0,1-3,6,3.91,3.91,0,0,1-1.58.87,22.81,22.81,0,0,1-4.36.63,77,77,0,0,1-9.61-.31,32.87,32.87,0,0,1-5.73-1.07,6.27,6.27,0,0,1-4.75-5.56,49.2,49.2,0,0,1-.42-9.71,70.84,70.84,0,0,1,.87-7.85,25.54,25.54,0,0,1,1.32-4.61,7,7,0,0,1,5.35-4.45,45.17,45.17,0,0,1,12.92-.77,15.66,15.66,0,0,1,4.8,1.1,5.77,5.77,0,0,1,3.68,3.91,27.83,27.83,0,0,1,.8,5.12A47.71,47.71,0,0,1,259.34,67.49Z"/><path class="cls-10" d="M90.74,343.56c.51,6.63,1.63,13.07,2.79,19.69a23.73,23.73,0,0,1-6.31-2.63,10.53,10.53,0,0,1-1.1-.9,2.46,2.46,0,0,1-.78-2.67,80.42,80.42,0,0,1,3.45-9.66c.39-1,.81-2,1.23-3A1.06,1.06,0,0,1,90.74,343.56Z"/><path class="cls-11" d="M379.68,350.33c.51.06.54.37.63.59,1.36,3.42,2.73,6.84,4,10.29.75,2,.7,2-1.11,3.05a43.18,43.18,0,0,1-4.87,2.16,1.32,1.32,0,0,1-1.24.06C378,361.11,379.18,355.78,379.68,350.33Z"/><path class="cls-12" d="M278.47,405.21a2.25,2.25,0,0,1-.24,1.76c-.68,1.68-1.42,3.35-2.13,5a81.11,81.11,0,0,1-5.89,11.28,56.46,56.46,0,0,1-5,6.81,55.1,55.1,0,0,1-6.58,6.65,34.39,34.39,0,0,1-13.78,7,36.05,36.05,0,0,1-8.87,1.11,39.09,39.09,0,0,1-17.89-3.77,33.55,33.55,0,0,1-7.57-5.24A65.12,65.12,0,0,1,196.12,416a92.38,92.38,0,0,1-4.81-11.65,7.17,7.17,0,0,0-.3-.71c.94-.23,1.51.47,2.16.91,2.44,1.65,4.57,3.71,6.86,5.56,5.59,4.52,11.48,8.53,18.24,11.13a45.86,45.86,0,0,0,19.32,3.35,48,48,0,0,0,16.82-4.18,78.72,78.72,0,0,0,14.45-8.69c2.83-2.08,5.77-4,8.55-6.16A1.07,1.07,0,0,1,278.47,405.21Z"/><path class="cls-13" d="M281.93,300.52c-.28.06-.47,0-.47-.33,0-.58,0-1.15,0-1.73-.52-.8,0-1.61.05-2.39a46.56,46.56,0,0,1,3.55-14.51,39,39,0,0,1,10.06-14c.47-.4.67-1.14,1.46-1.15a35.14,35.14,0,0,0,3.9-2.75A31.34,31.34,0,0,1,316,258.07a40,40,0,0,1,17.9,2.42c1.46.55,2.86,1.25,4.3,1.87.34.15.72.45,1.09.17.55-.44,1.32-.51,1.76-1.08.2-.27,0-.49-.22-.65-1.07-.74-1.94-1.72-3-2.5a38.42,38.42,0,0,0-10.16-5.44,29.87,29.87,0,0,0-13.31-1.64,32.47,32.47,0,0,0-12.95,4.43c-6.34,3.7-11,9-15,15.07-.19.27-.26.66-.74.69a3.59,3.59,0,0,1,.51-2.1,42.29,42.29,0,0,1,6.93-10.79,36.14,36.14,0,0,1,9.62-7.87,28.5,28.5,0,0,1,8.18-2.89,33.29,33.29,0,0,1,17.35.89A36.28,36.28,0,0,1,341,256.17a18.94,18.94,0,0,1,3,2.89c.34.46.68.45,1.07.07a21.19,21.19,0,0,0,1.75-1.92,10.26,10.26,0,0,1,1.66-1.83c.52.45.28.94.19,1.36a13.08,13.08,0,0,1-5.11,8.05c-.18.12-.37.23-.54.36-.38.29-.34.58,0,.82,1.63,1,3.18,1.89,5.33,1.34a21.93,21.93,0,0,0,7.58-3.89c.35-.26.67-.55,1-.78.78-.48,1.31-.24,1.44.71a6.76,6.76,0,0,1-.45,3.58,13.73,13.73,0,0,1-3,4.49,37.6,37.6,0,0,1-2.89,2.61c-.62.51-.58.65,0,1.22,1.86,1.85,4.16,2.19,6.62,2a26.57,26.57,0,0,0,6.32-1.5c.46-.16,1.05-.6,1.44-.19s-.06,1.07-.31,1.53a13.82,13.82,0,0,1-6.59,5.86,19.43,19.43,0,0,1-3.4,1.31c-.93.26-1,.4-1,1.38.12,6.59-2,12.52-5.34,18.09-.94,1.56-2,3.08-3,4.59a16.4,16.4,0,0,1-1.06,1.31c-.35.16-.35-.12-.42-.33a1.39,1.39,0,0,1,0-.35c.08-.29.12-.59.19-.89,2.24-5.52,2.51-11.32,2.15-17.14A19.89,19.89,0,0,0,340.6,277a31.58,31.58,0,0,0-10.68-6.33c-.31-.11-.31-.11-.62.17a3.36,3.36,0,0,0,1.05,1.41,7.53,7.53,0,0,1,1.78,2.61c-.54.91-.94.15-1.23-.17-.78-.87-1.56-1.73-2.42-2.53a15.6,15.6,0,0,0-8.09-3.58c-7.77-1.41-14.54.94-20.63,5.68a31.46,31.46,0,0,0-8.37,9.81,3.57,3.57,0,0,1-1.91,1.82,49.06,49.06,0,0,0-6.68,12.79C282.6,299.34,282.55,300.08,281.93,300.52Z"/><path class="cls-14" d="M127.9,307.82c-.07.14-.06.44-.25.35a1.8,1.8,0,0,1-.67-.59c-3.65-5.1-6.46-10.57-7.34-16.88a42,42,0,0,1-.31-7.52c0-1.09,0-1.1-1.07-1.38a16.91,16.91,0,0,1-9.5-6.21,6.35,6.35,0,0,1-1.39-2.91c-.18-1.29.18-1.63,1.38-1.25,1.52.49,3,1,4.55,1.57a19.63,19.63,0,0,0,6.28.88,4.1,4.1,0,0,0,2.43-.81,23.89,23.89,0,0,0,3.1-2.57c.86-.84.86-1-.07-1.7a15,15,0,0,1-4.19-4.9,13.63,13.63,0,0,1-1.55-7.79,1.92,1.92,0,0,1,.54-1.38.92.92,0,0,1,.62.49,26.16,26.16,0,0,0,5.13,5c1,.74,1,.74,1.75-.2a33.5,33.5,0,0,1,23.14-12.34,32.2,32.2,0,0,1,14,1.54,33.43,33.43,0,0,1,9.19,5.07,36.75,36.75,0,0,1,10.28,12.42c.76,1.43,1.3,3,1.94,4.47-.45.23-.6,0-.74-.22-.89-1.18-1.81-2.33-2.64-3.54a38.33,38.33,0,0,0-12.19-11.52,31.42,31.42,0,0,0-13-4.3c-5.85-.59-11.28.86-16.6,3a41.31,41.31,0,0,0-11.51,7.21,3.87,3.87,0,0,0,4.77,1c.55-.26,1.09-.53,1.63-.81a38.93,38.93,0,0,1,26.56-3.1,31.84,31.84,0,0,1,9.71,4.28,39.54,39.54,0,0,1,10.79,10.78,45.25,45.25,0,0,1,7.22,22.65c0,.57.1,1.13.12,1.69s.16.93-.16,1.36c-.42-.22-.23-.68-.5-.92-.46-.29-.47-.79-.62-1.23a78.3,78.3,0,0,0-3.47-8.49c-.2-.4-.29-.91-.79-1.1-.1.26.05.47.09.7a2,2,0,0,1,.08.35,5.3,5.3,0,0,0,.23,1.3,3.19,3.19,0,0,1,.09.63c0,2,.05,4.07,0,6.11a2,2,0,0,1-.08.43,4.67,4.67,0,0,1-.14.5c-.12.37,0,1-.56,1s-.37-.7-.4-1.12a31.86,31.86,0,0,1,0-4c.25-4.35-1.56-7.89-4.08-11.22a37.23,37.23,0,0,0-15.42-12.42c-5.12-2.12-10.42-2.77-15.63-.25a16.17,16.17,0,0,0-7.47,7.88,29.16,29.16,0,0,0-3.05,12.94,32,32,0,0,0,2.25,12.44c.24.57.47,1.16-.14,1.66-.62.09-.75-.39-.91-.81s-.06-.57-.14-.84c0-.1-.06-.2-.08-.3a5.18,5.18,0,0,0-.17-.56c0-.09-.07-.18-.1-.27a4.84,4.84,0,0,0-.17-.54c0-.09-.07-.18-.1-.27a5.05,5.05,0,0,0-.18-.55,2.81,2.81,0,0,1-.1-.31,4.81,4.81,0,0,0-.21-.83,3,3,0,0,1-.08-.32,3.79,3.79,0,0,0-.17-.94,1.67,1.67,0,0,1-.08-.32,4.14,4.14,0,0,0-.19-1,2.58,2.58,0,0,1-.09-.35,6.93,6.93,0,0,0-.27-1.7,2,2,0,0,1-.07-.43q0-3.65,0-7.29a2,2,0,0,1,.05-.41,7.56,7.56,0,0,0,.29-1.27c0-.11.06-.22.09-.33a4.57,4.57,0,0,0,.22-1.1c0-.1.05-.2.08-.3a4.68,4.68,0,0,0,.18-.76,1.71,1.71,0,0,1,.09-.3c.08-.25.12-.52.18-.78a1.15,1.15,0,0,1,.11-.31,3.35,3.35,0,0,0,.35-1.43,1.88,1.88,0,0,1,.26-.64,2,2,0,0,0,.26-.83,21.28,21.28,0,0,1,5.94-8.62,2.35,2.35,0,0,0-1.53.17c-6.42,2-11.65,5.64-15.13,11.54a20.37,20.37,0,0,0-2.7,9.13,47.7,47.7,0,0,0,1.87,15.66,8.85,8.85,0,0,1,.24.92A.53.53,0,0,1,127.9,307.82Z"/><path class="cls-15" d="M278.47,405.21c-2.14,1.53-4.32,3-6.43,4.59a103.45,103.45,0,0,1-15.37,9.9,48.39,48.39,0,0,1-13.26,4.43,43.82,43.82,0,0,1-6.57.79,47.46,47.46,0,0,1-14.6-2,56.6,56.6,0,0,1-13.79-6.31,105.89,105.89,0,0,1-8.59-6.26c-2.35-1.78-4.42-3.9-6.87-5.55a15.34,15.34,0,0,0-2-1.2,16.14,16.14,0,0,0-2.56-1.76,24.64,24.64,0,0,1-3.41-2.78,2.79,2.79,0,0,1-.92-1.81,1.48,1.48,0,0,1,1.58-1.76A7.48,7.48,0,0,1,188,396,33.81,33.81,0,0,0,193,397.1c5,.24,9.87,1,14.87.91a162.22,162.22,0,0,1,25,1.65,39.4,39.4,0,0,0,8.68-.21c3.41-.32,6.82-.51,10.24-.74,5.37-.36,10.74-.1,16.11-.24a40.42,40.42,0,0,0,4.66-.35c1.14-.15,2.23.35,3.35,0a32,32,0,0,0,5.49-.84,9.34,9.34,0,0,1,2-.26c1.72,0,2.48,1.25,1.71,2.8a4.89,4.89,0,0,1-1.64,1.8c-1.26.9-2.53,1.79-3.83,2.63A8.72,8.72,0,0,0,278.47,405.21Z"/><path class="cls-16" d="M281.93,300.52a30.82,30.82,0,0,1,2.41-6.57,57.16,57.16,0,0,1,5-8.35c.68.28.47.82.37,1.31-1.9,9.53-.16,18.29,5.81,26,3.48,4.5,7.95,7.76,13.67,8.86,6.37,1.22,11.93-.66,16.71-4.89,6.86-6.07,9.79-14,10.45-22.92a31.64,31.64,0,0,0-3.95-18.12c-.19-.35-.17-.75-.41-1.07a17.31,17.31,0,0,0-1.79-2.39c-.32-.46-.76-.82-1.05-1.3s-.74-.62-.77-1.2c.63-.1,1.1.29,1.61.47a31.8,31.8,0,0,1,10.1,5.8c4.84,4.11,7.83,9.19,8.08,15.69.17,4.57.1,9.11-1.35,13.51-.32,1-.68,2-1,2.95-.24.2,0,.58-.28.76h0c-.2.49-.08,1.15-.78,1.36-.67.9-.91,2-1.57,2.95a27,27,0,0,1-5.06,5.35,37.39,37.39,0,0,1-7.38,4.8,41.76,41.76,0,0,1-10,3.41,41.79,41.79,0,0,1-23.67-2.4,35.5,35.5,0,0,1-9.18-5c-.93-.7-1.88-1.38-2.76-2.14a9.57,9.57,0,0,1-3.48-5.32,17.41,17.41,0,0,1-.33-3.22,39.06,39.06,0,0,1,.18-6.21A16.18,16.18,0,0,0,281.93,300.52Z"/><path class="cls-17" d="M138,298a.16.16,0,0,0,0,.23c.27.31,0,.74.22,1.07a.16.16,0,0,0,0,.23c.27.28,0,.71.24,1l0,0c.22.21,0,.54.22.76v0c.26.19.05.54.25.75l0,0c.26.18,0,.53.25.74v0c.26.2,0,.55.25.76a1.52,1.52,0,0,0,.47,1.1c.55.23.63.79.85,1.24,2.92,5.9,6.91,10.76,13.05,13.56a18.55,18.55,0,0,0,11.28,1.33A21.14,21.14,0,0,0,178.78,312a27.17,27.17,0,0,0,5.07-11.55,22.93,22.93,0,0,0,.8-3.06h0a45.53,45.53,0,0,0,0-6.81l0-.51c-.27-.4,0-.9-.23-1.29l0-.28c-.22-.29,0-.7-.22-1,.12-.13-.18-.64.33-.39a1.29,1.29,0,0,1,.52.56,57.34,57.34,0,0,1,4.4,11,1.34,1.34,0,0,0,.08,1.13,3.55,3.55,0,0,1,.59,2.22c.05,2.29.47,4.57.3,6.87a9,9,0,0,1-2.51,5.95,38.24,38.24,0,0,1-12.52,8.41,40,40,0,0,1-9.93,2.89,34.81,34.81,0,0,1-15.28-.94,44.4,44.4,0,0,1-7.48-2.91A35.65,35.65,0,0,1,133,315.1a46.8,46.8,0,0,1-4.23-5.56,13.85,13.85,0,0,1-.87-1.72l-.06-.29c-.19-.21,0-.55-.24-.74a26.19,26.19,0,0,1-1.44-6,36.83,36.83,0,0,1-.39-11.62,21.71,21.71,0,0,1,8.42-14.27,26.09,26.09,0,0,1,10.24-5.15,2.39,2.39,0,0,1,1.44-.08.29.29,0,0,1-.07.41,22.45,22.45,0,0,0-6.23,8.6.7.7,0,0,0,0,.25c-.24.19,0,.62-.33.75-.22.13-.2.34-.19.55a9.56,9.56,0,0,1-.5,1.57v0c-.3.27,0,.73-.28,1v0c-.25.3.05.74-.26,1h0c-.28.39.08.91-.26,1.29h0c-.27.39.06.9-.24,1.29a.19.19,0,0,0,0,.24,65,65,0,0,0,0,8.14l0,.25c.34.56-.08,1.23.25,1.8v0C138,297.2,137.78,297.62,138,298Z"/><path class="cls-13" d="M180.48,221.11a11.56,11.56,0,0,1-3.12-.46,83.76,83.76,0,0,0-14.37-3,71.35,71.35,0,0,0-13-.23,65.17,65.17,0,0,0-27.45,8.1,68.37,68.37,0,0,0-16.77,13.83c-.5.55-1,1.1-1.51,1.61a1,1,0,0,1-1,.38c-.5-.18-.36-.66-.33-1a16.59,16.59,0,0,1,1.33-5.53,45.25,45.25,0,0,1,12.32-15.91,55.75,55.75,0,0,1,21.74-11.64,69.81,69.81,0,0,1,22-2.72,53.33,53.33,0,0,1,18.86,4,18,18,0,0,1,5.88,3.77,8.63,8.63,0,0,1,1.42,2c1.4,2.69,0,4.84-2.11,6A6.45,6.45,0,0,1,180.48,221.11Z"/><path class="cls-18" d="M315.56,205.52c11.06-.15,20.18,1.57,28.85,5.55a57.27,57.27,0,0,1,11,6.86A46.49,46.49,0,0,1,368.12,233a20.08,20.08,0,0,1,2.07,5.86,6.56,6.56,0,0,1,.1,2.07c-.08.66-.28.76-.85.38a7.92,7.92,0,0,1-1.08-.93c-2.46-2.44-4.76-5-7.41-7.3A54.08,54.08,0,0,0,344,223a73.22,73.22,0,0,0-8.19-2.55,72.1,72.1,0,0,0-22.73-1.73,94.79,94.79,0,0,0-12.2,1.85c-1.44.32-2.9.54-4.36.77a7.17,7.17,0,0,1-3.83-.35c-3.64-1.47-4.42-5.14-1.62-7.93a18.76,18.76,0,0,1,7.15-4.36A55.56,55.56,0,0,1,315.56,205.52Z"/><path class="cls-19" d="M275.94,398.15a25.28,25.28,0,0,1-4,.46c-4.53.39-9.09.33-13.63.31-4.25,0-8.48.29-12.72.56-2.8.17-5.6.51-8.4.73-3,.22-5.87-.35-8.79-.66-2.28-.24-4.55-.51-6.84-.7-6.31-.5-12.64-.36-19-.52a32.48,32.48,0,0,1-7.72-.93c-.62-.16-1.3.05-1.89-.3a7.89,7.89,0,0,0,2.14-.47,72.57,72.57,0,0,0,8.49-3.57,82.06,82.06,0,0,1,10.87-4.65,21.44,21.44,0,0,1,15.82.91c.75.33,1.52.63,2.29.92a7.48,7.48,0,0,0,5.33.19c1.47-.52,2.93-1.08,4.41-1.55a20.61,20.61,0,0,1,14.95.81c3,1.31,5.88,2.95,8.81,4.43,2.4,1.22,4.85,2.31,7.29,3.42A6.76,6.76,0,0,0,275.94,398.15Z"/><path class="cls-20" d="M220.06,360.6a8.21,8.21,0,0,1,7.65,5.59c.55,1.68-.26,2.77-2,2.65a11.39,11.39,0,0,1-6.88-2.66,6.8,6.8,0,0,1-1.61-2,2.18,2.18,0,0,1,1.45-3.42A4.24,4.24,0,0,1,220.06,360.6Z"/><path class="cls-21" d="M245.49,368.93a4.51,4.51,0,0,1-.52,0c-1.83-.19-2.4-1.1-1.79-2.85a6.72,6.72,0,0,1,2-2.71,8.72,8.72,0,0,1,6.12-2.41,3,3,0,0,1,2.12.83,2,2,0,0,1,.51,2.47,3.2,3.2,0,0,1-.62,1A11.94,11.94,0,0,1,245.49,368.93Z"/><path class="cls-22" d="M296.58,266.41c-5.69,5.28-10.15,11.34-12.58,18.84-1.34,4.12-1.79,8.35-2.44,12.58,0,.21-.07.42-.1.63-.44.31-.13.82-.48,1.47a16.62,16.62,0,0,1,0-2.67c.58-3.08.74-6.24,1.52-9.28.38-1.45.9-2.87,1.39-4.29a36,36,0,0,1,3.61-7.54,38.13,38.13,0,0,1,6.64-8.22c.61-.55,1.31-1,1.88-1.59C296.21,266.16,296.42,266.18,296.58,266.41Z"/><path class="cls-23" d="M344.71,310.43c.32-.42.32-1,.78-1.36.09.18,0,.45.29.53,0,.54-.36.83-.71,1.1S344.78,310.59,344.71,310.43Z"/><path class="cls-24" d="M332,274.78a6,6,0,0,1,1.58,2.46,33.38,33.38,0,0,1,3.25,15.63A36.52,36.52,0,0,1,332.61,309a25.28,25.28,0,0,1-12,11.81c-6.18,2.78-12.23,2.23-18-1.18a27.37,27.37,0,0,1-10.74-11.88A32.32,32.32,0,0,1,289,288.59c.09-.68.29-1.35.44-2,.07-.33.22-.67-.1-1,.18-.66,1,.06,1.25-.63a7.54,7.54,0,0,1,.7-1.39,32.72,32.72,0,0,1,6.48-8.05,28.13,28.13,0,0,1,5.66-4.09,40.93,40.93,0,0,1,5.15-2.42,15.66,15.66,0,0,1,4.78-1,47.88,47.88,0,0,1,4.94,0,18.71,18.71,0,0,1,8.84,2.7,11.76,11.76,0,0,1,3.67,3.43,3.58,3.58,0,0,0,.9.92C331.91,275.21,331.93,274.92,332,274.78Z"/><path class="cls-24" d="M329.13,271.09a2.33,2.33,0,0,1,1.05,1.3C329.67,272.09,329.18,271.76,329.13,271.09Z"/><path class="cls-23" d="M345.49,309.07a.68.68,0,0,1,.28-.76C345.84,308.62,345.82,308.91,345.49,309.07Z"/><path class="cls-25" d="M184.65,297.41a22.16,22.16,0,0,1-1.2,6.09,26.91,26.91,0,0,1-8.7,13.3,19.93,19.93,0,0,1-16.15,4.48A21.28,21.28,0,0,1,147,315.15,28.59,28.59,0,0,1,140,304.74a.94.94,0,0,0,.2-1.29,21.45,21.45,0,0,1-1.77-6.29,53.86,53.86,0,0,1-.69-6.93,23.35,23.35,0,0,1,.63-5,26.55,26.55,0,0,1,2.27-7.26,17.86,17.86,0,0,1,5.34-6.85,14,14,0,0,1,5.64-2.79,22.54,22.54,0,0,1,8.23,0,25.53,25.53,0,0,1,8.84,3.58,37.32,37.32,0,0,1,10.54,9.46,29.37,29.37,0,0,1,3.32,4.93,12.5,12.5,0,0,1,1.53,5.55c0,2.26,0,4.53,0,6.9C184.56,298.32,184.11,297.68,184.65,297.41Z"/><path class="cls-25" d="M137.47,294.81a10,10,0,0,1-.26-3.17,20.69,20.69,0,0,1,.26-5C137.55,289.39,137.53,292.1,137.47,294.81Z"/><path class="cls-25" d="M184.66,290.59a6,6,0,0,1,.29,2.63,12.79,12.79,0,0,1-.3,4.18C184.65,295.13,184.66,292.86,184.66,290.59Z"/><path class="cls-25" d="M137.75,296.86a3,3,0,0,1-.25-1.8C138,295.61,137.74,296.25,137.75,296.86Z"/><path class="cls-25" d="M138.55,281.76a2.84,2.84,0,0,1,.5-1.57A1.6,1.6,0,0,1,138.55,281.76Z"/><path class="cls-25" d="M137.74,285.13a2,2,0,0,1,.26-1.29C138,284.29,138.21,284.78,137.74,285.13Z"/><path class="cls-25" d="M184.38,288.79a1.87,1.87,0,0,1,.23,1.29C184.19,289.71,184.36,289.23,184.38,288.79Z"/><path class="cls-25" d="M137.5,286.43a1.63,1.63,0,0,1,.24-1.29C137.76,285.59,137.93,286.07,137.5,286.43Z"/><path class="cls-25" d="M184.11,287.52a1.18,1.18,0,0,1,.22,1C184,288.25,184.08,287.88,184.11,287.52Z"/><path class="cls-25" d="M138,298a1.58,1.58,0,0,1-.23-1.08C138.17,297.17,138,297.57,138,298Z"/><path class="cls-25" d="M138,283.83a1.31,1.31,0,0,1,.26-1C138.29,283.17,138.42,283.57,138,283.83Z"/><path class="cls-25" d="M138.24,299.26a1.44,1.44,0,0,1-.22-1.07C138.43,298.48,138.3,298.87,138.24,299.26Z"/><path class="cls-25" d="M138.53,300.48a1.22,1.22,0,0,1-.24-1C138.68,299.74,138.56,300.12,138.53,300.48Z"/><path class="cls-25" d="M138.26,282.78a1.15,1.15,0,0,1,.28-1C138.55,282.15,138.67,282.54,138.26,282.78Z"/><path class="cls-25" d="M138.77,301.29a.82.82,0,0,1-.22-.76C138.88,300.71,138.83,301,138.77,301.29Z"/><path class="cls-25" d="M139,302.07a.72.72,0,0,1-.25-.75C139.13,301.48,139.09,301.77,139,302.07Z"/><path class="cls-25" d="M139.56,303.64a.88.88,0,0,1-.25-.76C139.65,303.05,139.61,303.34,139.56,303.64Z"/><path class="cls-2" d="M127.6,306.79c.31.18.3.45.24.74A.82.82,0,0,1,127.6,306.79Z"/><path class="cls-25" d="M139.24,279.64a1.42,1.42,0,0,1,.33-.75C139.6,279.21,139.66,279.53,139.24,279.64Z"/><path class="cls-25" d="M139.3,302.85a.78.78,0,0,1-.25-.74C139.39,302.26,139.35,302.55,139.3,302.85Z"/><path class="cls-26" d="M236,417.89a43.07,43.07,0,0,1-15-2.58A37.42,37.42,0,0,1,210.11,409a21.61,21.61,0,0,1-2.32-2.27c-.23-.25-.57-.5-.45-.88s.63-.42,1-.44a29.7,29.7,0,0,1,4.81.06c6.48.58,12.91,1.57,19.38,2.2a61.84,61.84,0,0,0,13-.47,90.92,90.92,0,0,1,14.66-.7c.83,0,1.65,0,2.48,0,.21,0,.46,0,.58.2s-.09.48-.26.66a22.09,22.09,0,0,1-3.75,3.21,40.88,40.88,0,0,1-13.64,6.22A43.67,43.67,0,0,1,236,417.89Z"/><path class="cls-27" d="M306.68,276.35c.3-.45.68-.26,1-.09a3,3,0,0,0,2.25,0,21.38,21.38,0,0,1,5.05-1,10.2,10.2,0,0,1,6.23,2.19c3,2.09,4.42,5.14,5.25,8.52a21.39,21.39,0,0,1-.44,11.36,16.44,16.44,0,0,1-2.06,4.86,15.59,15.59,0,0,1-8.4,6.55,10.84,10.84,0,0,1-6.23-.23,14.05,14.05,0,0,1-7.9-5.94,19.28,19.28,0,0,1-3-7.51,12.27,12.27,0,0,1,.11-4.9c.24-1.05.41-2.11.55-3.18a5.59,5.59,0,0,0-.39-2.53c-.2-.58-.27-1.18-.47-1.74a2.57,2.57,0,0,1,.68-2.58c.25.22.16.47.24.66l0,.19a7.62,7.62,0,0,0,.21,2.56,6.21,6.21,0,0,0,1.63,2.62,5.47,5.47,0,0,0,6.13-9.07C307,276.85,306.69,276.71,306.68,276.35Z"/><path class="cls-28" d="M306.68,276.35a5.58,5.58,0,0,1,3.12,6,5.82,5.82,0,0,1-7.16,4.95,4.93,4.93,0,0,1-3.47-3.7,6.29,6.29,0,0,1,0-2.83h0a10,10,0,0,1,2.09-3,4.89,4.89,0,0,1,4-1.46Z"/><path class="cls-1" d="M152.13,276.36c-.11-.08-.45-.13-.3-.26.39-.33.9-.7,1.41-.54,1,.31,2.15.05,3.17.53a4.75,4.75,0,0,0,2.82.12,15.15,15.15,0,0,1,11.57,2.61,11.3,11.3,0,0,1,2.83,3.35,16.9,16.9,0,0,1,2.6,7.26,19.64,19.64,0,0,1-.22,5.82,18.64,18.64,0,0,1-5.38,10,12.79,12.79,0,0,1-6.46,3.35,8.82,8.82,0,0,1-5.81-.63c-.55-.25-1.13-.42-1.7-.62a11,11,0,0,1-4.52-3.61,22.13,22.13,0,0,1-3.31-5.83,9.32,9.32,0,0,1-.62-2.64,17.34,17.34,0,0,1,0-6.18,6.74,6.74,0,0,0-.2-4.45c-.18-.41.19-.34.45-.26a6,6,0,0,0,4.68,2c4.22-.13,5.72-4.41,4.54-7.4-.49-1.25-1.69-1.79-2.78-2.41a4.32,4.32,0,0,0-2.36-.16A.8.8,0,0,1,152.13,276.36Z"/><path class="cls-29" d="M152.13,276.36a.19.19,0,0,0,.24-.06,6.58,6.58,0,0,1,2.54,0c.25.14.51.31.77.44,2.29,1.13,3.15,2.83,2.56,5.74a4.92,4.92,0,0,1-3.72,4.1,5.53,5.53,0,0,1-5.66-1.31,2.51,2.51,0,0,1-.44-.86.76.76,0,0,0,0-.26c-1.25-3.37.92-6.31,3.39-7.54A2.53,2.53,0,0,0,152.13,276.36Z"/><path class="cls-24" d="M299.2,280.75l0,2.83A3.48,3.48,0,0,1,299.2,280.75Z"/><path class="cls-25" d="M154.91,276.26l-2.54,0A2.69,2.69,0,0,1,154.91,276.26Z"/></g></g></svg>