<svg xmlns="http://www.w3.org/2000/svg" viewBox="0 0 96 96"><g stroke="#65401f" stroke-linecap="round" stroke-linejoin="round" stroke-width="4"><path fill="#f06a21" d="m17 36 3-27 24 15h8L76 9l3 27c5 7 7 15 7 25 0 16-14 25-38 25S10 77 10 61c0-10 2-18 7-25z"/><path fill="#ffb273" d="m24 20 2 12 11-6m35-6-2 12-11-6" stroke="none"/><path fill="#fffdf8" d="M19 50c5-18 15-24 29-24s24 6 29 24c-3 20-14 29-29 29S22 70 19 50z" stroke="none"/><path fill="#f06a21" d="M48 26v21l-10-6-10 8c2-15 10-23 20-23zm0 0v21l10-6 10 8c-2-15-10-23-20-23z" stroke="none"/><circle cx="36" cy="51" r="4" fill="#65401f"/><circle cx="60" cy="51" r="4" fill="#65401f"/><path fill="#65401f" d="m43 61 5-4 5 4-5 5z"/><ellipse cx="30" cy="62" rx="6" ry="3" fill="#f8aa8c" stroke="none"/><ellipse cx="66" cy="62" rx="6" ry="3" fill="#f8aa8c" stroke="none"/><path d="M44 69c3 3 5 3 8 0" fill="none"/></g></svg>
