<svg xmlns="http://www.w3.org/2000/svg" viewBox="0 0 64 64"><path d="M16 11c2 8 9 10 16 10s14-2 16-10" fill="none" stroke="#607b58" stroke-width="5" stroke-linecap="round"/><circle cx="32" cy="37" r="22" fill="#ad9975"/><ellipse cx="32" cy="39" rx="15" ry="13" fill="#e3d1aa"/><path d="M17 31c3-6 10-7 15-3 5-4 12-3 15 3-2 7-9 10-15 10s-13-3-15-10z" fill="#7b684f"/><ellipse cx="24" cy="34" rx="5" ry="6" fill="#fffdf8"/><ellipse cx="40" cy="34" rx="5" ry="6" fill="#fffdf8"/><circle cx="24" cy="35" r="2" fill="#3d4035"/><circle cx="40" cy="35" r="2" fill="#3d4035"/><ellipse cx="32" cy="43" rx="4" ry="3" fill="#4c4337"/><path d="M28 49c3 2 5 2 8 0" fill="none" stroke="#88775f" stroke-width="2" stroke-linecap="round"/></svg>
